<?xml version="1.0" standalone="no"?>
<!DOCTYPE svg PUBLIC "-//W3C//DTD SVG 1.1//EN" "http://www.w3.org/Graphics/SVG/1.1/DTD/svg11.dtd">
<svg width="150mm" height="150mm" viewBox="-75 -75 150 150" xmlns="http://www.w3.org/2000/svg" version="1.1">
<title>OpenSCAD Model</title>
<path d="
M 74.5,-74.5 L -74.5,-74.5 L -74.5,74.5 L 74.5,74.5 z
M 59.1336,-54.9063 L 59.1091,-54.9122 L 58.2553,-55.2355 L 58.2312,-55.2487 L 57.5302,-55.7684 L 57.5097,-55.7887
 L 56.9867,-56.486 L 56.9733,-56.5102 L 56.6478,-57.3597 L 56.6418,-57.3844 L 56.5334,-58.3589 L 56.5327,-58.37
 L 56.5327,-61.279 L 56.5333,-61.2893 L 56.64,-62.322 L 56.6453,-62.3452 L 56.9655,-63.2455 L 56.9777,-63.2692
 L 57.4945,-64.0092 L 57.5142,-64.0303 L 58.2085,-64.5823 L 58.2331,-64.5966 L 59.0781,-64.9401 L 59.104,-64.9468
 L 60.073,-65.0613 L 60.0958,-65.0614 L 60.9105,-64.9706 L 60.9337,-64.9652 L 61.6819,-64.693 L 61.7033,-64.6822
 L 62.3598,-64.2437 L 62.378,-64.228 L 62.9175,-63.6385 L 62.9308,-63.6201 L 63.3348,-62.9034 L 63.3434,-62.8831
 L 63.5914,-62.0609 L 63.5957,-62.032 L 63.5823,-61.982 L 63.5457,-61.9454 L 63.4957,-61.932 L 61.9967,-61.932
 L 61.932,-61.9558 L 61.9026,-61.9983 L 61.7419,-62.4479 L 61.5044,-62.8198 L 61.2036,-63.1175 L 60.8543,-63.3342
 L 60.4755,-63.4671 L 60.0854,-63.5113 L 59.5387,-63.4416 L 59.0665,-63.2344 L 58.6803,-62.9037 L 58.3916,-62.4593
 L 58.211,-61.9138 L 58.1497,-61.2742 L 58.1497,-58.3754 L 58.2123,-57.7959 L 58.3966,-57.3029 L 58.6911,-56.901
 L 59.0861,-56.6001 L 59.5687,-56.4119 L 60.1255,-56.3487 L 60.673,-56.4142 L 61.1447,-56.6087 L 61.53,-56.9264
 L 61.8179,-57.3629 L 61.9985,-57.9108 L 62.0597,-58.5646 L 62.0597,-58.887 L 60.1587,-58.887 L 60.1087,-58.9004
 L 60.0721,-58.937 L 60.0587,-58.987 L 60.0587,-60.31 L 60.0721,-60.36 L 60.1087,-60.3966 L 60.1587,-60.41
 L 63.5767,-60.41 L 63.6267,-60.3966 L 63.6633,-60.36 L 63.6767,-60.31 L 63.6767,-58.587 L 63.6762,-58.5767
 L 63.5694,-57.5437 L 63.5642,-57.5206 L 63.244,-56.6176 L 63.2318,-56.5939 L 62.7156,-55.8516 L 62.6957,-55.8305
 L 62.001,-55.2777 L 61.9764,-55.2634 L 61.1316,-54.9199 L 61.1057,-54.9132 L 60.1375,-54.7987 L 60.1148,-54.7986
 z
M -33.5275,-54.907 L -33.5775,-54.9204 L -33.6141,-54.957 L -33.6275,-55.007 L -33.6275,-64.86 L -33.6141,-64.91
 L -33.5775,-64.9466 L -33.5275,-64.96 L -32.2735,-64.96 L -32.2271,-64.9485 L -32.189,-64.9135 L -27.7146,-57.8408
 L -27.7146,-64.86 L -27.7012,-64.91 L -27.6646,-64.9466 L -27.6145,-64.96 L -26.2445,-64.96 L -26.1945,-64.9466
 L -26.1579,-64.91 L -26.1445,-64.86 L -26.1445,-55.007 L -26.1579,-54.957 L -26.1945,-54.9204 L -26.2445,-54.907
 L -27.5125,-54.907 L -27.5585,-54.9182 L -27.5968,-54.953 L -32.0585,-61.9195 L -32.0585,-55.007 L -32.0719,-54.957
 L -32.1085,-54.9204 L -32.1585,-54.907 z
M -17.5705,-54.9 L -17.6205,-54.9134 L -17.6571,-54.95 L -17.6705,-55 L -17.6705,-64.86 L -17.6571,-64.91
 L -17.6205,-64.9466 L -17.5705,-64.96 L -11.3665,-64.96 L -11.3165,-64.9466 L -11.2799,-64.91 L -11.2665,-64.86
 L -11.2665,-63.544 L -11.2799,-63.494 L -11.3165,-63.4574 L -11.3665,-63.444 L -16.0875,-63.444 L -16.0875,-60.566
 L -12.1115,-60.566 L -12.0615,-60.5526 L -12.0249,-60.516 L -12.0115,-60.466 L -12.0115,-59.15 L -12.0249,-59.1
 L -12.0615,-59.0634 L -12.1115,-59.05 L -16.0875,-59.05 L -16.0875,-55 L -16.1009,-54.95 L -16.1375,-54.9134
 L -16.1875,-54.9 z
M -2.87495,-54.9 L -2.92496,-54.9134 L -2.96156,-54.95 L -2.97496,-55 L -2.97496,-56.194 L -2.96114,-56.2447
 L 1.27614,-63.444 L -2.75296,-63.444 L -2.80296,-63.4574 L -2.83957,-63.494 L -2.85297,-63.544 L -2.85297,-64.86
 L -2.83957,-64.91 L -2.80296,-64.9466 L -2.75296,-64.96 L 3.11903,-64.96 L 3.16904,-64.9466 L 3.20564,-64.91
 L 3.21904,-64.86 L 3.21904,-63.666 L 3.20538,-63.6156 L -0.998764,-56.416 L 3.25502,-56.416 L 3.30502,-56.4026
 L 3.34163,-56.366 L 3.35503,-56.316 L 3.35503,-55 L 3.34163,-54.95 L 3.30502,-54.9134 L 3.25502,-54.9
 z
M -62.5705,-54.9 L -62.6205,-54.9134 L -62.6571,-54.95 L -62.6705,-55 L -62.6705,-64.86 L -62.6571,-64.91
 L -62.6205,-64.9466 L -62.5705,-64.96 L -56.3665,-64.96 L -56.3165,-64.9466 L -56.2799,-64.91 L -56.2665,-64.86
 L -56.2665,-63.544 L -56.2799,-63.494 L -56.3165,-63.4574 L -56.3665,-63.444 L -61.0875,-63.444 L -61.0875,-60.566
 L -57.1115,-60.566 L -57.0615,-60.5526 L -57.0249,-60.516 L -57.0115,-60.466 L -57.0115,-59.15 L -57.0249,-59.1
 L -57.0615,-59.0634 L -57.1115,-59.05 L -61.0875,-59.05 L -61.0875,-55 L -61.1009,-54.95 L -61.1375,-54.9134
 L -61.1875,-54.9 z
M 26.618,-54.9 L 26.568,-54.9134 L 26.5314,-54.95 L 26.518,-55 L 26.518,-64.86 L 26.5314,-64.91
 L 26.568,-64.9466 L 26.618,-64.96 L 28.001,-64.96 L 28.051,-64.9466 L 28.0876,-64.91 L 28.101,-64.86
 L 28.101,-60.613 L 32.119,-60.613 L 32.119,-64.86 L 32.1324,-64.91 L 32.169,-64.9466 L 32.219,-64.96
 L 33.602,-64.96 L 33.652,-64.9466 L 33.6886,-64.91 L 33.702,-64.86 L 33.702,-55 L 33.6886,-54.95
 L 33.652,-54.9134 L 33.602,-54.9 L 32.219,-54.9 L 32.169,-54.9134 L 32.1324,-54.95 L 32.119,-55
 L 32.119,-59.098 L 28.101,-59.098 L 28.101,-55 L 28.0876,-54.95 L 28.051,-54.9134 L 28.001,-54.9
 z
M 41.4725,-54.907 L 41.4225,-54.9204 L 41.3859,-54.957 L 41.3725,-55.007 L 41.3725,-64.86 L 41.3859,-64.91
 L 41.4225,-64.9466 L 41.4725,-64.96 L 42.7265,-64.96 L 42.7729,-64.9485 L 42.811,-64.9135 L 47.2854,-57.8408
 L 47.2854,-64.86 L 47.2988,-64.91 L 47.3354,-64.9466 L 47.3855,-64.96 L 48.7555,-64.96 L 48.8055,-64.9466
 L 48.8421,-64.91 L 48.8555,-64.86 L 48.8555,-55.007 L 48.8421,-54.957 L 48.8055,-54.9204 L 48.7555,-54.907
 L 47.4875,-54.907 L 47.4415,-54.9182 L 47.4032,-54.953 L 42.9415,-61.9195 L 42.9415,-55.007 L 42.9281,-54.957
 L 42.8915,-54.9204 L 42.8415,-54.907 z
M 12.1678,-54.9 L 12.1178,-54.9134 L 12.0812,-54.95 L 12.0678,-55 L 12.0678,-64.86 L 12.0812,-64.91
 L 12.1178,-64.9466 L 12.1678,-64.96 L 18.5008,-64.96 L 18.5508,-64.9466 L 18.5874,-64.91 L 18.6008,-64.86
 L 18.6008,-63.544 L 18.5874,-63.494 L 18.5508,-63.4574 L 18.5008,-63.444 L 13.6508,-63.444 L 13.6508,-60.654
 L 17.7548,-60.654 L 17.8048,-60.6406 L 17.8414,-60.604 L 17.8548,-60.554 L 17.8548,-59.238 L 17.8414,-59.188
 L 17.8048,-59.1514 L 17.7548,-59.138 L 13.6508,-59.138 L 13.6508,-56.416 L 18.5008,-56.416 L 18.5508,-56.4026
 L 18.5874,-56.366 L 18.6008,-56.316 L 18.6008,-55 L 18.5874,-54.95 L 18.5508,-54.9134 L 18.5008,-54.9
 z
M -44.1949,-63.5936 L -44.2449,-63.607 L -44.2815,-63.6436 L -44.2949,-63.6936 L -44.2949,-64.8207 L -44.2815,-64.8707
 L -44.2449,-64.9073 L -44.1949,-64.9207 L -42.8119,-64.9207 L -42.7619,-64.9073 L -42.7253,-64.8707 L -42.7119,-64.8207
 L -42.7119,-63.6936 L -42.7253,-63.6436 L -42.7619,-63.607 L -42.8119,-63.5936 z
M -46.9758,-63.5936 L -47.0258,-63.607 L -47.0625,-63.6436 L -47.0759,-63.6936 L -47.0759,-64.8207 L -47.0625,-64.8707
 L -47.0258,-64.9073 L -46.9758,-64.9207 L -45.5918,-64.9207 L -45.5418,-64.9073 L -45.5052,-64.8707 L -45.4918,-64.8207
 L -45.4918,-63.6936 L -45.5052,-63.6436 L -45.5418,-63.607 L -45.5918,-63.5936 z
M -44.9095,-54.8173 L -45.922,-54.905 L -45.9428,-54.9091 L -46.7983,-55.1726 L -46.8222,-55.1835 L -47.5059,-55.6147
 L -47.529,-55.6347 L -48.0282,-56.2256 L -48.0443,-56.252 L -48.3495,-56.992 L -48.3564,-57.0186 L -48.4582,-57.8956
 L -48.4588,-57.9071 L -48.4588,-63.0359 L -48.4454,-63.0859 L -48.4088,-63.1225 L -48.3588,-63.1359 L -46.9758,-63.1359
 L -46.9258,-63.1225 L -46.8892,-63.0859 L -46.8758,-63.0359 L -46.8758,-57.8766 L -46.7456,-57.1279 L -46.3653,-56.5849
 L -45.7471,-56.2445 L -44.9008,-56.1286 L -44.0484,-56.2445 L -43.4262,-56.5852 L -43.043,-57.1282 L -42.9119,-57.8766
 L -42.9119,-63.0359 L -42.8985,-63.0859 L -42.8619,-63.1225 L -42.8119,-63.1359 L -41.4288,-63.1359 L -41.3788,-63.1225
 L -41.3422,-63.0859 L -41.3288,-63.0359 L -41.3288,-57.9071 L -41.3295,-57.8956 L -41.4313,-57.0186 L -41.4382,-56.992
 L -41.7434,-56.252 L -41.7595,-56.2256 L -42.259,-55.6347 L -42.2822,-55.6146 L -42.9687,-55.1834 L -42.9926,-55.1725
 L -43.8523,-54.9091 L -43.873,-54.905 L -44.8923,-54.8173 z
M -29.758,-39.7987 L -30.7203,-39.9122 L -30.7462,-39.9188 L -31.5849,-40.2593 L -31.6097,-40.2738 L -32.2987,-40.8236
 L -32.3183,-40.8446 L -32.8334,-41.5838 L -32.8455,-41.6075 L -33.1658,-42.5077 L -33.171,-42.531 L -33.2778,-43.5637
 L -33.2783,-43.574 L -33.2783,-46.279 L -33.2778,-46.2893 L -33.171,-47.322 L -33.1658,-47.3452 L -32.8455,-48.2455
 L -32.8334,-48.2691 L -32.3184,-49.0091 L -32.2988,-49.03 L -31.6098,-49.582 L -31.5852,-49.5965 L -30.7465,-49.94
 L -30.7204,-49.9468 L -29.7581,-50.0613 L -29.7352,-50.0614 L -28.922,-49.9706 L -28.8988,-49.9652 L -28.153,-49.6929
 L -28.1316,-49.682 L -27.4781,-49.2435 L -27.4599,-49.2278 L -26.9234,-48.6383 L -26.91,-48.6198 L -26.509,-47.9031
 L -26.5005,-47.883 L -26.2535,-47.0608 L -26.2493,-47.032 L -26.2627,-46.982 L -26.2993,-46.9454 L -26.3493,-46.932
 L -27.7663,-46.932 L -27.8285,-46.9537 L -27.8593,-46.9953 L -28.0277,-47.4219 L -28.2747,-47.7918 L -28.5878,-48.0982
 L -28.9501,-48.3244 L -29.3423,-48.4647 L -29.7456,-48.5113 L -30.2858,-48.4417 L -30.751,-48.2347 L -31.1323,-47.904
 L -31.4194,-47.4595 L -31.6001,-46.9138 L -31.6613,-46.2742 L -31.6613,-43.5787 L -31.6001,-42.9435 L -31.4193,-42.3964
 L -31.1323,-41.9505 L -30.7513,-41.6215 L -30.2861,-41.4174 L -29.7453,-41.3487 L -29.3369,-41.392 L -28.9453,-41.5224
 L -28.586,-41.7379 L -28.2747,-42.0373 L -28.0283,-42.4123 L -27.86,-42.863 L -27.8163,-42.9146 L -27.7663,-42.928
 L -26.3493,-42.928 L -26.3204,-42.9237 L -26.2764,-42.8965 L -26.252,-42.8509 L -26.2536,-42.7991 L -26.5016,-41.9766
 L -26.5102,-41.9564 L -26.9142,-41.2389 L -26.9276,-41.2205 L -27.4663,-40.6317 L -27.4844,-40.6162 L -28.1387,-40.1779
 L -28.16,-40.1671 L -28.904,-39.8948 L -28.9272,-39.8894 L -29.7352,-39.7986 z
M 30.093,-39.7987 L 29.1238,-39.9114 L 29.0983,-39.9179 L 28.2505,-40.2561 L 28.2261,-40.2701 L 27.5281,-40.8144
 L 27.5081,-40.8353 L 26.9881,-41.566 L 26.9756,-41.5899 L 26.6531,-42.4792 L 26.6476,-42.5028 L 26.5401,-43.5225
 L 26.5396,-43.533 L 26.5396,-46.327 L 26.5401,-46.3375 L 26.6476,-47.3572 L 26.6531,-47.3808 L 26.9756,-48.2701
 L 26.9881,-48.294 L 27.5081,-49.0247 L 27.5281,-49.0456 L 28.2261,-49.5898 L 28.2505,-49.6039 L 29.0983,-49.9421
 L 29.1238,-49.9486 L 30.093,-50.0613 L 30.1161,-50.0613 L 31.0858,-49.9486 L 31.1114,-49.9421 L 31.9586,-49.6039
 L 31.983,-49.5898 L 32.681,-49.0456 L 32.701,-49.0247 L 33.221,-48.294 L 33.2335,-48.2702 L 33.5568,-47.3809
 L 33.5622,-47.3573 L 33.67,-46.3375 L 33.6706,-46.327 L 33.6706,-43.533 L 33.67,-43.5225 L 33.5622,-42.5027
 L 33.5568,-42.4791 L 33.2335,-41.5898 L 33.221,-41.566 L 32.701,-40.8353 L 32.681,-40.8144 L 31.983,-40.2701
 L 31.9586,-40.2561 L 31.1114,-39.9179 L 31.0858,-39.9114 L 30.1161,-39.7987 z
M 30.6533,-41.4274 L 31.1281,-41.623 L 31.5176,-41.9371 L 31.8085,-42.3615 L 31.9908,-42.8829 L 32.0526,-43.491
 L 32.0526,-46.369 L 31.9908,-46.9771 L 31.8085,-47.4984 L 31.5176,-47.9229 L 31.1281,-48.237 L 30.6533,-48.4326
 L 30.1046,-48.4983 L 29.5563,-48.4326 L 29.0811,-48.237 L 28.692,-47.9229 L 28.4006,-47.4984 L 28.2184,-46.9771
 L 28.1566,-46.369 L 28.1566,-43.491 L 28.2184,-42.8829 L 28.4006,-42.3616 L 28.692,-41.9371 L 29.0811,-41.623
 L 29.5563,-41.4274 L 30.1046,-41.3617 z
M 41.8001,-39.9 L 41.7501,-39.9134 L 41.7135,-39.95 L 41.7001,-40 L 41.7001,-49.867 L 41.7135,-49.917
 L 41.7501,-49.9536 L 41.8001,-49.967 L 45.7121,-49.967 L 45.723,-49.9664 L 46.526,-49.8781 L 46.5505,-49.8723
 L 47.2495,-49.6075 L 47.2737,-49.5943 L 47.8487,-49.1676 L 47.8692,-49.1471 L 48.2982,-48.5728 L 48.3115,-48.5488
 L 48.5785,-47.8518 L 48.5845,-47.8271 L 48.6735,-47.0301 L 48.6735,-47.0078 L 48.5835,-46.2098 L 48.5774,-46.1849
 L 48.3074,-45.4869 L 48.294,-45.4629 L 47.8628,-44.8894 L 47.8424,-44.8691 L 47.2666,-44.4426 L 47.2426,-44.4295
 L 46.8463,-44.279 L 49.0766,-40.0466 L 49.0881,-40 L 49.0747,-39.95 L 49.0381,-39.9134 L 48.9881,-39.9
 L 47.3471,-39.9 L 47.2923,-39.9164 L 47.2578,-39.955 L 45.1819,-44.07 L 43.2831,-44.07 L 43.2831,-40
 L 43.2697,-39.95 L 43.2331,-39.9134 L 43.1831,-39.9 z
M 46.1113,-45.6309 L 46.4116,-45.7618 L 46.6594,-45.9725 L 46.8453,-46.2587 L 46.9629,-46.6114 L 47.0026,-47.019
 L 46.9629,-47.4259 L 46.8453,-47.7783 L 46.66,-48.0648 L 46.4143,-48.2754 L 46.1155,-48.4061 L 45.7608,-48.451
 L 43.2831,-48.451 L 43.2831,-45.586 L 45.7607,-45.586 z
M -0.71875,-39.7986 L -1.47275,-39.8783 L -1.495,-39.8833 L -2.185,-40.1225 L -2.20625,-40.1328 L -2.80325,-40.5161
 L -2.82253,-40.5322 L -3.29753,-41.044 L -3.32375,-41.1021 L -3.31538,-41.1532 L -3.28259,-41.1932 L -2.14958,-42.0072
 L -2.10551,-42.025 L -2.05411,-42.0188 L -2.01266,-41.9879 L -1.78961,-41.7045 L -1.49611,-41.4997 L -1.13165,-41.371
 L -0.711838,-41.3279 L -0.031311,-41.4471 L 0.466339,-41.7975 L 0.779984,-42.3649 L 0.887741,-43.1468 L 0.887741,-49.86
 L 0.901138,-49.91 L 0.937744,-49.9466 L 0.987747,-49.96 L 2.37074,-49.96 L 2.42075,-49.9466 L 2.45735,-49.91
 L 2.47075,-49.86 L 2.47075,-43.133 L 2.47029,-43.1236 L 2.38029,-42.1741 L 2.3755,-42.1515 L 2.1055,-41.351
 L 2.09296,-41.3261 L 1.65071,-40.6873 L 1.6293,-40.6649 L 1.02055,-40.1986 L 0.994751,-40.1843 L 0.232254,-39.8993
 L 0.207687,-39.8936 L -0.6978,-39.7986 z
M -49.1201,-39.9 L -49.1547,-39.9062 L -49.197,-39.936 L -49.2187,-39.983 L -49.2139,-40.0346 L -45.5789,-49.8946
 L -45.5351,-49.9466 L -45.4851,-49.96 L -44.3051,-49.96 L -44.2411,-49.9369 L -44.2113,-49.8946 L -40.5763,-40.0346
 L -40.5701,-40 L -40.5835,-39.95 L -40.6201,-39.9134 L -40.6701,-39.9 L -42.1621,-39.9 L -42.2278,-39.9246
 L -42.2567,-39.9675 L -42.9767,-42.063 L -46.8135,-42.063 L -47.5335,-39.9675 L -47.5781,-39.9134 L -47.6281,-39.9
 z
M -44.8951,-47.6463 L -46.2926,-43.579 L -43.4976,-43.579 z
M 56.8699,-39.9 L 56.8199,-39.9134 L 56.7833,-39.95 L 56.7699,-40 L 56.7699,-49.86 L 56.7833,-49.91
 L 56.8199,-49.9466 L 56.8699,-49.96 L 58.2529,-49.96 L 58.3029,-49.9466 L 58.3395,-49.91 L 58.3529,-49.86
 L 58.3529,-44.9937 L 62.2293,-49.9218 L 62.2579,-49.9466 L 62.3079,-49.96 L 64.0099,-49.96 L 64.0734,-49.9372
 L 64.1035,-49.8951 L 64.1086,-49.8436 L 64.0871,-49.7965 L 60.9652,-46.0012 L 64.5098,-40.0512 L 64.5239,-40
 L 64.5105,-39.95 L 64.4739,-39.9134 L 64.4239,-39.9 L 62.7289,-39.9 L 62.6801,-39.9127 L 62.643,-39.9488
 L 59.8481,-44.6431 L 58.3529,-42.8254 L 58.3529,-40 L 58.3395,-39.95 L 58.3029,-39.9134 L 58.2529,-39.9
 z
M -18.382,-39.9 L -18.432,-39.9134 L -18.4686,-39.95 L -18.482,-40 L -18.482,-49.86 L -18.4686,-49.91
 L -18.432,-49.9466 L -18.382,-49.96 L -16.999,-49.96 L -16.949,-49.9466 L -16.9124,-49.91 L -16.899,-49.86
 L -16.899,-45.613 L -12.881,-45.613 L -12.881,-49.86 L -12.8676,-49.91 L -12.831,-49.9466 L -12.781,-49.96
 L -11.398,-49.96 L -11.348,-49.9466 L -11.3114,-49.91 L -11.298,-49.86 L -11.298,-40 L -11.3114,-39.95
 L -11.348,-39.9134 L -11.398,-39.9 L -12.781,-39.9 L -12.831,-39.9134 L -12.8676,-39.95 L -12.881,-40
 L -12.881,-44.098 L -16.899,-44.098 L -16.899,-40 L -16.9124,-39.95 L -16.949,-39.9134 L -16.999,-39.9
 z
M 14.4375,-39.9 L 14.3707,-39.9256 L 14.3425,-39.969 L 11.1275,-49.829 L 11.1225,-49.86 L 11.1359,-49.91
 L 11.1725,-49.9466 L 11.2225,-49.96 L 12.7285,-49.96 L 12.7967,-49.9332 L 12.8242,-49.8893 L 15.0955,-42.4706
 L 17.3659,-49.8893 L 17.4115,-49.9466 L 17.4615,-49.96 L 18.9675,-49.96 L 18.9985,-49.9551 L 19.0419,-49.9268
 L 19.0654,-49.8807 L 19.0626,-49.829 L 15.8476,-39.969 L 15.8025,-39.9134 L 15.7525,-39.9 z
M -63.5275,-39.907 L -63.5775,-39.9204 L -63.6141,-39.957 L -63.6275,-40.007 L -63.6275,-49.86 L -63.6141,-49.91
 L -63.5775,-49.9466 L -63.5275,-49.96 L -62.2735,-49.96 L -62.2271,-49.9485 L -62.189,-49.9135 L -57.7146,-42.8408
 L -57.7146,-49.86 L -57.7012,-49.91 L -57.6646,-49.9466 L -57.6145,-49.96 L -56.2445,-49.96 L -56.1945,-49.9466
 L -56.1579,-49.91 L -56.1445,-49.86 L -56.1445,-40.007 L -56.1579,-39.957 L -56.1945,-39.9204 L -56.2445,-39.907
 L -57.5125,-39.907 L -57.5585,-39.9182 L -57.5968,-39.953 L -62.0585,-46.9195 L -62.0585,-40.007 L -62.0719,-39.957
 L -62.1085,-39.9204 L -62.1585,-39.907 z
M 59.3098,-24.8321 L 59.2994,-24.8332 L 58.6429,-24.9352 L 58.6317,-24.9376 L 58.0157,-25.1073 L 58.004,-25.1113
 L 57.43,-25.3486 L 57.4187,-25.3541 L 56.8842,-25.6591 L 56.8739,-25.6659 L 56.3744,-26.0389 L 56.3408,-26.0834
 L 56.3355,-26.1349 L 56.3567,-26.1822 L 57.2187,-27.2402 L 57.2553,-27.2682 L 57.3064,-27.2765 L 57.3548,-27.258
 L 57.9382,-26.8363 L 58.5704,-26.5385 L 59.2604,-26.36 L 60.007,-26.3004 L 60.9339,-26.3972 L 61.6105,-26.6808
 L 62.0202,-27.1243 L 62.1582,-27.7258 L 62.0959,-28.1548 L 61.9128,-28.4785 L 61.6298,-28.7216 L 61.2645,-28.8972
 L 60.7904,-29.0339 L 60.185,-29.1611 L 60.17,-29.1642 L 60.1537,-29.1652 L 60.1302,-29.167 L 60.1134,-29.1698
 L 60.095,-29.1745 L 59.9956,-29.1949 L 59.0978,-29.3749 L 59.0902,-29.3768 L 58.377,-29.5788 L 58.3577,-29.5864
 L 57.7825,-29.8884 L 57.7588,-29.9057 L 57.2731,-30.3837 L 57.2531,-30.4116 L 56.9224,-31.0978 L 56.9132,-31.1294
 L 56.8029,-32.0542 L 56.8022,-32.066 L 56.8022,-32.073 L 56.8029,-32.085 L 56.9055,-32.9332 L 56.9129,-32.9608
 L 57.2204,-33.6755 L 57.2373,-33.7022 L 57.7421,-34.273 L 57.7654,-34.2924 L 58.4577,-34.7087 L 58.4811,-34.7189
 L 59.3476,-34.9732 L 59.3675,-34.9769 L 60.393,-35.0616 L 60.4067,-35.0618 L 60.9315,-35.0329 L 60.9426,-35.0316
 L 61.4588,-34.9446 L 61.4693,-34.9423 L 61.9778,-34.7993 L 61.9876,-34.7959 L 62.4891,-34.597 L 62.4983,-34.5928
 L 62.993,-34.336 L 63.0015,-34.3311 L 63.4877,-34.0148 L 63.5243,-33.9723 L 63.5327,-33.9212 L 63.5145,-33.8728
 L 62.7275,-32.7738 L 62.6919,-32.743 L 62.6413,-32.7321 L 62.592,-32.7479 L 62.0357,-33.1064 L 61.4886,-33.3588
 L 60.9452,-33.5095 L 60.4022,-33.5595 L 59.5305,-33.4614 L 58.8925,-33.174 L 58.5044,-32.7231 L 58.3733,-32.1083
 L 58.4398,-31.6879 L 58.6357,-31.3739 L 58.9359,-31.1393 L 59.3131,-30.9704 L 59.8176,-30.8317 L 60.4972,-30.6858
 L 60.5236,-30.6795 L 60.5443,-30.6755 L 60.5679,-30.6717 L 60.5743,-30.6705 L 60.5979,-30.6651 L 60.6695,-30.6525
 L 60.709,-30.6454 L 60.7464,-30.6381 L 60.7509,-30.6372 L 61.5721,-30.4372 L 61.5813,-30.4345 L 62.255,-30.2005
 L 62.2734,-30.1919 L 62.8242,-29.8636 L 62.8459,-29.8461 L 63.2982,-29.3634 L 63.3161,-29.3366 L 63.6191,-28.6751
 L 63.6275,-28.6451 L 63.7285,-27.7786 L 63.7292,-27.767 L 63.7292,-27.753 L 63.7284,-27.7403 L 63.6217,-26.9036
 L 63.6135,-26.875 L 63.2933,-26.1687 L 63.2755,-26.142 L 62.7525,-25.578 L 62.7291,-25.5594 L 62.0141,-25.1474
 L 61.9913,-25.1377 L 61.0973,-24.8858 L 61.0781,-24.8823 L 60.0161,-24.7983 L 60.0033,-24.7981 z
M -18.1564,-24.9 L -18.2064,-24.9134 L -18.243,-24.95 L -18.2564,-25 L -18.2564,-34.86 L -18.243,-34.91
 L -18.2064,-34.9466 L -18.1564,-34.96 L -14.2715,-34.96 L -14.2622,-34.9596 L -13.3842,-34.8781 L -13.3614,-34.8732
 L -12.6394,-34.6287 L -12.6142,-34.616 L -12.051,-34.223 L -12.0284,-34.2013 L -11.6287,-33.6723 L -11.6145,-33.6463
 L -11.3753,-32.9918 L -11.3697,-32.9678 L -11.29,-32.1983 L -11.2899,-32.178 L -11.3392,-31.6858 L -11.3435,-31.6652
 L -11.4912,-31.2045 L -11.5008,-31.1834 L -11.7488,-30.7717 L -11.7642,-30.752 L -12.1162,-30.4048 L -12.136,-30.3896
 L -12.5876,-30.1261 L -12.6099,-30.1165 L -12.8169,-30.0559 L -12.6042,-29.9986 L -12.5802,-29.9886 L -12.1055,-29.7146
 L -12.0853,-29.6993 L -11.7023,-29.3225 L -11.6871,-29.3033 L -11.4061,-28.8431 L -11.3965,-28.8225 L -11.2233,-28.3002
 L -11.2187,-28.2789 L -11.161,-27.7162 L -11.1604,-27.706 L -11.1604,-27.685 L -11.1611,-27.6734 L -11.2494,-26.9209
 L -11.2559,-26.8951 L -11.5207,-26.2376 L -11.5351,-26.2129 L -11.9636,-25.6721 L -11.9851,-25.652 L -12.5666,-25.2497
 L -12.5904,-25.2376 L -13.3024,-24.9886 L -13.3254,-24.9835 L -14.1454,-24.9005 L -14.1555,-24.9 z
M -13.692,-30.8693 L -13.2466,-31.1174 L -12.9794,-31.5251 L -12.8878,-32.1065 L -12.9898,-32.7136 L -13.2877,-33.1339
 L -13.7924,-33.3893 L -14.5285,-33.478 L -16.6804,-33.478 L -16.6804,-30.783 L -14.339,-30.783 z
M -13.7909,-26.4795 L -13.2048,-26.7615 L -12.8719,-27.2046 L -12.7575,-27.8163 L -12.7575,-27.8234 L -12.7992,-28.2738
 L -12.9208,-28.6437 L -13.1257,-28.9354 L -13.423,-29.1512 L -13.823,-29.288 L -14.3369,-29.335 L -16.6804,-29.335
 L -16.6804,-26.382 L -14.6768,-26.382 z
M -63.382,-24.9 L -63.432,-24.9134 L -63.4686,-24.95 L -63.482,-25 L -63.482,-34.86 L -63.4686,-34.91
 L -63.432,-34.9466 L -63.382,-34.96 L -61.999,-34.96 L -61.949,-34.9466 L -61.9124,-34.91 L -61.899,-34.86
 L -61.899,-30.613 L -57.881,-30.613 L -57.881,-34.86 L -57.8676,-34.91 L -57.831,-34.9466 L -57.781,-34.96
 L -56.398,-34.96 L -56.348,-34.9466 L -56.3114,-34.91 L -56.298,-34.86 L -56.298,-25 L -56.3114,-24.95
 L -56.348,-24.9134 L -56.398,-24.9 L -57.781,-24.9 L -57.831,-24.9134 L -57.8676,-24.95 L -57.881,-25
 L -57.881,-29.098 L -61.899,-29.098 L -61.899,-25 L -61.9124,-24.95 L -61.949,-24.9134 L -61.999,-24.9
 z
M -49.1201,-24.9 L -49.1547,-24.9062 L -49.197,-24.936 L -49.2187,-24.983 L -49.2139,-25.0346 L -45.5789,-34.8946
 L -45.5351,-34.9466 L -45.4851,-34.96 L -44.3051,-34.96 L -44.2411,-34.9369 L -44.2113,-34.8946 L -40.5763,-25.0346
 L -40.5701,-25 L -40.5835,-24.95 L -40.6201,-24.9134 L -40.6701,-24.9 L -42.1621,-24.9 L -42.2278,-24.9246
 L -42.2567,-24.9675 L -42.9767,-27.063 L -46.8135,-27.063 L -47.5335,-24.9675 L -47.5781,-24.9134 L -47.6281,-24.9
 z
M -44.8951,-32.6463 L -46.2926,-28.579 L -43.4976,-28.579 z
M 29.3533,-24.9 L 29.3033,-24.9134 L 29.2667,-24.95 L 29.2533,-25 L 29.2533,-34.86 L 29.2667,-34.91
 L 29.3033,-34.9466 L 29.3533,-34.96 L 30.7363,-34.96 L 30.7863,-34.9466 L 30.8229,-34.91 L 30.8363,-34.86
 L 30.8363,-25 L 30.8229,-24.95 L 30.7863,-24.9134 L 30.7363,-24.9 z
M -32.6667,-24.9 L -32.7167,-24.9134 L -32.7533,-24.95 L -32.7667,-25 L -32.7667,-34.86 L -32.7533,-34.91
 L -32.7167,-34.9466 L -32.6667,-34.96 L -31.2837,-34.96 L -31.2337,-34.9466 L -31.1971,-34.91 L -31.1837,-34.86
 L -31.1837,-26.416 L -26.3337,-26.416 L -26.2837,-26.4026 L -26.2471,-26.366 L -26.2337,-26.316 L -26.2337,-25
 L -26.2471,-24.95 L -26.2837,-24.9134 L -26.3337,-24.9 z
M 12.1678,-24.9 L 12.1178,-24.9134 L 12.0812,-24.95 L 12.0678,-25 L 12.0678,-34.86 L 12.0812,-34.91
 L 12.1178,-34.9466 L 12.1678,-34.96 L 18.5008,-34.96 L 18.5508,-34.9466 L 18.5874,-34.91 L 18.6008,-34.86
 L 18.6008,-33.544 L 18.5874,-33.494 L 18.5508,-33.4574 L 18.5008,-33.444 L 13.6508,-33.444 L 13.6508,-30.654
 L 17.7548,-30.654 L 17.8048,-30.6406 L 17.8414,-30.604 L 17.8548,-30.554 L 17.8548,-29.238 L 17.8414,-29.188
 L 17.8048,-29.1514 L 17.7548,-29.138 L 13.6508,-29.138 L 13.6508,-26.416 L 18.5008,-26.416 L 18.5508,-26.4026
 L 18.5874,-26.366 L 18.6008,-26.316 L 18.6008,-25 L 18.5874,-24.95 L 18.5508,-24.9134 L 18.5008,-24.9
 z
M 41.4725,-24.907 L 41.4225,-24.9204 L 41.3859,-24.957 L 41.3725,-25.007 L 41.3725,-34.86 L 41.3859,-34.91
 L 41.4225,-34.9466 L 41.4725,-34.96 L 42.7265,-34.96 L 42.7729,-34.9485 L 42.811,-34.9135 L 47.2854,-27.8408
 L 47.2854,-34.86 L 47.2988,-34.91 L 47.3354,-34.9466 L 47.3855,-34.96 L 48.7555,-34.96 L 48.8055,-34.9466
 L 48.8421,-34.91 L 48.8555,-34.86 L 48.8555,-25.007 L 48.8421,-24.957 L 48.8055,-24.9204 L 48.7555,-24.907
 L 47.4875,-24.907 L 47.4415,-24.9182 L 47.4032,-24.953 L 42.9415,-31.9195 L 42.9415,-25.007 L 42.9281,-24.957
 L 42.8915,-24.9204 L 42.8415,-24.907 z
M -4.06415,-24.9 L -4.11415,-24.9134 L -4.15076,-24.95 L -4.16415,-25 L -4.16415,-34.86 L -4.15076,-34.91
 L -4.11415,-34.9466 L -4.06415,-34.96 L -2.76915,-34.96 L -2.71034,-34.9409 L -2.67778,-34.9006 L 0.125854,-28.5961
 L 2.93047,-34.9006 L 2.97183,-34.9466 L 3.02184,-34.96 L 4.31683,-34.96 L 4.36684,-34.9466 L 4.40344,-34.91
 L 4.41684,-34.86 L 4.41684,-25 L 4.40344,-24.95 L 4.36684,-24.9134 L 4.31683,-24.9 L 2.96783,-24.9
 L 2.91783,-24.9134 L 2.88123,-24.95 L 2.86783,-25 L 2.86783,-31.3141 L 0.699539,-26.3301 L 0.657837,-26.2834
 L 0.607834,-26.27 L -0.355148,-26.27 L -0.413879,-26.2891 L -0.446472,-26.3293 L -2.61514,-31.1927 L -2.61514,-25
 L -2.62854,-24.95 L -2.66515,-24.9134 L -2.71515,-24.9 z
M 26.8001,-9.89999 L 26.7501,-9.91339 L 26.7135,-9.95 L 26.7001,-10 L 26.7001,-19.867 L 26.7135,-19.917
 L 26.7501,-19.9536 L 26.8001,-19.967 L 30.7121,-19.967 L 30.723,-19.9664 L 31.526,-19.8781 L 31.5505,-19.8723
 L 32.2495,-19.6075 L 32.2737,-19.5943 L 32.8487,-19.1676 L 32.8692,-19.1471 L 33.2982,-18.5728 L 33.3115,-18.5488
 L 33.5785,-17.8518 L 33.5845,-17.8271 L 33.6735,-17.0301 L 33.6735,-17.0078 L 33.5835,-16.2098 L 33.5774,-16.1849
 L 33.3074,-15.4869 L 33.294,-15.4629 L 32.8628,-14.8894 L 32.8424,-14.8691 L 32.2666,-14.4426 L 32.2426,-14.4295
 L 31.8463,-14.279 L 34.0766,-10.0466 L 34.0881,-10 L 34.0747,-9.95 L 34.0381,-9.91339 L 33.9881,-9.89999
 L 32.3471,-9.89999 L 32.2923,-9.91635 L 32.2578,-9.95496 L 30.1819,-14.07 L 28.2831,-14.07 L 28.2831,-10
 L 28.2697,-9.95 L 28.2331,-9.91339 L 28.1831,-9.89999 z
M 31.1113,-15.6309 L 31.4116,-15.7618 L 31.6594,-15.9725 L 31.8453,-16.2587 L 31.9629,-16.6114 L 32.0026,-17.019
 L 31.9629,-17.4259 L 31.8453,-17.7783 L 31.66,-18.0648 L 31.4143,-18.2754 L 31.1155,-18.4061 L 30.7608,-18.451
 L 28.2831,-18.451 L 28.2831,-15.586 L 30.7607,-15.586 z
M -48.1312,-9.89999 L -48.1592,-9.90401 L -48.2034,-9.93088 L -48.2283,-9.97627 L -50.6363,-19.8363 L -50.6258,-19.91
 L -50.5892,-19.9466 L -50.5392,-19.96 L -49.1012,-19.96 L -49.0715,-19.9555 L -49.0277,-19.9278 L -49.0036,-19.882
 L -47.351,-12.5518 L -45.4339,-19.8853 L -45.4238,-19.91 L -45.3872,-19.9466 L -45.3372,-19.96 L -44.3882,-19.96
 L -44.3617,-19.9564 L -44.3171,-19.9303 L -44.2914,-19.8853 L -42.3744,-12.5518 L -40.7217,-19.882 L -40.7108,-19.91
 L -40.6742,-19.9466 L -40.6242,-19.96 L -39.1872,-19.96 L -39.1181,-19.9323 L -39.0912,-19.888 L -39.09,-19.8363
 L -41.497,-9.97629 L -41.5076,-9.95 L -41.5442,-9.91339 L -41.5942,-9.89999 L -43.0052,-9.89999 L -43.0314,-9.9035
 L -43.0762,-9.92957 L -43.1019,-9.9745 L -44.8243,-16.5059 L -46.6248,-9.97343 L -46.6712,-9.91339 L -46.7212,-9.89999
 z
M 11.7703,-9.89999 L 11.7203,-9.91339 L 11.6837,-9.95 L 11.6703,-10 L 11.6703,-19.86 L 11.6837,-19.91
 L 11.7203,-19.9466 L 11.7703,-19.96 L 14.8963,-19.96 L 14.9057,-19.9595 L 16.0059,-19.856 L 16.0283,-19.8513
 L 16.9551,-19.5408 L 16.9799,-19.5285 L 17.7209,-19.0202 L 17.7434,-18.999 L 18.2844,-18.3002 L 18.2988,-18.2744
 L 18.6296,-17.3999 L 18.6355,-17.375 L 18.7457,-16.3376 L 18.7463,-16.327 L 18.7463,-13.533 L 18.7457,-13.5224
 L 18.6355,-12.4847 L 18.6296,-12.4599 L 18.2988,-11.5846 L 18.2843,-11.5587 L 17.7426,-10.8604 L 17.72,-10.8392
 L 16.9768,-10.3305 L 16.9519,-10.3181 L 16.0222,-10.0084 L 15.9999,-10.0037 L 14.8987,-9.90044 L 14.8893,-9.89999
 z
M 15.8716,-11.5536 L 16.5576,-11.9565 L 16.9838,-12.6015 L 17.1293,-13.4871 L 17.1293,-16.3729 L 16.9838,-17.2584
 L 16.5576,-17.9035 L 15.8716,-18.3064 L 14.9291,-18.444 L 13.2533,-18.444 L 13.2533,-11.416 L 14.9291,-11.416
 z
M -3.00116,-9.89999 L -3.05116,-9.91339 L -3.08777,-9.95 L -3.10117,-10 L -3.10117,-19.86 L -3.08777,-19.91
 L -3.05116,-19.9466 L -3.00116,-19.96 L 0.815826,-19.96 L 0.827118,-19.9594 L 1.65637,-19.8651 L 1.68147,-19.8589
 L 2.40521,-19.5761 L 2.42934,-19.5626 L 3.02559,-19.1093 L 3.04578,-19.0888 L 3.49052,-18.481 L 3.50343,-18.4572
 L 3.78093,-17.7182 L 3.78673,-17.6939 L 3.87924,-16.8469 L 3.87924,-16.8251 L 3.78673,-15.9781 L 3.7809,-15.9538
 L 3.5034,-15.2168 L 3.49034,-15.1927 L 3.04559,-14.5887 L 3.02531,-14.5682 L 2.42906,-14.1182 L 2.40488,-14.1047
 L 1.68114,-13.825 L 1.65625,-13.8189 L 0.826996,-13.7256 L 0.815826,-13.725 L -1.51816,-13.725 L -1.51816,-10
 L -1.53156,-9.95 L -1.56816,-9.91339 L -1.61816,-9.89999 z
M 1.25813,-15.29 L 1.59755,-15.4359 L 1.87587,-15.6717 L 2.08516,-15.9911 L 2.21767,-16.3839 L 2.26234,-16.8361
 L 2.21767,-17.2924 L 2.08513,-17.686 L 1.87569,-18.0068 L 1.59715,-18.2443 L 1.25766,-18.3931 L 0.857574,-18.444
 L -1.51816,-18.444 L -1.51816,-15.24 L 0.857697,-15.24 z
M -15.6467,-9.89999 L -15.6967,-9.91339 L -15.7333,-9.95 L -15.7467,-10 L -15.7467,-19.86 L -15.7333,-19.91
 L -15.6967,-19.9466 L -15.6467,-19.96 L -14.2637,-19.96 L -14.2137,-19.9466 L -14.1771,-19.91 L -14.1637,-19.86
 L -14.1637,-10 L -14.1771,-9.95 L -14.2137,-9.91339 L -14.2637,-9.89999 z
M -32.8322,-9.89999 L -32.8822,-9.91339 L -32.9188,-9.95 L -32.9322,-10 L -32.9322,-19.86 L -32.9188,-19.91
 L -32.8822,-19.9466 L -32.8322,-19.96 L -26.4992,-19.96 L -26.4492,-19.9466 L -26.4126,-19.91 L -26.3992,-19.86
 L -26.3992,-18.544 L -26.4126,-18.494 L -26.4492,-18.4574 L -26.4992,-18.444 L -31.3492,-18.444 L -31.3492,-15.654
 L -27.2452,-15.654 L -27.1952,-15.6406 L -27.1586,-15.604 L -27.1452,-15.554 L -27.1452,-14.238 L -27.1586,-14.188
 L -27.1952,-14.1514 L -27.2452,-14.138 L -31.3492,-14.138 L -31.3492,-11.416 L -26.4992,-11.416 L -26.4492,-11.4026
 L -26.4126,-11.366 L -26.3992,-11.316 L -26.3992,-10 L -26.4126,-9.95 L -26.4492,-9.91339 L -26.4992,-9.89999
 z
M 42.1678,-9.89999 L 42.1178,-9.91339 L 42.0812,-9.95 L 42.0678,-10 L 42.0678,-19.86 L 42.0812,-19.91
 L 42.1178,-19.9466 L 42.1678,-19.96 L 48.5008,-19.96 L 48.5508,-19.9466 L 48.5874,-19.91 L 48.6008,-19.86
 L 48.6008,-18.544 L 48.5874,-18.494 L 48.5508,-18.4574 L 48.5008,-18.444 L 43.6508,-18.444 L 43.6508,-15.654
 L 47.7548,-15.654 L 47.8048,-15.6406 L 47.8414,-15.604 L 47.8548,-15.554 L 47.8548,-14.238 L 47.8414,-14.188
 L 47.8048,-14.1514 L 47.7548,-14.138 L 43.6508,-14.138 L 43.6508,-11.416 L 48.5008,-11.416 L 48.5508,-11.4026
 L 48.5874,-11.366 L 48.6008,-11.316 L 48.6008,-10 L 48.5874,-9.95 L 48.5508,-9.91339 L 48.5008,-9.89999
 z
M -62.875,-9.89999 L -62.925,-9.91339 L -62.9616,-9.95 L -62.975,-10 L -62.975,-11.194 L -62.9611,-11.2447
 L -58.7239,-18.444 L -62.753,-18.444 L -62.803,-18.4574 L -62.8396,-18.494 L -62.853,-18.544 L -62.853,-19.86
 L -62.8396,-19.91 L -62.803,-19.9466 L -62.753,-19.96 L -56.881,-19.96 L -56.831,-19.9466 L -56.7944,-19.91
 L -56.781,-19.86 L -56.781,-18.666 L -56.7946,-18.6156 L -60.9988,-11.416 L -56.745,-11.416 L -56.695,-11.4026
 L -56.6584,-11.366 L -56.645,-11.316 L -56.645,-10 L -56.6584,-9.95 L -56.695,-9.91339 L -56.745,-9.89999
 z
M 59.3533,-9.89999 L 59.3033,-9.91339 L 59.2667,-9.95 L 59.2533,-10 L 59.2533,-19.86 L 59.2667,-19.91
 L 59.3033,-19.9466 L 59.3533,-19.96 L 60.7363,-19.96 L 60.7863,-19.9466 L 60.8229,-19.91 L 60.8363,-19.86
 L 60.8363,-10 L 60.8229,-9.95 L 60.7863,-9.91339 L 60.7363,-9.89999 z
M 3.61906,5.24155 L 2.43925,4.31209 L 1.90346,4.72986 L 1.87904,4.74387 L 1.03178,5.08212 L 1.00626,5.08859
 L 0.0365143,5.20132 L 0.0134125,5.20132 L -0.955826,5.08859 L -0.981339,5.08214 L -1.82909,4.74388 L -1.85352,4.72986
 L -2.55151,4.18561 L -2.5715,4.16473 L -3.09151,3.43399 L -3.10403,3.4101 L -3.42653,2.52084 L -3.43196,2.49724
 L -3.53946,1.47749 L -3.54002,1.46701 L -3.54002,-1.327 L -3.53946,-1.33748 L -3.43196,-2.35722 L -3.42653,-2.38083
 L -3.10403,-3.27008 L -3.09151,-3.29398 L -2.5715,-4.02472 L -2.55151,-4.04559 L -1.85352,-4.58984 L -1.82909,-4.60387
 L -0.981339,-4.94212 L -0.955826,-4.94858 L 0.0134125,-5.06133 L 0.0365143,-5.06133 L 1.00626,-4.94858 L 1.03178,-4.94211
 L 1.87904,-4.60385 L 1.90346,-4.58984 L 2.60146,-4.04559 L 2.62144,-4.02472 L 3.14145,-3.29398 L 3.15395,-3.27016
 L 3.47719,-2.38091 L 3.48265,-2.35725 L 3.59041,-1.33751 L 3.59097,-1.327 L 3.59097,1.46701 L 3.59041,1.47752
 L 3.48265,2.49727 L 3.47719,2.52092 L 3.2319,3.19569 L 4.46074,4.16138 L 4.49159,4.20235 L 4.49802,4.25371
 L 4.47789,4.30141 L 3.75989,5.2244 L 3.71803,5.25586 L 3.66664,5.26196 z
M 0.57373,3.5726 L 1.04849,3.37704 L 1.14925,3.29579 L -0.0569305,2.34557 L -0.0878601,2.30421 L -0.0940247,2.25282
 L -0.0736694,2.20523 L 0.64534,1.29022 L 0.686768,1.25919 L 0.738159,1.25302 L 0.785751,1.27338 L 1.90002,2.14903
 L 1.91116,2.11714 L 1.97296,1.509 L 1.97296,-1.36899 L 1.91116,-1.9771 L 1.72893,-2.49844 L 1.438,-2.92287
 L 1.04849,-3.23703 L 0.57373,-3.43259 L 0.0249786,-3.49829 L -0.5233,-3.43259 L -0.998535,-3.23703 L -1.38757,-2.92287
 L -1.67903,-2.49838 L -1.86122,-1.97713 L -1.92302,-1.36899 L -1.92302,1.509 L -1.86122,2.11714 L -1.67903,2.6384
 L -1.38757,3.06288 L -0.998535,3.37704 L -0.5233,3.5726 L 0.0249786,3.63831 z
M -18.1999,5.10001 L -18.2499,5.08661 L -18.2865,5.05 L -18.2999,5 L -18.2999,-4.86699 L -18.2865,-4.91699
 L -18.2499,-4.9536 L -18.1999,-4.967 L -14.2879,-4.967 L -14.277,-4.96638 L -13.474,-4.87814 L -13.4495,-4.87227
 L -12.7505,-4.60751 L -12.7263,-4.5943 L -12.1513,-4.16756 L -12.1308,-4.14709 L -11.7018,-3.57283 L -11.6885,-3.54875
 L -11.4215,-2.85176 L -11.4155,-2.82709 L -11.3265,-2.03009 L -11.3265,-2.0078 L -11.4165,-1.20979 L -11.4226,-1.18492
 L -11.6926,-0.486923 L -11.706,-0.462891 L -12.1372,0.110611 L -12.1576,0.130859 L -12.7334,0.557358 L -12.7574,0.570496
 L -13.1537,0.720963 L -10.9234,4.95338 L -10.9119,5 L -10.9253,5.05 L -10.9619,5.08661 L -11.0119,5.10001
 L -12.6529,5.10001 L -12.7077,5.08365 L -12.7422,5.04504 L -14.8181,0.930008 L -16.7169,0.930008 L -16.7169,5
 L -16.7303,5.05 L -16.7669,5.08661 L -16.8169,5.10001 z
M -13.8887,-0.630875 L -13.5884,-0.761765 L -13.3406,-0.972473 L -13.1547,-1.25873 L -13.0371,-1.61142 L -12.9974,-2.01898
 L -13.0371,-2.42586 L -13.1547,-2.77831 L -13.34,-3.06476 L -13.5857,-3.27536 L -13.8845,-3.4061 L -14.2392,-3.45099
 L -16.7169,-3.45099 L -16.7169,-0.585999 L -14.2393,-0.585999 z
M 41.4725,5.09302 L 41.4225,5.07962 L 41.3859,5.04301 L 41.3725,4.99301 L 41.3725,-4.85999 L 41.3859,-4.90999
 L 41.4225,-4.94659 L 41.4725,-4.95999 L 42.7265,-4.95999 L 42.7729,-4.94855 L 42.811,-4.91345 L 47.2854,2.15923
 L 47.2854,-4.85999 L 47.2988,-4.90999 L 47.3354,-4.94659 L 47.3855,-4.95999 L 48.7555,-4.95999 L 48.8055,-4.94659
 L 48.8421,-4.90999 L 48.8555,-4.85999 L 48.8555,4.99301 L 48.8421,5.04301 L 48.8055,5.07962 L 48.7555,5.09302
 L 47.4875,5.09302 L 47.4415,5.08182 L 47.4032,5.04695 L 42.9415,-1.91948 L 42.9415,4.99301 L 42.9281,5.04301
 L 42.8915,5.07962 L 42.8415,5.09302 z
M 12.4295,5.10001 L 12.3795,5.08661 L 12.3429,5.05 L 12.3295,5 L 12.3295,-4.85999 L 12.3429,-4.90999
 L 12.3795,-4.94659 L 12.4295,-4.95999 L 18.6335,-4.95999 L 18.6835,-4.94659 L 18.7201,-4.90999 L 18.7335,-4.85999
 L 18.7335,-3.54399 L 18.7201,-3.49399 L 18.6835,-3.45738 L 18.6335,-3.44398 L 13.9125,-3.44398 L 13.9125,-0.565994
 L 17.8885,-0.565994 L 17.9385,-0.552597 L 17.9751,-0.515991 L 17.9885,-0.465988 L 17.9885,0.850006 L 17.9751,0.900009
 L 17.9385,0.936615 L 17.8885,0.950012 L 13.9125,0.950012 L 13.9125,5 L 13.8991,5.05 L 13.8625,5.08661
 L 13.8125,5.10001 z
M -32.8322,5.10001 L -32.8822,5.08661 L -32.9188,5.05 L -32.9322,5 L -32.9322,-4.85999 L -32.9188,-4.90999
 L -32.8822,-4.94659 L -32.8322,-4.95999 L -26.4992,-4.95999 L -26.4492,-4.94659 L -26.4126,-4.90999 L -26.3992,-4.85999
 L -26.3992,-3.54399 L -26.4126,-3.49399 L -26.4492,-3.45738 L -26.4992,-3.44398 L -31.3492,-3.44398 L -31.3492,-0.653992
 L -27.2452,-0.653992 L -27.1952,-0.640594 L -27.1586,-0.603989 L -27.1452,-0.553986 L -27.1452,0.762009 L -27.1586,0.812012
 L -27.1952,0.848618 L -27.2452,0.862015 L -31.3492,0.862015 L -31.3492,3.584 L -26.4992,3.584 L -26.4492,3.5974
 L -26.4126,3.634 L -26.3992,3.68401 L -26.3992,5 L -26.4126,5.05 L -26.4492,5.08661 L -26.4992,5.10001
 z
M -45.6467,5.10001 L -45.6967,5.08661 L -45.7333,5.05 L -45.7467,5 L -45.7467,-4.85999 L -45.7333,-4.90999
 L -45.6967,-4.94659 L -45.6467,-4.95999 L -44.2637,-4.95999 L -44.2137,-4.94659 L -44.1771,-4.90999 L -44.1637,-4.85999
 L -44.1637,5 L -44.1771,5.05 L -44.2137,5.08661 L -44.2637,5.10001 z
M -60.5625,5.10001 L -60.6293,5.07439 L -60.6575,5.03101 L -63.8725,-4.82898 L -63.8775,-4.85999 L -63.8641,-4.90999
 L -63.8275,-4.94659 L -63.7775,-4.95999 L -62.2715,-4.95999 L -62.2033,-4.93315 L -62.1758,-4.88927 L -59.9045,2.52936
 L -57.6341,-4.88925 L -57.5885,-4.94659 L -57.5385,-4.95999 L -56.0325,-4.95999 L -56.0015,-4.95506 L -55.9581,-4.92682
 L -55.9346,-4.88068 L -55.9374,-4.82898 L -59.1524,5.03101 L -59.1975,5.08661 L -59.2475,5.10001 z
M 57.4295,5.10001 L 57.3795,5.08661 L 57.3429,5.05 L 57.3295,5 L 57.3295,-4.85999 L 57.3429,-4.90999
 L 57.3795,-4.94659 L 57.4295,-4.95999 L 63.6335,-4.95999 L 63.6835,-4.94659 L 63.7201,-4.90999 L 63.7335,-4.85999
 L 63.7335,-3.54399 L 63.7201,-3.49399 L 63.6835,-3.45738 L 63.6335,-3.44398 L 58.9125,-3.44398 L 58.9125,-0.565994
 L 62.8885,-0.565994 L 62.9385,-0.552597 L 62.9751,-0.515991 L 62.9885,-0.465988 L 62.9885,0.850006 L 62.9751,0.900009
 L 62.9385,0.936615 L 62.8885,0.950012 L 58.9125,0.950012 L 58.9125,5 L 58.8991,5.05 L 58.8625,5.08661
 L 58.8125,5.10001 z
M 28.0242,-3.5936 L 27.9742,-3.60699 L 27.9375,-3.6436 L 27.9241,-3.6936 L 27.9241,-4.82076 L 27.9375,-4.87076
 L 27.9742,-4.90736 L 28.0242,-4.92076 L 29.4082,-4.92076 L 29.4582,-4.90736 L 29.4948,-4.87076 L 29.5082,-4.82076
 L 29.5082,-3.6936 L 29.4948,-3.6436 L 29.4582,-3.60699 L 29.4082,-3.5936 z
M 30.8051,-3.5936 L 30.7551,-3.60699 L 30.7185,-3.6436 L 30.7051,-3.6936 L 30.7051,-4.82076 L 30.7185,-4.87076
 L 30.7551,-4.90736 L 30.8051,-4.92076 L 32.1881,-4.92076 L 32.2381,-4.90736 L 32.2747,-4.87076 L 32.2881,-4.82076
 L 32.2881,-3.6936 L 32.2747,-3.6436 L 32.2381,-3.60699 L 32.1881,-3.5936 z
M 30.0905,5.18274 L 29.078,5.09494 L 29.0572,5.09088 L 28.2017,4.82742 L 28.1778,4.81645 L 27.4941,4.38533
 L 27.471,4.36528 L 26.9718,3.7744 L 26.9557,3.74799 L 26.6505,3.00797 L 26.6436,2.98135 L 26.5418,2.10442
 L 26.5412,2.0929 L 26.5412,-3.03589 L 26.5546,-3.08589 L 26.5912,-3.1225 L 26.6412,-3.13589 L 28.0242,-3.13589
 L 28.0742,-3.1225 L 28.1108,-3.08589 L 28.1242,-3.03589 L 28.1242,2.12338 L 28.2544,2.87209 L 28.6347,3.41504
 L 29.2529,3.75551 L 30.0992,3.87137 L 30.9516,3.75546 L 31.5738,3.41483 L 31.957,2.87183 L 32.0881,2.12337
 L 32.0881,-3.03589 L 32.1015,-3.08589 L 32.1381,-3.1225 L 32.1881,-3.13589 L 33.5712,-3.13589 L 33.6212,-3.1225
 L 33.6578,-3.08589 L 33.6712,-3.03589 L 33.6712,2.0929 L 33.6705,2.10442 L 33.5687,2.98135 L 33.5618,3.00797
 L 33.2566,3.74799 L 33.2405,3.77441 L 32.741,4.3653 L 32.7178,4.38542 L 32.0313,4.81654 L 32.0074,4.82747
 L 31.1477,5.09093 L 31.127,5.09494 L 30.1077,5.18274 z
M 59.3098,20.1679 L 59.2994,20.1668 L 58.6429,20.0648 L 58.6317,20.0624 L 58.0157,19.8927 L 58.004,19.8887
 L 57.43,19.6514 L 57.4187,19.6459 L 56.8842,19.3409 L 56.8739,19.3341 L 56.3744,18.9611 L 56.3408,18.9166
 L 56.3355,18.8651 L 56.3567,18.8178 L 57.2187,17.7598 L 57.2553,17.7318 L 57.3064,17.7235 L 57.3548,17.742
 L 57.9382,18.1637 L 58.5704,18.4615 L 59.2604,18.64 L 60.007,18.6996 L 60.9339,18.6028 L 61.6105,18.3192
 L 62.0202,17.8757 L 62.1582,17.2742 L 62.0959,16.8452 L 61.9128,16.5215 L 61.6298,16.2784 L 61.2645,16.1028
 L 60.7904,15.9661 L 60.185,15.8389 L 60.17,15.8358 L 60.1537,15.8348 L 60.1302,15.833 L 60.1134,15.8302
 L 60.095,15.8255 L 59.9956,15.8051 L 59.0978,15.6251 L 59.0902,15.6232 L 58.377,15.4212 L 58.3577,15.4136
 L 57.7825,15.1116 L 57.7588,15.0943 L 57.2731,14.6163 L 57.2531,14.5884 L 56.9224,13.9022 L 56.9132,13.8706
 L 56.8029,12.9458 L 56.8022,12.934 L 56.8022,12.927 L 56.8029,12.915 L 56.9055,12.0668 L 56.9129,12.0392
 L 57.2204,11.3245 L 57.2373,11.2978 L 57.7421,10.727 L 57.7654,10.7076 L 58.4577,10.2913 L 58.4811,10.2811
 L 59.3476,10.0268 L 59.3675,10.0231 L 60.393,9.93835 L 60.4067,9.93816 L 60.9315,9.96715 L 60.9426,9.9684
 L 61.4588,10.0554 L 61.4693,10.0577 L 61.9778,10.2007 L 61.9876,10.2041 L 62.4891,10.403 L 62.4983,10.4072
 L 62.993,10.664 L 63.0015,10.6689 L 63.4877,10.9852 L 63.5243,11.0277 L 63.5327,11.0788 L 63.5145,11.1272
 L 62.7275,12.2262 L 62.6919,12.257 L 62.6413,12.2679 L 62.592,12.2521 L 62.0357,11.8936 L 61.4886,11.6412
 L 60.9452,11.4905 L 60.4022,11.4405 L 59.5305,11.5386 L 58.8925,11.826 L 58.5044,12.2769 L 58.3733,12.8917
 L 58.4398,13.3121 L 58.6357,13.6261 L 58.9359,13.8607 L 59.3131,14.0296 L 59.8176,14.1683 L 60.4972,14.3142
 L 60.5236,14.3205 L 60.5443,14.3245 L 60.5679,14.3283 L 60.5743,14.3295 L 60.5979,14.3349 L 60.6695,14.3475
 L 60.709,14.3546 L 60.7464,14.3619 L 60.7509,14.3628 L 61.5721,14.5628 L 61.5813,14.5655 L 62.255,14.7995
 L 62.2734,14.8081 L 62.8242,15.1364 L 62.8459,15.1539 L 63.2982,15.6366 L 63.3161,15.6634 L 63.6191,16.3249
 L 63.6275,16.3549 L 63.7285,17.2214 L 63.7292,17.233 L 63.7292,17.247 L 63.7284,17.2597 L 63.6217,18.0964
 L 63.6135,18.125 L 63.2933,18.8313 L 63.2755,18.858 L 62.7525,19.422 L 62.7291,19.4406 L 62.0141,19.8526
 L 61.9913,19.8623 L 61.0973,20.1142 L 61.0781,20.1177 L 60.0161,20.2017 L 60.0033,20.2019 z
M -0.69017,20.1679 L -0.700623,20.1668 L -1.35712,20.0648 L -1.36833,20.0624 L -1.98434,19.8927 L -1.99597,19.8887
 L -2.56996,19.6514 L -2.58133,19.6459 L -3.11583,19.3409 L -3.1261,19.3341 L -3.62561,18.9611 L -3.65924,18.9166
 L -3.66451,18.8651 L -3.64331,18.8178 L -2.78131,17.7598 L -2.74467,17.7318 L -2.69356,17.7235 L -2.6452,17.742
 L -2.06178,18.1637 L -1.42964,18.4615 L -0.739639,18.64 L 0.00701904,18.6996 L 0.933884,18.6028 L 1.6105,18.3192
 L 2.02019,17.8757 L 2.15819,17.2742 L 2.09593,16.8452 L 1.9128,16.5215 L 1.62976,16.2784 L 1.26445,16.1028
 L 0.790421,15.9661 L 0.184952,15.8389 L 0.169998,15.8358 L 0.153732,15.8348 L 0.130157,15.833 L 0.113419,15.8302
 L 0.0949707,15.8255 L -0.00444031,15.8051 L -0.902176,15.6251 L -0.909775,15.6232 L -1.62303,15.4212 L -1.64226,15.4136
 L -2.2175,15.1116 L -2.24117,15.0943 L -2.72691,14.6163 L -2.74686,14.5884 L -3.07761,13.9022 L -3.08682,13.8706
 L -3.19708,12.9458 L -3.19778,12.934 L -3.19778,12.927 L -3.19705,12.915 L -3.09454,12.0668 L -3.08713,12.0392
 L -2.77963,11.3245 L -2.76268,11.2978 L -2.25793,10.727 L -2.23456,10.7076 L -1.5423,10.2913 L -1.51892,10.2811
 L -0.65242,10.0268 L -0.632507,10.0231 L 0.392975,9.93835 L 0.406738,9.93816 L 0.931488,9.96715 L 0.942581,9.9684
 L 1.45883,10.0554 L 1.46928,10.0577 L 1.97778,10.2007 L 1.98759,10.2041 L 2.48909,10.403 L 2.49828,10.4072
 L 2.99303,10.664 L 3.00148,10.6689 L 3.48773,10.9852 L 3.52429,11.0277 L 3.53273,11.0788 L 3.51451,11.1272
 L 2.72751,12.2262 L 2.69193,12.257 L 2.64134,12.2679 L 2.59204,12.2521 L 2.03571,11.8936 L 1.48862,11.6412
 L 0.94516,11.4905 L 0.402191,11.4405 L -0.469482,11.5386 L -1.10745,11.826 L -1.49557,12.2769 L -1.62674,12.8917
 L -1.56018,13.3121 L -1.36429,13.6261 L -1.06406,13.8607 L -0.686874,14.0296 L -0.182434,14.1683 L 0.497208,14.3142
 L 0.523636,14.3205 L 0.544281,14.3245 L 0.567902,14.3283 L 0.57428,14.3295 L 0.5979,14.3349 L 0.66951,14.3475
 L 0.709,14.3546 L 0.746445,14.3619 L 0.750885,14.3628 L 1.57213,14.5628 L 1.58127,14.5655 L 2.25502,14.7995
 L 2.27341,14.8081 L 2.82416,15.1364 L 2.84595,15.1539 L 3.29819,15.6366 L 3.31612,15.6634 L 3.61913,16.3249
 L 3.62755,16.3549 L 3.72855,17.2214 L 3.72922,17.233 L 3.72922,17.247 L 3.72841,17.2597 L 3.62166,18.0964
 L 3.61354,18.125 L 3.29329,18.8313 L 3.27553,18.858 L 2.75253,19.422 L 2.72914,19.4406 L 2.01414,19.8526
 L 1.99135,19.8623 L 1.09734,20.1142 L 1.07809,20.1177 L 0.016098,20.2017 L 0.00331116,20.2019 z
M 30.242,20.2013 L 29.2797,20.0878 L 29.2538,20.0812 L 28.4151,19.7407 L 28.3903,19.7262 L 27.7013,19.1764
 L 27.6817,19.1554 L 27.1666,18.4162 L 27.1545,18.3925 L 26.8342,17.4923 L 26.829,17.469 L 26.7222,16.4363
 L 26.7217,16.426 L 26.7217,13.721 L 26.7222,13.7107 L 26.829,12.678 L 26.8342,12.6548 L 27.1545,11.7545
 L 27.1666,11.7309 L 27.6816,10.9909 L 27.7012,10.97 L 28.3902,10.418 L 28.4148,10.4035 L 29.2535,10.06
 L 29.2796,10.0532 L 30.2419,9.93871 L 30.2648,9.93863 L 31.078,10.0294 L 31.1012,10.0348 L 31.847,10.3071
 L 31.8684,10.318 L 32.5219,10.7565 L 32.5401,10.7722 L 33.0766,11.3617 L 33.09,11.3802 L 33.491,12.0969
 L 33.4995,12.117 L 33.7465,12.9392 L 33.7507,12.968 L 33.7373,13.018 L 33.7007,13.0546 L 33.6507,13.068
 L 32.2337,13.068 L 32.1715,13.0463 L 32.1407,13.0047 L 31.9723,12.5781 L 31.7253,12.2082 L 31.4122,11.9018
 L 31.0499,11.6756 L 30.6577,11.5353 L 30.2544,11.4887 L 29.7142,11.5583 L 29.249,11.7653 L 28.8677,12.096
 L 28.5806,12.5405 L 28.3999,13.0862 L 28.3387,13.7258 L 28.3387,16.4213 L 28.3999,17.0565 L 28.5807,17.6036
 L 28.8677,18.0495 L 29.2487,18.3785 L 29.7139,18.5826 L 30.2547,18.6513 L 30.6631,18.608 L 31.0547,18.4776
 L 31.414,18.2621 L 31.7253,17.9627 L 31.9717,17.5877 L 32.14,17.137 L 32.1837,17.0854 L 32.2337,17.072
 L 33.6507,17.072 L 33.6796,17.0763 L 33.7236,17.1035 L 33.748,17.1491 L 33.7464,17.2009 L 33.4984,18.0234
 L 33.4898,18.0436 L 33.0858,18.7611 L 33.0724,18.7795 L 32.5337,19.3683 L 32.5156,19.3838 L 31.8613,19.8221
 L 31.84,19.8329 L 31.096,20.1052 L 31.0728,20.1106 L 30.2648,20.2014 z
M -18.7117,20.1 L -18.7637,20.0854 L -18.7994,20.048 L -18.8116,19.9977 L -18.7971,19.948 L -15.767,14.9716
 L -18.7157,10.1925 L -18.7307,10.14 L -18.7173,10.09 L -18.6806,10.0534 L -18.6306,10.04 L -17.0777,10.04
 L -17.0287,10.0528 L -16.9916,10.089 L -14.9295,13.5677 L -12.892,10.0895 L -12.8557,10.0534 L -12.8057,10.04
 L -11.2527,10.04 L -11.2005,10.0547 L -11.1648,10.0922 L -11.1527,10.1425 L -11.1673,10.1922 L -14.0839,14.9639
 L -11.0185,19.9476 L -11.0037,20 L -11.0171,20.05 L -11.0537,20.0866 L -11.1037,20.1 L -12.6567,20.1
 L -12.7057,20.0871 L -12.7427,20.0509 L -14.9204,16.3693 L -17.0723,20.0505 L -17.1086,20.0866 L -17.1586,20.1
 z
M 12.1678,20.1 L 12.1178,20.0866 L 12.0812,20.05 L 12.0678,20 L 12.0678,10.14 L 12.0812,10.09
 L 12.1178,10.0534 L 12.1678,10.04 L 18.5008,10.04 L 18.5508,10.0534 L 18.5874,10.09 L 18.6008,10.14
 L 18.6008,11.456 L 18.5874,11.506 L 18.5508,11.5426 L 18.5008,11.556 L 13.6508,11.556 L 13.6508,14.346
 L 17.7548,14.346 L 17.8048,14.3594 L 17.8414,14.396 L 17.8548,14.446 L 17.8548,15.762 L 17.8414,15.812
 L 17.8048,15.8486 L 17.7548,15.862 L 13.6508,15.862 L 13.6508,18.584 L 18.5008,18.584 L 18.5508,18.5974
 L 18.5874,18.634 L 18.6008,18.684 L 18.6008,20 L 18.5874,20.05 L 18.5508,20.0866 L 18.5008,20.1
 z
M 41.618,20.1 L 41.568,20.0866 L 41.5314,20.05 L 41.518,20 L 41.518,10.14 L 41.5314,10.09
 L 41.568,10.0534 L 41.618,10.04 L 43.001,10.04 L 43.051,10.0534 L 43.0876,10.09 L 43.101,10.14
 L 43.101,14.387 L 47.119,14.387 L 47.119,10.14 L 47.1324,10.09 L 47.169,10.0534 L 47.219,10.04
 L 48.602,10.04 L 48.652,10.0534 L 48.6886,10.09 L 48.702,10.14 L 48.702,20 L 48.6886,20.05
 L 48.652,20.0866 L 48.602,20.1 L 47.219,20.1 L 47.169,20.0866 L 47.1324,20.05 L 47.119,20
 L 47.119,15.902 L 43.101,15.902 L 43.101,20 L 43.0876,20.05 L 43.051,20.0866 L 43.001,20.1
 z
M -47.6667,20.1 L -47.7167,20.0866 L -47.7533,20.05 L -47.7667,20 L -47.7667,10.14 L -47.7533,10.09
 L -47.7167,10.0534 L -47.6667,10.04 L -46.2837,10.04 L -46.2337,10.0534 L -46.1971,10.09 L -46.1837,10.14
 L -46.1837,18.584 L -41.3337,18.584 L -41.2837,18.5974 L -41.2471,18.634 L -41.2337,18.684 L -41.2337,20
 L -41.2471,20.05 L -41.2837,20.0866 L -41.3337,20.1 z
M -32.5705,20.1 L -32.6205,20.0866 L -32.6571,20.05 L -32.6705,20 L -32.6705,10.14 L -32.6571,10.09
 L -32.6205,10.0534 L -32.5705,10.04 L -26.3665,10.04 L -26.3165,10.0534 L -26.2799,10.09 L -26.2665,10.14
 L -26.2665,11.456 L -26.2799,11.506 L -26.3165,11.5426 L -26.3665,11.556 L -31.0875,11.556 L -31.0875,14.434
 L -27.1115,14.434 L -27.0615,14.4474 L -27.0249,14.484 L -27.0115,14.534 L -27.0115,15.85 L -27.0249,15.9
 L -27.0615,15.9366 L -27.1115,15.95 L -31.0875,15.95 L -31.0875,20 L -31.1009,20.05 L -31.1375,20.0866
 L -31.1875,20.1 z
M -62.8322,20.1 L -62.8822,20.0866 L -62.9188,20.05 L -62.9322,20 L -62.9322,10.14 L -62.9188,10.09
 L -62.8822,10.0534 L -62.8322,10.04 L -56.4992,10.04 L -56.4492,10.0534 L -56.4126,10.09 L -56.3992,10.14
 L -56.3992,11.456 L -56.4126,11.506 L -56.4492,11.5426 L -56.4992,11.556 L -61.3492,11.556 L -61.3492,14.346
 L -57.2452,14.346 L -57.1952,14.3594 L -57.1586,14.396 L -57.1452,14.446 L -57.1452,15.762 L -57.1586,15.812
 L -57.1952,15.8486 L -57.2452,15.862 L -61.3492,15.862 L -61.3492,18.584 L -56.4992,18.584 L -56.4492,18.5974
 L -56.4126,18.634 L -56.3992,18.684 L -56.3992,20 L -56.4126,20.05 L -56.4492,20.0866 L -56.4992,20.1
 z
M -45.6902,35.1679 L -45.7006,35.1668 L -46.3571,35.0648 L -46.3683,35.0624 L -46.9843,34.8927 L -46.996,34.8887
 L -47.57,34.6514 L -47.5813,34.6459 L -48.1158,34.3409 L -48.1261,34.3341 L -48.6256,33.9611 L -48.6592,33.9166
 L -48.6645,33.8651 L -48.6433,33.8178 L -47.7813,32.7598 L -47.7447,32.7318 L -47.6936,32.7235 L -47.6452,32.742
 L -47.0618,33.1637 L -46.4296,33.4615 L -45.7396,33.64 L -44.993,33.6996 L -44.0661,33.6028 L -43.3895,33.3192
 L -42.9798,32.8757 L -42.8418,32.2742 L -42.9041,31.8452 L -43.0872,31.5215 L -43.3702,31.2784 L -43.7355,31.1028
 L -44.2096,30.9661 L -44.815,30.8389 L -44.83,30.8358 L -44.8463,30.8348 L -44.8698,30.833 L -44.8866,30.8302
 L -44.905,30.8255 L -45.0044,30.8051 L -45.9022,30.6251 L -45.9098,30.6232 L -46.623,30.4212 L -46.6423,30.4136
 L -47.2175,30.1116 L -47.2412,30.0943 L -47.7269,29.6163 L -47.7469,29.5884 L -48.0776,28.9022 L -48.0868,28.8706
 L -48.1971,27.9458 L -48.1978,27.934 L -48.1978,27.927 L -48.1971,27.915 L -48.0945,27.0668 L -48.0871,27.0392
 L -47.7796,26.3245 L -47.7627,26.2978 L -47.2579,25.727 L -47.2346,25.7076 L -46.5423,25.2913 L -46.5189,25.2811
 L -45.6524,25.0268 L -45.6325,25.0231 L -44.607,24.9384 L -44.5933,24.9382 L -44.0685,24.9671 L -44.0574,24.9684
 L -43.5412,25.0554 L -43.5307,25.0577 L -43.0222,25.2007 L -43.0124,25.2041 L -42.5109,25.403 L -42.5017,25.4072
 L -42.007,25.664 L -41.9985,25.6689 L -41.5123,25.9852 L -41.4757,26.0277 L -41.4673,26.0788 L -41.4855,26.1272
 L -42.2725,27.2262 L -42.3081,27.257 L -42.3587,27.2679 L -42.408,27.2521 L -42.9643,26.8936 L -43.5114,26.6412
 L -44.0548,26.4905 L -44.5978,26.4405 L -45.4695,26.5386 L -46.1075,26.826 L -46.4956,27.2769 L -46.6267,27.8917
 L -46.5602,28.3121 L -46.3643,28.6261 L -46.0641,28.8607 L -45.6869,29.0296 L -45.1824,29.1683 L -44.5028,29.3142
 L -44.4764,29.3205 L -44.4557,29.3245 L -44.4321,29.3283 L -44.4257,29.3295 L -44.4021,29.3349 L -44.3305,29.3475
 L -44.291,29.3546 L -44.2536,29.3619 L -44.2491,29.3628 L -43.4279,29.5628 L -43.4187,29.5655 L -42.745,29.7995
 L -42.7266,29.8081 L -42.1758,30.1364 L -42.1541,30.1539 L -41.7018,30.6366 L -41.6839,30.6634 L -41.3809,31.3249
 L -41.3725,31.3549 L -41.2715,32.2214 L -41.2708,32.233 L -41.2708,32.247 L -41.2716,32.2597 L -41.3783,33.0964
 L -41.3865,33.125 L -41.7067,33.8313 L -41.7245,33.858 L -42.2475,34.422 L -42.2709,34.4406 L -42.9859,34.8526
 L -43.0087,34.8623 L -43.9027,35.1142 L -43.9219,35.1177 L -44.9839,35.2017 L -44.9967,35.2019 z
M -30.6467,35.1 L -30.6967,35.0866 L -30.7333,35.05 L -30.7467,35 L -30.7467,25.14 L -30.7333,25.09
 L -30.6967,25.0534 L -30.6467,25.04 L -29.2637,25.04 L -29.2137,25.0534 L -29.1771,25.09 L -29.1637,25.14
 L -29.1637,35 L -29.1771,35.05 L -29.2137,35.0866 L -29.2637,35.1 z
M 57.1678,35.1 L 57.1178,35.0866 L 57.0812,35.05 L 57.0678,35 L 57.0678,25.14 L 57.0812,25.09
 L 57.1178,25.0534 L 57.1678,25.04 L 63.5008,25.04 L 63.5508,25.0534 L 63.5874,25.09 L 63.6008,25.14
 L 63.6008,26.456 L 63.5874,26.506 L 63.5508,26.5426 L 63.5008,26.556 L 58.6508,26.556 L 58.6508,29.346
 L 62.7548,29.346 L 62.8048,29.3594 L 62.8414,29.396 L 62.8548,29.446 L 62.8548,30.762 L 62.8414,30.812
 L 62.8048,30.8486 L 62.7548,30.862 L 58.6508,30.862 L 58.6508,33.584 L 63.5008,33.584 L 63.5508,33.5974
 L 63.5874,33.634 L 63.6008,33.684 L 63.6008,35 L 63.5874,35.05 L 63.5508,35.0866 L 63.5008,35.1
 z
M 41.7703,35.1 L 41.7203,35.0866 L 41.6837,35.05 L 41.6703,35 L 41.6703,25.14 L 41.6837,25.09
 L 41.7203,25.0534 L 41.7703,25.04 L 44.8963,25.04 L 44.9057,25.0405 L 46.0059,25.144 L 46.0283,25.1487
 L 46.9551,25.4592 L 46.9799,25.4715 L 47.7209,25.9798 L 47.7434,26.001 L 48.2844,26.6998 L 48.2988,26.7256
 L 48.6296,27.6001 L 48.6355,27.625 L 48.7457,28.6624 L 48.7463,28.673 L 48.7463,31.467 L 48.7457,31.4776
 L 48.6355,32.5153 L 48.6296,32.5401 L 48.2988,33.4154 L 48.2843,33.4413 L 47.7426,34.1396 L 47.72,34.1608
 L 46.9768,34.6695 L 46.9519,34.6819 L 46.0222,34.9916 L 45.9999,34.9963 L 44.8987,35.0996 L 44.8893,35.1
 z
M 45.8716,33.4464 L 46.5576,33.0435 L 46.9838,32.3985 L 47.1293,31.5129 L 47.1293,28.6271 L 46.9838,27.7416
 L 46.5576,27.0965 L 45.8716,26.6936 L 44.9291,26.556 L 43.2533,26.556 L 43.2533,33.584 L 44.9291,33.584
 z
M -17.8322,35.1 L -17.8822,35.0866 L -17.9188,35.05 L -17.9322,35 L -17.9322,25.14 L -17.9188,25.09
 L -17.8822,25.0534 L -17.8322,25.04 L -11.4992,25.04 L -11.4492,25.0534 L -11.4126,25.09 L -11.3992,25.14
 L -11.3992,26.456 L -11.4126,26.506 L -11.4492,26.5426 L -11.4992,26.556 L -16.3492,26.556 L -16.3492,29.346
 L -12.2452,29.346 L -12.1952,29.3594 L -12.1586,29.396 L -12.1452,29.446 L -12.1452,30.762 L -12.1586,30.812
 L -12.1952,30.8486 L -12.2452,30.862 L -16.3492,30.862 L -16.3492,33.584 L -11.4992,33.584 L -11.4492,33.5974
 L -11.4126,33.634 L -11.3992,33.684 L -11.3992,35 L -11.4126,35.05 L -11.4492,35.0866 L -11.4992,35.1
 z
M 26.4725,35.093 L 26.4225,35.0796 L 26.3859,35.043 L 26.3725,34.993 L 26.3725,25.14 L 26.3859,25.09
 L 26.4225,25.0534 L 26.4725,25.04 L 27.7265,25.04 L 27.7729,25.0515 L 27.811,25.0865 L 32.2854,32.1592
 L 32.2854,25.14 L 32.2988,25.09 L 32.3354,25.0534 L 32.3855,25.04 L 33.7555,25.04 L 33.8055,25.0534
 L 33.8421,25.09 L 33.8555,25.14 L 33.8555,34.993 L 33.8421,35.043 L 33.8055,35.0796 L 33.7555,35.093
 L 32.4875,35.093 L 32.4415,35.0818 L 32.4032,35.047 L 27.9415,28.0805 L 27.9415,34.993 L 27.9281,35.043
 L 27.8915,35.0796 L 27.8415,35.093 z
M 12.1678,35.1 L 12.1178,35.0866 L 12.0812,35.05 L 12.0678,35 L 12.0678,25.14 L 12.0812,25.09
 L 12.1178,25.0534 L 12.1678,25.04 L 18.5008,25.04 L 18.5508,25.0534 L 18.5874,25.09 L 18.6008,25.14
 L 18.6008,26.456 L 18.5874,26.506 L 18.5508,26.5426 L 18.5008,26.556 L 13.6508,26.556 L 13.6508,29.346
 L 17.7548,29.346 L 17.8048,29.3594 L 17.8414,29.396 L 17.8548,29.446 L 17.8548,30.762 L 17.8414,30.812
 L 17.8048,30.8486 L 17.7548,30.862 L 13.6508,30.862 L 13.6508,33.584 L 18.5008,33.584 L 18.5508,33.5974
 L 18.5874,33.634 L 18.6008,33.684 L 18.6008,35 L 18.5874,35.05 L 18.5508,35.0866 L 18.5008,35.1
 z
M -3.15643,35.1 L -3.20644,35.0866 L -3.24304,35.05 L -3.25644,35 L -3.25644,25.14 L -3.24304,25.09
 L -3.20644,25.0534 L -3.15643,25.04 L 0.728546,25.04 L 0.737793,25.0404 L 1.6158,25.1219 L 1.63863,25.1268
 L 2.36063,25.3713 L 2.38577,25.384 L 2.94902,25.777 L 2.97159,25.7987 L 3.37134,26.3277 L 3.38547,26.3537
 L 3.62473,27.0082 L 3.63028,27.0322 L 3.71002,27.8017 L 3.71005,27.822 L 3.6608,28.3142 L 3.65652,28.3348
 L 3.50877,28.7955 L 3.49921,28.8166 L 3.25122,29.2283 L 3.23578,29.248 L 2.88377,29.5952 L 2.86395,29.6104
 L 2.41245,29.8739 L 2.39014,29.8835 L 2.18307,29.9441 L 2.39583,30.0014 L 2.41978,30.0114 L 2.89453,30.2854
 L 2.91467,30.3007 L 3.29768,30.6775 L 3.31291,30.6967 L 3.5939,31.1569 L 3.60345,31.1775 L 3.77672,31.6998
 L 3.78128,31.7211 L 3.83902,32.2838 L 3.83955,32.294 L 3.83955,32.315 L 3.83887,32.3266 L 3.75063,33.0791
 L 3.74406,33.1049 L 3.47931,33.7624 L 3.46492,33.7871 L 3.03642,34.3279 L 3.01494,34.348 L 2.43344,34.7503
 L 2.40956,34.7624 L 1.69756,35.0114 L 1.67462,35.0165 L 0.854614,35.0995 L 0.844543,35.1 z
M 1.30798,29.1307 L 1.7534,28.8826 L 2.02061,28.4749 L 2.11223,27.8935 L 2.01024,27.2864 L 1.7123,26.8661
 L 1.20761,26.6107 L 0.471542,26.522 L -1.68044,26.522 L -1.68044,29.217 L 0.660965,29.217 z
M 1.20908,33.5205 L 1.79524,33.2385 L 2.12805,32.7954 L 2.24254,32.1837 L 2.24254,32.1766 L 2.20076,31.7262
 L 2.07919,31.3563 L 1.87428,31.0646 L 1.57698,30.8488 L 1.17702,30.712 L 0.663116,30.665 L -1.68044,30.665
 L -1.68044,33.618 L 0.323151,33.618 z
M -60.6096,35.1 L -60.6596,35.0866 L -60.6962,35.05 L -60.7096,35 L -60.7096,31.0162 L -63.7026,25.1857
 L -63.7136,25.14 L -63.7002,25.09 L -63.6636,25.0534 L -63.6136,25.04 L -62.0746,25.04 L -62.0185,25.0573
 L -61.9846,25.0964 L -59.9186,29.3597 L -57.8516,25.0964 L -57.8117,25.0534 L -57.7617,25.04 L -56.2227,25.04
 L -56.177,25.0511 L -56.1386,25.0858 L -56.1228,25.1351 L -56.1337,25.1857 L -59.1266,31.0162 L -59.1266,35
 L -59.14,35.05 L -59.1767,35.0866 L -59.2267,35.1 z
M -44.758,50.2013 L -45.7203,50.0878 L -45.7462,50.0812 L -46.5849,49.7407 L -46.6097,49.7262 L -47.2987,49.1764
 L -47.3183,49.1554 L -47.8334,48.4162 L -47.8455,48.3925 L -48.1658,47.4923 L -48.171,47.469 L -48.2778,46.4363
 L -48.2783,46.426 L -48.2783,43.721 L -48.2778,43.7107 L -48.171,42.678 L -48.1658,42.6548 L -47.8455,41.7545
 L -47.8334,41.7309 L -47.3184,40.9909 L -47.2988,40.97 L -46.6098,40.418 L -46.5852,40.4035 L -45.7465,40.06
 L -45.7204,40.0532 L -44.7581,39.9387 L -44.7352,39.9386 L -43.922,40.0294 L -43.8988,40.0348 L -43.153,40.3071
 L -43.1316,40.318 L -42.4781,40.7565 L -42.4599,40.7722 L -41.9234,41.3617 L -41.91,41.3802 L -41.509,42.0969
 L -41.5005,42.117 L -41.2535,42.9392 L -41.2493,42.968 L -41.2627,43.018 L -41.2993,43.0546 L -41.3493,43.068
 L -42.7663,43.068 L -42.8285,43.0463 L -42.8593,43.0047 L -43.0277,42.5781 L -43.2747,42.2082 L -43.5878,41.9018
 L -43.9501,41.6756 L -44.3423,41.5353 L -44.7456,41.4887 L -45.2858,41.5583 L -45.751,41.7653 L -46.1323,42.096
 L -46.4194,42.5405 L -46.6001,43.0862 L -46.6613,43.7258 L -46.6613,46.4213 L -46.6001,47.0565 L -46.4193,47.6036
 L -46.1323,48.0495 L -45.7513,48.3785 L -45.2861,48.5826 L -44.7453,48.6513 L -44.3369,48.608 L -43.9453,48.4776
 L -43.586,48.2621 L -43.2747,47.9627 L -43.0283,47.5877 L -42.86,47.137 L -42.8163,47.0854 L -42.7663,47.072
 L -41.3493,47.072 L -41.3204,47.0763 L -41.2764,47.1035 L -41.252,47.1491 L -41.2536,47.2009 L -41.5016,48.0234
 L -41.5102,48.0436 L -41.9142,48.7611 L -41.9276,48.7795 L -42.4663,49.3683 L -42.4844,49.3838 L -43.1387,49.8221
 L -43.16,49.8329 L -43.904,50.1052 L -43.9272,50.1106 L -44.7352,50.2014 z
M -33.382,50.1 L -33.432,50.0866 L -33.4686,50.05 L -33.482,50 L -33.482,40.14 L -33.4686,40.09
 L -33.432,40.0534 L -33.382,40.04 L -31.999,40.04 L -31.949,40.0534 L -31.9124,40.09 L -31.899,40.14
 L -31.899,44.387 L -27.881,44.387 L -27.881,40.14 L -27.8676,40.09 L -27.831,40.0534 L -27.781,40.04
 L -26.398,40.04 L -26.348,40.0534 L -26.3114,40.09 L -26.298,40.14 L -26.298,50 L -26.3114,50.05
 L -26.348,50.0866 L -26.398,50.1 L -27.781,50.1 L -27.831,50.0866 L -27.8676,50.05 L -27.881,50
 L -27.881,45.902 L -31.899,45.902 L -31.899,50 L -31.9124,50.05 L -31.949,50.0866 L -31.999,50.1
 z
M 27.1678,50.1 L 27.1178,50.0866 L 27.0812,50.05 L 27.0678,50 L 27.0678,40.14 L 27.0812,40.09
 L 27.1178,40.0534 L 27.1678,40.04 L 33.5008,40.04 L 33.5508,40.0534 L 33.5874,40.09 L 33.6008,40.14
 L 33.6008,41.456 L 33.5874,41.506 L 33.5508,41.5426 L 33.5008,41.556 L 28.6508,41.556 L 28.6508,44.346
 L 32.7548,44.346 L 32.8048,44.3594 L 32.8414,44.396 L 32.8548,44.446 L 32.8548,45.762 L 32.8414,45.812
 L 32.8048,45.8486 L 32.7548,45.862 L 28.6508,45.862 L 28.6508,48.584 L 33.5008,48.584 L 33.5508,48.5974
 L 33.5874,48.634 L 33.6008,48.684 L 33.6008,50 L 33.5874,50.05 L 33.5508,50.0866 L 33.5008,50.1
 z
M -15.6141,50.1 L -15.6641,50.0866 L -15.7007,50.05 L -15.7141,50 L -15.7141,41.556 L -18.4011,41.556
 L -18.4511,41.5426 L -18.4877,41.506 L -18.5011,41.456 L -18.5011,40.14 L -18.4877,40.09 L -18.4511,40.0534
 L -18.4011,40.04 L -11.4431,40.04 L -11.3931,40.0534 L -11.3565,40.09 L -11.3431,40.14 L -11.3431,41.456
 L -11.3565,41.506 L -11.3931,41.5426 L -11.4431,41.556 L -14.1301,41.556 L -14.1301,50 L -14.1435,50.05
 L -14.1801,50.0866 L -14.2301,50.1 z
M 11.4725,50.093 L 11.4225,50.0796 L 11.3859,50.043 L 11.3725,49.993 L 11.3725,40.14 L 11.3859,40.09
 L 11.4225,40.0534 L 11.4725,40.04 L 12.7265,40.04 L 12.7729,40.0515 L 12.811,40.0865 L 17.2854,47.1592
 L 17.2854,40.14 L 17.2988,40.09 L 17.3354,40.0534 L 17.3855,40.04 L 18.7555,40.04 L 18.8055,40.0534
 L 18.8421,40.09 L 18.8555,40.14 L 18.8555,49.993 L 18.8421,50.043 L 18.8055,50.0796 L 18.7555,50.093
 L 17.4875,50.093 L 17.4415,50.0818 L 17.4032,50.047 L 12.9415,43.0805 L 12.9415,49.993 L 12.9281,50.043
 L 12.8915,50.0796 L 12.8415,50.093 z
M 56.4725,50.093 L 56.4225,50.0796 L 56.3859,50.043 L 56.3725,49.993 L 56.3725,40.14 L 56.3859,40.09
 L 56.4225,40.0534 L 56.4725,40.04 L 57.7265,40.04 L 57.7729,40.0515 L 57.811,40.0865 L 62.2854,47.1592
 L 62.2854,40.14 L 62.2988,40.09 L 62.3354,40.0534 L 62.3855,40.04 L 63.7555,40.04 L 63.8055,40.0534
 L 63.8421,40.09 L 63.8555,40.14 L 63.8555,49.993 L 63.8421,50.043 L 63.8055,50.0796 L 63.7555,50.093
 L 62.4875,50.093 L 62.4415,50.0818 L 62.4032,50.047 L 57.9415,43.0805 L 57.9415,49.993 L 57.9281,50.043
 L 57.8915,50.0796 L 57.8415,50.093 z
M 0.0885773,50.2014 L -0.92392,50.0937 L -0.948685,50.0878 L -1.80418,49.7646 L -1.83003,49.7501 L -2.51378,49.2211
 L -2.53496,49.1987 L -3.03421,48.4737 L -3.04663,48.4489 L -3.35188,47.5409 L -3.35664,47.5184 L -3.45839,46.4424
 L -3.45885,46.433 L -3.45885,40.14 L -3.44545,40.09 L -3.40884,40.0534 L -3.35884,40.04 L -1.97585,40.04
 L -1.92584,40.0534 L -1.88924,40.09 L -1.87584,40.14 L -1.87584,46.474 L -1.74402,47.4041 L -1.35857,48.0792
 L -0.741074,48.4965 L 0.0992279,48.6376 L 0.945602,48.4964 L 1.56706,48.079 L 1.95537,47.4038 L 2.08813,46.4739
 L 2.08813,40.14 L 2.10153,40.09 L 2.13814,40.0534 L 2.18814,40.04 L 3.57115,40.04 L 3.62115,40.0534
 L 3.65776,40.09 L 3.67116,40.14 L 3.67116,46.433 L 3.6707,46.4424 L 3.56894,47.5184 L 3.56418,47.5409
 L 3.25893,48.4489 L 3.24649,48.4737 L 2.74699,49.1987 L 2.72568,49.2212 L 2.03918,49.7502 L 2.01334,49.7646
 L 1.15358,50.0879 L 1.12891,50.0937 L 0.109665,50.2014 z
M -64.1201,50.1 L -64.1547,50.0938 L -64.197,50.064 L -64.2187,50.017 L -64.2139,49.9654 L -60.5789,40.1054
 L -60.5351,40.0534 L -60.4851,40.04 L -59.3051,40.04 L -59.2411,40.0631 L -59.2113,40.1054 L -55.5763,49.9654
 L -55.5701,50 L -55.5835,50.05 L -55.6201,50.0866 L -55.6701,50.1 L -57.1621,50.1 L -57.2278,50.0754
 L -57.2567,50.0325 L -57.9767,47.937 L -61.8135,47.937 L -62.5335,50.0325 L -62.5781,50.0866 L -62.6281,50.1
 z
M -59.8951,42.3537 L -61.2926,46.421 L -58.4976,46.421 z
M 45.0886,50.2014 L 44.0761,50.0937 L 44.0513,50.0878 L 43.1958,49.7646 L 43.17,49.7501 L 42.4862,49.2211
 L 42.465,49.1987 L 41.9658,48.4737 L 41.9534,48.4489 L 41.6481,47.5409 L 41.6434,47.5184 L 41.5416,46.4424
 L 41.5412,46.433 L 41.5412,40.14 L 41.5546,40.09 L 41.5912,40.0534 L 41.6412,40.04 L 43.0242,40.04
 L 43.0742,40.0534 L 43.1108,40.09 L 43.1242,40.14 L 43.1242,46.474 L 43.256,47.4041 L 43.6414,48.0792
 L 44.2589,48.4965 L 45.0992,48.6376 L 45.9456,48.4964 L 46.5671,48.079 L 46.9554,47.4038 L 47.0881,46.4739
 L 47.0881,40.14 L 47.1015,40.09 L 47.1381,40.0534 L 47.1881,40.04 L 48.5712,40.04 L 48.6212,40.0534
 L 48.6578,40.09 L 48.6712,40.14 L 48.6712,46.433 L 48.6707,46.4424 L 48.5689,47.5184 L 48.5642,47.5409
 L 48.2589,48.4489 L 48.2465,48.4737 L 47.747,49.1987 L 47.7257,49.2212 L 47.0392,49.7502 L 47.0133,49.7646
 L 46.1536,50.0879 L 46.1289,50.0937 L 45.1097,50.2014 z
M -47.8322,65.1 L -47.8822,65.0866 L -47.9188,65.05 L -47.9322,65 L -47.9322,55.14 L -47.9188,55.09
 L -47.8822,55.0534 L -47.8322,55.04 L -41.4992,55.04 L -41.4492,55.0534 L -41.4126,55.09 L -41.3992,55.14
 L -41.3992,56.456 L -41.4126,56.506 L -41.4492,56.5426 L -41.4992,56.556 L -46.3492,56.556 L -46.3492,59.346
 L -42.2452,59.346 L -42.1952,59.3594 L -42.1586,59.396 L -42.1452,59.446 L -42.1452,60.762 L -42.1586,60.812
 L -42.1952,60.8486 L -42.2452,60.862 L -46.3492,60.862 L -46.3492,63.584 L -41.4992,63.584 L -41.4492,63.5974
 L -41.4126,63.634 L -41.3992,63.684 L -41.3992,65 L -41.4126,65.05 L -41.4492,65.0866 L -41.4992,65.1
 z
M 42.3333,65.1 L 42.2833,65.0866 L 42.2467,65.05 L 42.2333,65 L 42.2333,55.14 L 42.2467,55.09
 L 42.2833,55.0534 L 42.3333,55.04 L 43.7163,55.04 L 43.7663,55.0534 L 43.8029,55.09 L 43.8163,55.14
 L 43.8163,63.584 L 48.6663,63.584 L 48.7163,63.5974 L 48.7529,63.634 L 48.7663,63.684 L 48.7663,65
 L 48.7529,65.05 L 48.7163,65.0866 L 48.6663,65.1 z
M 11.8688,65.1 L 11.8408,65.096 L 11.7966,65.0691 L 11.7717,65.0237 L 9.36368,55.1637 L 9.37421,55.09
 L 9.41081,55.0534 L 9.46082,55.04 L 10.8988,55.04 L 10.9285,55.0445 L 10.9723,55.0722 L 10.9964,55.118
 L 12.649,62.4482 L 14.5661,55.1147 L 14.5762,55.09 L 14.6128,55.0534 L 14.6628,55.04 L 15.6118,55.04
 L 15.6383,55.0436 L 15.6829,55.0697 L 15.7086,55.1147 L 17.6256,62.4482 L 19.2783,55.118 L 19.2892,55.09
 L 19.3258,55.0534 L 19.3758,55.04 L 20.8128,55.04 L 20.8819,55.0677 L 20.9088,55.112 L 20.91,55.1637
 L 18.503,65.0237 L 18.4924,65.05 L 18.4558,65.0866 L 18.4058,65.1 L 16.9948,65.1 L 16.9686,65.0965
 L 16.9238,65.0704 L 16.8981,65.0255 L 15.1757,58.4941 L 13.3752,65.0266 L 13.3288,65.0866 L 13.2788,65.1
 z
M -33.382,65.1 L -33.432,65.0866 L -33.4686,65.05 L -33.482,65 L -33.482,55.14 L -33.4686,55.09
 L -33.432,55.0534 L -33.382,55.04 L -31.999,55.04 L -31.949,55.0534 L -31.9124,55.09 L -31.899,55.14
 L -31.899,59.387 L -27.881,59.387 L -27.881,55.14 L -27.8676,55.09 L -27.831,55.0534 L -27.781,55.04
 L -26.398,55.04 L -26.348,55.0534 L -26.3114,55.09 L -26.298,55.14 L -26.298,65 L -26.3114,65.05
 L -26.348,65.0866 L -26.398,65.1 L -27.781,65.1 L -27.831,65.0866 L -27.8676,65.05 L -27.881,65
 L -27.881,60.902 L -31.899,60.902 L -31.899,65 L -31.9124,65.05 L -31.949,65.0866 L -31.999,65.1
 z
M -2.87495,65.1 L -2.92496,65.0866 L -2.96156,65.05 L -2.97496,65 L -2.97496,63.806 L -2.96114,63.7553
 L 1.27614,56.556 L -2.75296,56.556 L -2.80296,56.5426 L -2.83957,56.506 L -2.85297,56.456 L -2.85297,55.14
 L -2.83957,55.09 L -2.80296,55.0534 L -2.75296,55.04 L 3.11903,55.04 L 3.16904,55.0534 L 3.20564,55.09
 L 3.21904,55.14 L 3.21904,56.334 L 3.20538,56.3844 L -0.998764,63.584 L 3.25502,63.584 L 3.30502,63.5974
 L 3.34163,63.634 L 3.35503,63.684 L 3.35503,65 L 3.34163,65.05 L 3.30502,65.0866 L 3.25502,65.1
 z
M -18.5275,65.093 L -18.5775,65.0796 L -18.6141,65.043 L -18.6275,64.993 L -18.6275,55.14 L -18.6141,55.09
 L -18.5775,55.0534 L -18.5275,55.04 L -17.2735,55.04 L -17.2271,55.0515 L -17.189,55.0865 L -12.7146,62.1592
 L -12.7146,55.14 L -12.7012,55.09 L -12.6646,55.0534 L -12.6145,55.04 L -11.2445,55.04 L -11.1945,55.0534
 L -11.1579,55.09 L -11.1445,55.14 L -11.1445,64.993 L -11.1579,65.043 L -11.1945,65.0796 L -11.2445,65.093
 L -12.5125,65.093 L -12.5585,65.0818 L -12.5968,65.047 L -17.0585,58.0805 L -17.0585,64.993 L -17.0719,65.043
 L -17.1085,65.0796 L -17.1585,65.093 z
M -62.875,65.1 L -62.925,65.0866 L -62.9616,65.05 L -62.975,65 L -62.975,63.806 L -62.9611,63.7553
 L -58.7239,56.556 L -62.753,56.556 L -62.803,56.5426 L -62.8396,56.506 L -62.853,56.456 L -62.853,55.14
 L -62.8396,55.09 L -62.803,55.0534 L -62.753,55.04 L -56.881,55.04 L -56.831,55.0534 L -56.7944,55.09
 L -56.781,55.14 L -56.781,56.334 L -56.7946,56.3844 L -60.9988,63.584 L -56.745,63.584 L -56.695,63.5974
 L -56.6584,63.634 L -56.645,63.684 L -56.645,65 L -56.6584,65.05 L -56.695,65.0866 L -56.745,65.1
 z
M 57.4295,65.1 L 57.3795,65.0866 L 57.3429,65.05 L 57.3295,65 L 57.3295,55.14 L 57.3429,55.09
 L 57.3795,55.0534 L 57.4295,55.04 L 63.6335,55.04 L 63.6835,55.0534 L 63.7201,55.09 L 63.7335,55.14
 L 63.7335,56.456 L 63.7201,56.506 L 63.6835,56.5426 L 63.6335,56.556 L 58.9125,56.556 L 58.9125,59.434
 L 62.8885,59.434 L 62.9385,59.4474 L 62.9751,59.484 L 62.9885,59.534 L 62.9885,60.85 L 62.9751,60.9
 L 62.9385,60.9366 L 62.8885,60.95 L 58.9125,60.95 L 58.9125,65 L 58.8991,65.05 L 58.8625,65.0866
 L 58.8125,65.1 z
M 28.0226,56.4064 L 27.9726,56.393 L 27.936,56.3564 L 27.9226,56.3064 L 27.9226,55.1792 L 27.936,55.1292
 L 27.9726,55.0926 L 28.0226,55.0792 L 29.4066,55.0792 L 29.4566,55.0926 L 29.4932,55.1292 L 29.5066,55.1792
 L 29.5066,56.3064 L 29.4932,56.3564 L 29.4566,56.393 L 29.4066,56.4064 z
M 30.8036,56.4064 L 30.7536,56.393 L 30.7169,56.3564 L 30.7036,56.3064 L 30.7036,55.1792 L 30.7169,55.1292
 L 30.7536,55.0926 L 30.8036,55.0792 L 32.1866,55.0792 L 32.2366,55.0926 L 32.2732,55.1292 L 32.2866,55.1792
 L 32.2866,56.3064 L 32.2732,56.3564 L 32.2366,56.393 L 32.1866,56.4064 z
M 30.0951,65.1827 L 29.1259,65.0908 L 29.1044,65.0863 L 28.2566,64.8107 L 28.2339,64.8 L 27.5359,64.3564
 L 27.5142,64.3378 L 26.9942,63.7422 L 26.9782,63.7171 L 26.6557,62.9923 L 26.6479,62.9645 L 26.5404,62.1334
 L 26.5396,62.1206 L 26.5396,59.8435 L 26.5404,59.8307 L 26.6479,58.9996 L 26.6557,58.9718 L 26.9782,58.247
 L 26.9942,58.2219 L 27.5142,57.6263 L 27.5359,57.6077 L 28.2339,57.1641 L 28.2566,57.1534 L 29.1044,56.8778
 L 29.1259,56.8733 L 30.0951,56.7814 L 30.114,56.7814 L 31.0837,56.8733 L 31.1052,56.8778 L 31.9525,57.1534
 L 31.9752,57.1641 L 32.6732,57.6077 L 32.6949,57.6263 L 33.2149,58.2219 L 33.2309,58.2469 L 33.5541,58.9717
 L 33.562,58.9995 L 33.6697,59.8306 L 33.6706,59.8435 L 33.6706,62.1206 L 33.6697,62.1335 L 33.562,62.9646
 L 33.5541,62.9924 L 33.2309,63.7172 L 33.2149,63.7422 L 32.6949,64.3378 L 32.6732,64.3564 L 31.9752,64.8
 L 31.9525,64.8107 L 31.1052,65.0863 L 31.0837,65.0908 L 30.114,65.1827 z
M 30.6578,63.8178 L 31.1355,63.6575 L 31.5247,63.4016 L 31.8125,63.0594 L 31.9916,62.6419 L 32.0526,62.1528
 L 32.0526,59.8113 L 31.9916,59.3222 L 31.8125,58.9046 L 31.5247,58.5625 L 31.1355,58.3066 L 30.6578,58.1463
 L 30.1046,58.0923 L 29.5519,58.1463 L 29.0737,58.3066 L 28.6849,58.5625 L 28.3966,58.9047 L 28.2175,59.3222
 L 28.1566,59.8113 L 28.1566,62.1528 L 28.2175,62.6419 L 28.3966,63.0594 L 28.6849,63.4016 L 29.0737,63.6575
 L 29.5518,63.8178 L 30.1046,63.8718 z
" stroke="black" fill="lightgray" stroke-width="0.5"/>
</svg>
