<?xml version="1.0" standalone="no"?>
<!DOCTYPE svg PUBLIC "-//W3C//DTD SVG 1.1//EN" "http://www.w3.org/Graphics/SVG/1.1/DTD/svg11.dtd">
<svg width="122mm" height="122mm" viewBox="-61 -61 122 122" xmlns="http://www.w3.org/2000/svg" version="1.1">
<title>OpenSCAD Model</title>
<path d="
M -44.5,-60.5 L -45.5,-60.5 L -45.5,-59.5 L -44.5,-59.5 z
M -59.5,-60.5 L -60.5,-60.5 L -60.5,-59.5 L -59.5,-59.5 z
M 60.5,-60.5 L 59.5,-60.5 L 59.5,-59.5 L 60.5,-59.5 z
M 45.5,-60.5 L 44.5,-60.5 L 44.5,-59.5 L 45.5,-59.5 z
M 30.5,-60.5 L 29.5,-60.5 L 29.5,-59.5 L 30.5,-59.5 z
M 0.5,-60.5 L -0.5,-60.5 L -0.5,-59.5 L 0.5,-59.5 z
M 15.5,-60.5 L 14.5,-60.5 L 14.5,-59.5 L 15.5,-59.5 z
M -29.5,-60.5 L -30.5,-60.5 L -30.5,-59.5 L -29.5,-59.5 z
M -14.5,-60.5 L -15.5,-60.5 L -15.5,-59.5 L -14.5,-59.5 z
M -59.5,-45.5 L -60.5,-45.5 L -60.5,-44.5 L -59.5,-44.5 z
M -44.5,-45.5 L -45.5,-45.5 L -45.5,-44.5 L -44.5,-44.5 z
M -29.5,-45.5 L -30.5,-45.5 L -30.5,-44.5 L -29.5,-44.5 z
M -14.5,-45.5 L -15.5,-45.5 L -15.5,-44.5 L -14.5,-44.5 z
M 0.5,-45.5 L -0.5,-45.5 L -0.5,-44.5 L 0.5,-44.5 z
M 15.5,-45.5 L 14.5,-45.5 L 14.5,-44.5 L 15.5,-44.5 z
M 30.5,-45.5 L 29.5,-45.5 L 29.5,-44.5 L 30.5,-44.5 z
M 45.5,-45.5 L 44.5,-45.5 L 44.5,-44.5 L 45.5,-44.5 z
M 60.5,-45.5 L 59.5,-45.5 L 59.5,-44.5 L 60.5,-44.5 z
M 60.5,-30.5 L 59.5,-30.5 L 59.5,-29.5 L 60.5,-29.5 z
M 45.5,-30.5 L 44.5,-30.5 L 44.5,-29.5 L 45.5,-29.5 z
M 30.5,-30.5 L 29.5,-30.5 L 29.5,-29.5 L 30.5,-29.5 z
M 15.5,-30.5 L 14.5,-30.5 L 14.5,-29.5 L 15.5,-29.5 z
M -14.5,-30.5 L -15.5,-30.5 L -15.5,-29.5 L -14.5,-29.5 z
M -29.5,-30.5 L -30.5,-30.5 L -30.5,-29.5 L -29.5,-29.5 z
M -44.5,-30.5 L -45.5,-30.5 L -45.5,-29.5 L -44.5,-29.5 z
M -59.5,-30.5 L -60.5,-30.5 L -60.5,-29.5 L -59.5,-29.5 z
M 0.5,-30.5 L -0.5,-30.5 L -0.5,-29.5 L 0.5,-29.5 z
M 0.5,-15.5 L -0.5,-15.5 L -0.5,-14.5 L 0.5,-14.5 z
M 60.5,-15.5 L 59.5,-15.5 L 59.5,-14.5 L 60.5,-14.5 z
M 45.5,-15.5 L 44.5,-15.5 L 44.5,-14.5 L 45.5,-14.5 z
M 30.5,-15.5 L 29.5,-15.5 L 29.5,-14.5 L 30.5,-14.5 z
M 15.5,-15.5 L 14.5,-15.5 L 14.5,-14.5 L 15.5,-14.5 z
M -14.5,-15.5 L -15.5,-15.5 L -15.5,-14.5 L -14.5,-14.5 z
M -29.5,-15.5 L -30.5,-15.5 L -30.5,-14.5 L -29.5,-14.5 z
M -44.5,-15.5 L -45.5,-15.5 L -45.5,-14.5 L -44.5,-14.5 z
M -59.5,-15.5 L -60.5,-15.5 L -60.5,-14.5 L -59.5,-14.5 z
M 60.5,-0.5 L 59.5,-0.5 L 59.5,0.5 L 60.5,0.5 z
M 45.5,-0.5 L 44.5,-0.5 L 44.5,0.5 L 45.5,0.5 z
M 30.5,-0.5 L 29.5,-0.5 L 29.5,0.5 L 30.5,0.5 z
M 15.5,-0.5 L 14.5,-0.5 L 14.5,0.5 L 15.5,0.5 z
M 0.5,-0.5 L -0.5,-0.5 L -0.5,0.5 L 0.5,0.5 z
M -29.5,-0.5 L -30.5,-0.5 L -30.5,0.5 L -29.5,0.5 z
M -44.5,-0.5 L -45.5,-0.5 L -45.5,0.5 L -44.5,0.5 z
M -59.5,-0.5 L -60.5,-0.5 L -60.5,0.5 L -59.5,0.5 z
M -14.5,-0.5 L -15.5,-0.5 L -15.5,0.5 L -14.5,0.5 z
M 0.5,14.5 L -0.5,14.5 L -0.5,15.5 L 0.5,15.5 z
M 60.5,14.5 L 59.5,14.5 L 59.5,15.5 L 60.5,15.5 z
M 45.5,14.5 L 44.5,14.5 L 44.5,15.5 L 45.5,15.5 z
M 30.5,14.5 L 29.5,14.5 L 29.5,15.5 L 30.5,15.5 z
M 15.5,14.5 L 14.5,14.5 L 14.5,15.5 L 15.5,15.5 z
M -14.5,14.5 L -15.5,14.5 L -15.5,15.5 L -14.5,15.5 z
M -29.5,14.5 L -30.5,14.5 L -30.5,15.5 L -29.5,15.5 z
M -44.5,14.5 L -45.5,14.5 L -45.5,15.5 L -44.5,15.5 z
M -59.5,14.5 L -60.5,14.5 L -60.5,15.5 L -59.5,15.5 z
M 45.5,29.5 L 44.5,29.5 L 44.5,30.5 L 45.5,30.5 z
M 60.5,29.5 L 59.5,29.5 L 59.5,30.5 L 60.5,30.5 z
M 30.5,29.5 L 29.5,29.5 L 29.5,30.5 L 30.5,30.5 z
M 15.5,29.5 L 14.5,29.5 L 14.5,30.5 L 15.5,30.5 z
M -14.5,29.5 L -15.5,29.5 L -15.5,30.5 L -14.5,30.5 z
M -29.5,29.5 L -30.5,29.5 L -30.5,30.5 L -29.5,30.5 z
M -44.5,29.5 L -45.5,29.5 L -45.5,30.5 L -44.5,30.5 z
M -59.5,29.5 L -60.5,29.5 L -60.5,30.5 L -59.5,30.5 z
M 0.5,29.5 L -0.5,29.5 L -0.5,30.5 L 0.5,30.5 z
M 30.5,44.5 L 29.5,44.5 L 29.5,45.5 L 30.5,45.5 z
M 60.5,44.5 L 59.5,44.5 L 59.5,45.5 L 60.5,45.5 z
M 45.5,44.5 L 44.5,44.5 L 44.5,45.5 L 45.5,45.5 z
M 15.5,44.5 L 14.5,44.5 L 14.5,45.5 L 15.5,45.5 z
M 0.5,44.5 L -0.5,44.5 L -0.5,45.5 L 0.5,45.5 z
M -14.5,44.5 L -15.5,44.5 L -15.5,45.5 L -14.5,45.5 z
M -29.5,44.5 L -30.5,44.5 L -30.5,45.5 L -29.5,45.5 z
M -44.5,44.5 L -45.5,44.5 L -45.5,45.5 L -44.5,45.5 z
M -59.5,44.5 L -60.5,44.5 L -60.5,45.5 L -59.5,45.5 z
M -59.5,59.5 L -60.5,59.5 L -60.5,60.5 L -59.5,60.5 z
M -44.5,59.5 L -45.5,59.5 L -45.5,60.5 L -44.5,60.5 z
M -29.5,59.5 L -30.5,59.5 L -30.5,60.5 L -29.5,60.5 z
M -14.5,59.5 L -15.5,59.5 L -15.5,60.5 L -14.5,60.5 z
M 0.5,59.5 L -0.5,59.5 L -0.5,60.5 L 0.5,60.5 z
M 15.5,59.5 L 14.5,59.5 L 14.5,60.5 L 15.5,60.5 z
M 30.5,59.5 L 29.5,59.5 L 29.5,60.5 L 30.5,60.5 z
M 45.5,59.5 L 44.5,59.5 L 44.5,60.5 L 45.5,60.5 z
M 60.5,59.5 L 59.5,59.5 L 59.5,60.5 L 60.5,60.5 z
" stroke="black" fill="lightgray" stroke-width="0.5"/>
</svg>
