<?xml version="1.0" standalone="no"?>
<!DOCTYPE svg PUBLIC "-//W3C//DTD SVG 1.1//EN" "http://www.w3.org/Graphics/SVG/1.1/DTD/svg11.dtd">
<svg width="134mm" height="134mm" viewBox="-67 -67 134 134" xmlns="http://www.w3.org/2000/svg" version="1.1">
<title>OpenSCAD Model</title>
<path d="
M -38.5,-66.5 L -51.5,-66.5 L -51.5,-53.5 L -38.5,-53.5 z
M -48.7,-57.4 L -48.7,-62.6 L -41.3,-62.6 L -41.3,-57.4 z
M 66.5,-66.5 L 53.5,-66.5 L 53.5,-53.5 L 66.5,-53.5 z
M 56.3,-57.4 L 56.3,-62.6 L 63.7,-62.6 L 63.7,-57.4 z
M -23.5,-66.5 L -36.5,-66.5 L -36.5,-53.5 L -23.5,-53.5 z
M -33.7,-57.4 L -33.7,-62.6 L -26.3,-62.6 L -26.3,-57.4 z
M 36.5,-66.5 L 23.5,-66.5 L 23.5,-53.5 L 36.5,-53.5 z
M 26.3,-57.4 L 26.3,-62.6 L 33.7,-62.6 L 33.7,-57.4 z
M -8.5,-66.5 L -21.5,-66.5 L -21.5,-53.5 L -8.5,-53.5 z
M -18.7,-57.4 L -18.7,-62.6 L -11.3,-62.6 L -11.3,-57.4 z
M 51.5,-66.5 L 38.5,-66.5 L 38.5,-53.5 L 51.5,-53.5 z
M 41.3,-57.4 L 41.3,-62.6 L 48.7,-62.6 L 48.7,-57.4 z
M 21.5,-66.5 L 8.5,-66.5 L 8.5,-53.5 L 21.5,-53.5 z
M 11.3,-57.4 L 11.3,-62.6 L 18.7,-62.6 L 18.7,-57.4 z
M 6.5,-66.5 L -6.5,-66.5 L -6.5,-53.5 L 6.5,-53.5 z
M -3.7,-57.4 L -3.7,-62.6 L 3.7,-62.6 L 3.7,-57.4 z
M -53.5,-66.5 L -66.5,-66.5 L -66.5,-53.5 L -53.5,-53.5 z
M -63.7,-57.4 L -63.7,-62.6 L -56.3,-62.6 L -56.3,-57.4 z
M -53.5,-51.5 L -66.5,-51.5 L -66.5,-38.5 L -53.5,-38.5 z
M -63.7,-42.4 L -63.7,-47.6 L -56.3,-47.6 L -56.3,-42.4 z
M 6.5,-51.5 L -6.5,-51.5 L -6.5,-38.5 L 6.5,-38.5 z
M -3.7,-42.4 L -3.7,-47.6 L 3.7,-47.6 L 3.7,-42.4 z
M 21.5,-51.5 L 8.5,-51.5 L 8.5,-38.5 L 21.5,-38.5 z
M 11.3,-42.4 L 11.3,-47.6 L 18.7,-47.6 L 18.7,-42.4 z
M 51.5,-51.5 L 38.5,-51.5 L 38.5,-38.5 L 51.5,-38.5 z
M 41.3,-42.4 L 41.3,-47.6 L 48.7,-47.6 L 48.7,-42.4 z
M -8.5,-51.5 L -21.5,-51.5 L -21.5,-38.5 L -8.5,-38.5 z
M -18.7,-42.4 L -18.7,-47.6 L -11.3,-47.6 L -11.3,-42.4 z
M 36.5,-51.5 L 23.5,-51.5 L 23.5,-38.5 L 36.5,-38.5 z
M 26.3,-42.4 L 26.3,-47.6 L 33.7,-47.6 L 33.7,-42.4 z
M -23.5,-51.5 L -36.5,-51.5 L -36.5,-38.5 L -23.5,-38.5 z
M -33.7,-42.4 L -33.7,-47.6 L -26.3,-47.6 L -26.3,-42.4 z
M 66.5,-51.5 L 53.5,-51.5 L 53.5,-38.5 L 66.5,-38.5 z
M 56.3,-42.4 L 56.3,-47.6 L 63.7,-47.6 L 63.7,-42.4 z
M -38.5,-51.5 L -51.5,-51.5 L -51.5,-38.5 L -38.5,-38.5 z
M -48.7,-42.4 L -48.7,-47.6 L -41.3,-47.6 L -41.3,-42.4 z
M -8.5,-36.5 L -21.5,-36.5 L -21.5,-23.5 L -8.5,-23.5 z
M -18.7,-27.4 L -18.7,-32.6 L -11.3,-32.6 L -11.3,-27.4 z
M 36.5,-36.5 L 23.5,-36.5 L 23.5,-23.5 L 36.5,-23.5 z
M 26.3,-27.4 L 26.3,-32.6 L 33.7,-32.6 L 33.7,-27.4 z
M 21.5,-36.5 L 8.5,-36.5 L 8.5,-23.5 L 21.5,-23.5 z
M 11.3,-27.4 L 11.3,-32.6 L 18.7,-32.6 L 18.7,-27.4 z
M -53.5,-36.5 L -66.5,-36.5 L -66.5,-23.5 L -53.5,-23.5 z
M -63.7,-27.4 L -63.7,-32.6 L -56.3,-32.6 L -56.3,-27.4 z
M 6.5,-36.5 L -6.5,-36.5 L -6.5,-23.5 L 6.5,-23.5 z
M -3.7,-27.4 L -3.7,-32.6 L 3.7,-32.6 L 3.7,-27.4 z
M 51.5,-36.5 L 38.5,-36.5 L 38.5,-23.5 L 51.5,-23.5 z
M 41.3,-27.4 L 41.3,-32.6 L 48.7,-32.6 L 48.7,-27.4 z
M -38.5,-36.5 L -51.5,-36.5 L -51.5,-23.5 L -38.5,-23.5 z
M -48.7,-27.4 L -48.7,-32.6 L -41.3,-32.6 L -41.3,-27.4 z
M -23.5,-36.5 L -36.5,-36.5 L -36.5,-23.5 L -23.5,-23.5 z
M -33.7,-27.4 L -33.7,-32.6 L -26.3,-32.6 L -26.3,-27.4 z
M 66.5,-36.5 L 53.5,-36.5 L 53.5,-23.5 L 66.5,-23.5 z
M 56.3,-27.4 L 56.3,-32.6 L 63.7,-32.6 L 63.7,-27.4 z
M 6.5,-21.5 L -6.5,-21.5 L -6.5,-8.5 L 6.5,-8.5 z
M -3.7,-12.4 L -3.7,-17.6 L 3.7,-17.6 L 3.7,-12.4 z
M -53.5,-21.5 L -66.5,-21.5 L -66.5,-8.5 L -53.5,-8.5 z
M -63.7,-12.4 L -63.7,-17.6 L -56.3,-17.6 L -56.3,-12.4 z
M 21.5,-21.5 L 8.5,-21.5 L 8.5,-8.5 L 21.5,-8.5 z
M 11.3,-12.4 L 11.3,-17.6 L 18.7,-17.6 L 18.7,-12.4 z
M 51.5,-21.5 L 38.5,-21.5 L 38.5,-8.5 L 51.5,-8.5 z
M 41.3,-12.4 L 41.3,-17.6 L 48.7,-17.6 L 48.7,-12.4 z
M -8.5,-21.5 L -21.5,-21.5 L -21.5,-8.5 L -8.5,-8.5 z
M -18.7,-12.4 L -18.7,-17.6 L -11.3,-17.6 L -11.3,-12.4 z
M 36.5,-21.5 L 23.5,-21.5 L 23.5,-8.5 L 36.5,-8.5 z
M 26.3,-12.4 L 26.3,-17.6 L 33.7,-17.6 L 33.7,-12.4 z
M -23.5,-21.5 L -36.5,-21.5 L -36.5,-8.5 L -23.5,-8.5 z
M -33.7,-12.4 L -33.7,-17.6 L -26.3,-17.6 L -26.3,-12.4 z
M 66.5,-21.5 L 53.5,-21.5 L 53.5,-8.5 L 66.5,-8.5 z
M 56.3,-12.4 L 56.3,-17.6 L 63.7,-17.6 L 63.7,-12.4 z
M -38.5,-21.5 L -51.5,-21.5 L -51.5,-8.5 L -38.5,-8.5 z
M -48.7,-12.4 L -48.7,-17.6 L -41.3,-17.6 L -41.3,-12.4 z
M -23.5,-6.5 L -36.5,-6.5 L -36.5,6.5 L -23.5,6.5 z
M -33.7,2.59999 L -33.7,-2.59999 L -26.3,-2.59999 L -26.3,2.59999 z
M -53.5,-6.5 L -66.5,-6.5 L -66.5,6.5 L -53.5,6.5 z
M -63.7,2.59999 L -63.7,-2.59999 L -56.3,-2.59999 L -56.3,2.59999 z
M 6.5,-6.5 L -6.5,-6.5 L -6.5,6.5 L 6.5,6.5 z
M -3.7,2.59999 L -3.7,-2.59999 L 3.7,-2.59999 L 3.7,2.59999 z
M 51.5,-6.5 L 38.5,-6.5 L 38.5,6.5 L 51.5,6.5 z
M 41.3,2.59999 L 41.3,-2.59999 L 48.7,-2.59999 L 48.7,2.59999 z
M 21.5,-6.5 L 8.5,-6.5 L 8.5,6.5 L 21.5,6.5 z
M 11.3,2.59999 L 11.3,-2.59999 L 18.7,-2.59999 L 18.7,2.59999 z
M -8.5,-6.5 L -21.5,-6.5 L -21.5,6.5 L -8.5,6.5 z
M -18.7,2.59999 L -18.7,-2.59999 L -11.3,-2.59999 L -11.3,2.59999 z
M 36.5,-6.5 L 23.5,-6.5 L 23.5,6.5 L 36.5,6.5 z
M 26.3,2.59999 L 26.3,-2.59999 L 33.7,-2.59999 L 33.7,2.59999 z
M 66.5,-6.5 L 53.5,-6.5 L 53.5,6.5 L 66.5,6.5 z
M 56.3,2.59999 L 56.3,-2.59999 L 63.7,-2.59999 L 63.7,2.59999 z
M -38.5,-6.5 L -51.5,-6.5 L -51.5,6.5 L -38.5,6.5 z
M -48.7,2.59999 L -48.7,-2.59999 L -41.3,-2.59999 L -41.3,2.59999 z
M -53.5,8.5 L -66.5,8.5 L -66.5,21.5 L -53.5,21.5 z
M -63.7,17.6 L -63.7,12.4 L -56.3,12.4 L -56.3,17.6 z
M 36.5,8.5 L 23.5,8.5 L 23.5,21.5 L 36.5,21.5 z
M 26.3,17.6 L 26.3,12.4 L 33.7,12.4 L 33.7,17.6 z
M 21.5,8.5 L 8.5,8.5 L 8.5,21.5 L 21.5,21.5 z
M 11.3,17.6 L 11.3,12.4 L 18.7,12.4 L 18.7,17.6 z
M 6.5,8.5 L -6.5,8.5 L -6.5,21.5 L 6.5,21.5 z
M -3.7,17.6 L -3.7,12.4 L 3.7,12.4 L 3.7,17.6 z
M 51.5,8.5 L 38.5,8.5 L 38.5,21.5 L 51.5,21.5 z
M 41.3,17.6 L 41.3,12.4 L 48.7,12.4 L 48.7,17.6 z
M -8.5,8.5 L -21.5,8.5 L -21.5,21.5 L -8.5,21.5 z
M -18.7,17.6 L -18.7,12.4 L -11.3,12.4 L -11.3,17.6 z
M 66.5,8.5 L 53.5,8.5 L 53.5,21.5 L 66.5,21.5 z
M 56.3,17.6 L 56.3,12.4 L 63.7,12.4 L 63.7,17.6 z
M -38.5,8.5 L -51.5,8.5 L -51.5,21.5 L -38.5,21.5 z
M -48.7,17.6 L -48.7,12.4 L -41.3,12.4 L -41.3,17.6 z
M -23.5,8.5 L -36.5,8.5 L -36.5,21.5 L -23.5,21.5 z
M -33.7,17.6 L -33.7,12.4 L -26.3,12.4 L -26.3,17.6 z
M -53.5,23.5 L -66.5,23.5 L -66.5,36.5 L -53.5,36.5 z
M -63.7,32.6 L -63.7,27.4 L -56.3,27.4 L -56.3,32.6 z
M 6.5,23.5 L -6.5,23.5 L -6.5,36.5 L 6.5,36.5 z
M -3.7,32.6 L -3.7,27.4 L 3.7,27.4 L 3.7,32.6 z
M 51.5,23.5 L 38.5,23.5 L 38.5,36.5 L 51.5,36.5 z
M 41.3,32.6 L 41.3,27.4 L 48.7,27.4 L 48.7,32.6 z
M 21.5,23.5 L 8.5,23.5 L 8.5,36.5 L 21.5,36.5 z
M 11.3,32.6 L 11.3,27.4 L 18.7,27.4 L 18.7,32.6 z
M -8.5,23.5 L -21.5,23.5 L -21.5,36.5 L -8.5,36.5 z
M -18.7,32.6 L -18.7,27.4 L -11.3,27.4 L -11.3,32.6 z
M -23.5,23.5 L -36.5,23.5 L -36.5,36.5 L -23.5,36.5 z
M -33.7,32.6 L -33.7,27.4 L -26.3,27.4 L -26.3,32.6 z
M 36.5,23.5 L 23.5,23.5 L 23.5,36.5 L 36.5,36.5 z
M 26.3,32.6 L 26.3,27.4 L 33.7,27.4 L 33.7,32.6 z
M 66.5,23.5 L 53.5,23.5 L 53.5,36.5 L 66.5,36.5 z
M 56.3,32.6 L 56.3,27.4 L 63.7,27.4 L 63.7,32.6 z
M -38.5,23.5 L -51.5,23.5 L -51.5,36.5 L -38.5,36.5 z
M -48.7,32.6 L -48.7,27.4 L -41.3,27.4 L -41.3,32.6 z
M -53.5,38.5 L -66.5,38.5 L -66.5,51.5 L -53.5,51.5 z
M -63.7,47.6 L -63.7,42.4 L -56.3,42.4 L -56.3,47.6 z
M 6.5,38.5 L -6.5,38.5 L -6.5,51.5 L 6.5,51.5 z
M -3.7,47.6 L -3.7,42.4 L 3.7,42.4 L 3.7,47.6 z
M 51.5,38.5 L 38.5,38.5 L 38.5,51.5 L 51.5,51.5 z
M 41.3,47.6 L 41.3,42.4 L 48.7,42.4 L 48.7,47.6 z
M 21.5,38.5 L 8.5,38.5 L 8.5,51.5 L 21.5,51.5 z
M 11.3,47.6 L 11.3,42.4 L 18.7,42.4 L 18.7,47.6 z
M -8.5,38.5 L -21.5,38.5 L -21.5,51.5 L -8.5,51.5 z
M -18.7,47.6 L -18.7,42.4 L -11.3,42.4 L -11.3,47.6 z
M -23.5,38.5 L -36.5,38.5 L -36.5,51.5 L -23.5,51.5 z
M -33.7,47.6 L -33.7,42.4 L -26.3,42.4 L -26.3,47.6 z
M 36.5,38.5 L 23.5,38.5 L 23.5,51.5 L 36.5,51.5 z
M 26.3,47.6 L 26.3,42.4 L 33.7,42.4 L 33.7,47.6 z
M 66.5,38.5 L 53.5,38.5 L 53.5,51.5 L 66.5,51.5 z
M 56.3,47.6 L 56.3,42.4 L 63.7,42.4 L 63.7,47.6 z
M -38.5,38.5 L -51.5,38.5 L -51.5,51.5 L -38.5,51.5 z
M -48.7,47.6 L -48.7,42.4 L -41.3,42.4 L -41.3,47.6 z
M -8.5,53.5 L -21.5,53.5 L -21.5,66.5 L -8.5,66.5 z
M -18.7,62.6 L -18.7,57.4 L -11.3,57.4 L -11.3,62.6 z
M 36.5,53.5 L 23.5,53.5 L 23.5,66.5 L 36.5,66.5 z
M 26.3,62.6 L 26.3,57.4 L 33.7,57.4 L 33.7,62.6 z
M 21.5,53.5 L 8.5,53.5 L 8.5,66.5 L 21.5,66.5 z
M 11.3,62.6 L 11.3,57.4 L 18.7,57.4 L 18.7,62.6 z
M -53.5,53.5 L -66.5,53.5 L -66.5,66.5 L -53.5,66.5 z
M -63.7,62.6 L -63.7,57.4 L -56.3,57.4 L -56.3,62.6 z
M 6.5,53.5 L -6.5,53.5 L -6.5,66.5 L 6.5,66.5 z
M -3.7,62.6 L -3.7,57.4 L 3.7,57.4 L 3.7,62.6 z
M 51.5,53.5 L 38.5,53.5 L 38.5,66.5 L 51.5,66.5 z
M 41.3,62.6 L 41.3,57.4 L 48.7,57.4 L 48.7,62.6 z
M -23.5,53.5 L -36.5,53.5 L -36.5,66.5 L -23.5,66.5 z
M -33.7,62.6 L -33.7,57.4 L -26.3,57.4 L -26.3,62.6 z
M 66.5,53.5 L 53.5,53.5 L 53.5,66.5 L 66.5,66.5 z
M 56.3,62.6 L 56.3,57.4 L 63.7,57.4 L 63.7,62.6 z
M -38.5,53.5 L -51.5,53.5 L -51.5,66.5 L -38.5,66.5 z
M -48.7,62.6 L -48.7,57.4 L -41.3,57.4 L -41.3,62.6 z
" stroke="black" fill="lightgray" stroke-width="0.5"/>
</svg>
