<?xml version="1.0" standalone="no"?>
<!DOCTYPE svg PUBLIC "-//W3C//DTD SVG 1.1//EN" "http://www.w3.org/Graphics/SVG/1.1/DTD/svg11.dtd">
<svg width="130mm" height="131mm" viewBox="-65 -65 130 131" xmlns="http://www.w3.org/2000/svg" version="1.1">
<title>OpenSCAD Model</title>
<path d="
M 60.6253,-54.9266 L 61.094,-55.0125 L 61.5318,-55.1556 L 61.9387,-55.356 L 62.3084,-55.6087 L 62.6335,-55.9087
 L 62.9139,-56.2562 L 63.1497,-56.651 L 63.3365,-57.0862 L 63.47,-57.554 L 63.55,-58.0542 L 63.5767,-58.587
 L 63.5767,-60.31 L 60.1587,-60.31 L 60.1587,-58.987 L 62.1597,-58.987 L 62.1597,-58.56 L 62.144,-58.2128
 L 62.097,-57.8902 L 62.0185,-57.5923 L 61.9087,-57.319 L 61.7701,-57.0734 L 61.6052,-56.8587 L 61.4141,-56.6749
 L 61.1967,-56.522 L 60.9569,-56.4021 L 60.6985,-56.3165 L 60.4214,-56.2651 L 60.1257,-56.248 L 59.8259,-56.2645
 L 59.5445,-56.314 L 59.2814,-56.3965 L 59.0367,-56.512 L 58.8145,-56.6578 L 58.619,-56.8302 L 58.45,-57.0293
 L 58.3077,-57.255 L 58.1949,-57.5039 L 58.1142,-57.7727 L 58.0659,-58.0614 L 58.0497,-58.37 L 58.0497,-61.279
 L 58.0654,-61.6176 L 58.1125,-61.9345 L 58.1909,-62.2296 L 58.3007,-62.503 L 58.4394,-62.7513 L 58.6042,-62.9702
 L 58.7953,-63.1598 L 59.0127,-63.32 L 59.253,-63.4477 L 59.5117,-63.539 L 59.789,-63.5938 L 60.0847,-63.612
 L 60.293,-63.6003 L 60.498,-63.5652 L 60.6995,-63.5068 L 60.8977,-63.425 L 61.0883,-63.3214 L 61.266,-63.1965
 L 61.4308,-63.0504 L 61.5827,-62.883 L 61.7181,-62.6963 L 61.8322,-62.4922 L 61.9251,-62.2708 L 61.9967,-62.032
 L 63.4957,-62.032 L 63.3912,-62.4563 L 63.2477,-62.8542 L 63.0652,-63.2258 L 62.8437,-63.571 L 62.5886,-63.8846
 L 62.3042,-64.1605 L 61.9906,-64.3986 L 61.6477,-64.599 L 61.2819,-64.7578 L 60.8995,-64.8712 L 60.5004,-64.9393
 L 60.0847,-64.962 L 59.5847,-64.9334 L 59.1157,-64.8475 L 58.6777,-64.7044 L 58.2707,-64.504 L 57.9014,-64.2515
 L 57.5765,-63.952 L 57.2959,-63.6055 L 57.0597,-63.212 L 56.8729,-62.7784 L 56.7395,-62.3117 L 56.6594,-61.8119
 L 56.6327,-61.279 L 56.6327,-58.37 L 56.6599,-57.8671 L 56.7412,-57.3955 L 56.8769,-56.9551 L 57.0667,-56.546
 L 57.306,-56.1752 L 57.5897,-55.8487 L 57.918,-55.5667 L 58.2907,-55.329 L 58.7017,-55.1404 L 59.1445,-55.0057
 L 59.6192,-54.9249 L 60.1257,-54.898 z
M 18.5008,-56.316 L 13.5508,-56.316 L 13.5508,-59.238 L 17.7548,-59.238 L 17.7548,-60.554 L 13.5508,-60.554
 L 13.5508,-63.544 L 18.5008,-63.544 L 18.5008,-64.86 L 12.1678,-64.86 L 12.1678,-55 L 18.5008,-55
 z
M 42.8415,-62.261 L 47.4875,-55.007 L 48.7555,-55.007 L 48.7555,-64.86 L 47.3855,-64.86 L 47.3855,-57.4957
 L 42.7265,-64.86 L 41.4725,-64.86 L 41.4725,-55.007 L 42.8415,-55.007 z
M -32.1585,-62.261 L -27.5125,-55.007 L -26.2445,-55.007 L -26.2445,-64.86 L -27.6145,-64.86 L -27.6145,-57.4957
 L -32.2735,-64.86 L -33.5275,-64.86 L -33.5275,-55.007 L -32.1585,-55.007 z
M 28.001,-59.198 L 32.219,-59.198 L 32.219,-55 L 33.602,-55 L 33.602,-64.86 L 32.219,-64.86
 L 32.219,-60.513 L 28.001,-60.513 L 28.001,-64.86 L 26.618,-64.86 L 26.618,-55 L 28.001,-55
 z
M -61.1875,-59.15 L -57.1115,-59.15 L -57.1115,-60.466 L -61.1875,-60.466 L -61.1875,-63.544 L -56.3665,-63.544
 L -56.3665,-64.86 L -62.5705,-64.86 L -62.5705,-55 L -61.1875,-55 z
M 3.25502,-56.316 L -1.17296,-56.316 L 3.11903,-63.666 L 3.11903,-64.86 L -2.75296,-64.86 L -2.75296,-63.544
 L 1.45103,-63.544 L -2.87495,-56.194 L -2.87495,-55 L 3.25502,-55 z
M -16.1875,-59.15 L -12.1115,-59.15 L -12.1115,-60.466 L -16.1875,-60.466 L -16.1875,-63.544 L -11.3665,-63.544
 L -11.3665,-64.86 L -17.5705,-64.86 L -17.5705,-55 L -16.1875,-55 z
M -42.8119,-64.8207 L -44.1949,-64.8207 L -44.1949,-63.6936 L -42.8119,-63.6936 z
M -45.5918,-64.8207 L -46.9758,-64.8207 L -46.9758,-63.6936 L -45.5918,-63.6936 z
M -44.3713,-54.9388 L -43.8816,-55.0047 L -43.4318,-55.1144 L -43.0219,-55.2681 L -42.6552,-55.4637 L -42.3354,-55.6992
 L -42.0622,-55.9747 L -41.8359,-56.2901 L -41.6578,-56.643 L -41.5306,-57.0302 L -41.4543,-57.4515 L -41.4288,-57.9071
 L -41.4288,-63.0359 L -42.8119,-63.0359 L -42.8119,-57.868 L -42.846,-57.4536 L -42.9483,-57.0888 L -43.119,-56.7738
 L -43.3578,-56.5086 L -43.659,-56.2982 L -44.0166,-56.1479 L -44.4305,-56.0578 L -44.9008,-56.0277 L -45.3679,-56.0578
 L -45.7791,-56.1479 L -46.1344,-56.2982 L -46.4338,-56.5086 L -46.671,-56.7738 L -46.8403,-57.0888 L -46.942,-57.4536
 L -46.9758,-57.868 L -46.9758,-63.0359 L -48.3588,-63.0359 L -48.3588,-57.9071 L -48.3334,-57.4515 L -48.2571,-57.0302
 L -48.1299,-56.643 L -47.9518,-56.2901 L -47.7253,-55.9747 L -47.4526,-55.6992 L -47.1338,-55.4637 L -46.7688,-55.2681
 L -46.3607,-55.1144 L -45.9133,-55.0047 L -45.4267,-54.9388 L -44.9008,-54.9169 z
M 30.6047,-39.9262 L 31.0743,-40.0107 L 31.5132,-40.1517 L 31.9216,-40.349 L 32.2928,-40.5978 L 32.6196,-40.8932
 L 32.9018,-41.2353 L 33.1396,-41.624 L 33.3281,-42.0523 L 33.4628,-42.5132 L 33.5436,-43.0068 L 33.5706,-43.533
 L 33.5706,-46.327 L 33.5436,-46.8532 L 33.4628,-47.3467 L 33.3281,-47.8077 L 33.1396,-48.236 L 32.9018,-48.6247
 L 32.6196,-48.9667 L 32.2928,-49.2622 L 31.9216,-49.511 L 31.5132,-49.7083 L 31.0743,-49.8492 L 30.6047,-49.9338
 L 30.1046,-49.962 L 29.6048,-49.9338 L 29.1353,-49.8492 L 28.6963,-49.7083 L 28.2876,-49.511 L 27.9163,-49.2622
 L 27.5896,-48.9667 L 27.3073,-48.6247 L 27.0696,-48.236 L 26.8814,-47.8077 L 26.7471,-47.3467 L 26.6664,-46.8532
 L 26.6396,-46.327 L 26.6396,-43.533 L 26.6664,-43.0068 L 26.7471,-42.5132 L 26.8814,-42.0523 L 27.0696,-41.624
 L 27.3073,-41.2353 L 27.5896,-40.8932 L 27.9163,-40.5978 L 28.2876,-40.349 L 28.6963,-40.1517 L 29.1353,-40.0107
 L 29.6048,-39.9262 L 30.1046,-39.898 z
M 29.8086,-41.2782 L 29.5308,-41.3297 L 29.2711,-41.4157 L 29.0296,-41.536 L 28.8106,-41.6879 L 28.6178,-41.8685
 L 28.4511,-42.0779 L 28.3106,-42.316 L 28.1994,-42.5785 L 28.1201,-42.861 L 28.0724,-43.1635 L 28.0566,-43.486
 L 28.0566,-46.374 L 28.0724,-46.6965 L 28.1201,-46.999 L 28.1994,-47.2815 L 28.3106,-47.544 L 28.4511,-47.7821
 L 28.6178,-47.9915 L 28.8106,-48.1721 L 29.0296,-48.324 L 29.2711,-48.4443 L 29.5308,-48.5302 L 29.8086,-48.5818
 L 30.1046,-48.599 L 30.4009,-48.5818 L 30.6788,-48.5302 L 30.9384,-48.4443 L 31.1796,-48.324 L 31.3989,-48.1721
 L 31.5918,-47.9915 L 31.7584,-47.7821 L 31.8985,-47.544 L 32.0097,-47.2815 L 32.0891,-46.999 L 32.1367,-46.6965
 L 32.1526,-46.374 L 32.1526,-43.486 L 32.1367,-43.1635 L 32.0891,-42.861 L 32.0097,-42.5785 L 31.8985,-42.316
 L 31.7584,-42.0779 L 31.5918,-41.8685 L 31.3989,-41.6879 L 31.1796,-41.536 L 30.9384,-41.4157 L 30.6788,-41.3297
 L 30.4009,-41.2782 L 30.1046,-41.261 z
M -29.3343,-39.9207 L -28.9383,-39.9888 L -28.5583,-40.1022 L -28.1943,-40.261 L -27.8528,-40.4613 L -27.5401,-40.6992
 L -27.2563,-40.9748 L -27.0013,-41.288 L -26.7798,-41.6336 L -26.5973,-42.0055 L -26.4538,-42.4036 L -26.3493,-42.828
 L -27.7663,-42.828 L -27.8416,-42.5889 L -27.9386,-42.3667 L -28.0571,-42.1614 L -28.1973,-41.973 L -28.3547,-41.8045
 L -28.5248,-41.658 L -28.7077,-41.5335 L -28.9033,-41.431 L -29.1071,-41.3509 L -29.3156,-41.2937 L -29.5286,-41.2594
 L -29.7463,-41.248 L -30.039,-41.266 L -30.313,-41.32 L -30.5685,-41.41 L -30.8053,-41.536 L -31.0196,-41.6951
 L -31.2086,-41.8842 L -31.3721,-42.1036 L -31.5103,-42.353 L -31.6201,-42.6277 L -31.6985,-42.9227 L -31.7456,-43.2382
 L -31.7613,-43.574 L -31.7613,-46.279 L -31.7456,-46.6176 L -31.6985,-46.9345 L -31.6201,-47.2296 L -31.5103,-47.503
 L -31.3721,-47.7513 L -31.2086,-47.9702 L -31.0196,-48.1598 L -30.8053,-48.32 L -30.5685,-48.4477 L -30.313,-48.539
 L -30.039,-48.5938 L -29.7463,-48.612 L -29.5311,-48.5997 L -29.3193,-48.5627 L -29.1111,-48.5012 L -28.9063,-48.415
 L -28.7094,-48.3065 L -28.5256,-48.1772 L -28.3549,-48.0271 L -28.1973,-47.856 L -28.0571,-47.6684 L -27.9386,-47.4685
 L -27.8416,-47.2564 L -27.7663,-47.032 L -26.3493,-47.032 L -26.4536,-47.4563 L -26.5963,-47.8542 L -26.7776,-48.2258
 L -26.9973,-48.571 L -27.2509,-48.8846 L -27.5338,-49.1605 L -27.8459,-49.3986 L -28.1873,-49.599 L -28.5518,-49.7578
 L -28.9331,-49.8712 L -29.3313,-49.9393 L -29.7463,-49.962 L -30.2429,-49.9334 L -30.7086,-49.8475 L -31.1434,-49.7044
 L -31.5473,-49.504 L -31.9136,-49.2515 L -32.2363,-48.952 L -32.5155,-48.6055 L -32.7513,-48.212 L -32.9381,-47.7784
 L -33.0715,-47.3117 L -33.1516,-46.8119 L -33.1783,-46.279 L -33.1783,-43.574 L -33.1516,-43.0411 L -33.0715,-42.5412
 L -32.9381,-42.0746 L -32.7513,-41.641 L -32.5155,-41.2477 L -32.2363,-40.9017 L -31.9136,-40.6032 L -31.5473,-40.352
 L -31.1434,-40.1534 L -30.7086,-40.0115 L -30.2429,-39.9264 L -29.7463,-39.898 z
M 43.1831,-44.17 L 45.2435,-44.17 L 47.3471,-40 L 48.9881,-40 L 46.7117,-44.3199 L 46.871,-44.3686
 L 47.2071,-44.523 L 47.513,-44.7179 L 47.7828,-44.9495 L 48.0165,-45.2179 L 48.2141,-45.523 L 48.3716,-45.8595
 L 48.4841,-46.221 L 48.5516,-46.6075 L 48.5741,-47.019 L 48.5518,-47.43 L 48.4851,-47.816 L 48.3738,-48.177
 L 48.2181,-48.513 L 48.0219,-48.8186 L 47.7891,-49.0872 L 47.5198,-49.3191 L 47.2141,-49.514 L 46.8776,-49.6684
 L 46.5151,-49.7787 L 46.1266,-49.8449 L 45.7121,-49.867 L 41.8001,-49.867 L 41.8001,-40 L 43.1831,-40
 z
M 43.1831,-45.486 L 43.1831,-48.551 L 45.7671,-48.551 L 45.9609,-48.5391 L 46.1423,-48.5035 L 46.3114,-48.4441
 L 46.4681,-48.361 L 46.6106,-48.2561 L 46.7361,-48.1312 L 46.8446,-47.9866 L 46.9361,-47.822 L 47.0092,-47.6409
 L 47.0613,-47.4467 L 47.0927,-47.2394 L 47.1031,-47.019 L 47.0927,-46.7981 L 47.0613,-46.5905 L 47.0092,-46.3961
 L 46.9361,-46.215 L 46.8444,-46.0504 L 46.7354,-45.9057 L 46.6089,-45.7809 L 46.4651,-45.676 L 46.3071,-45.5929
 L 46.1381,-45.5335 L 45.9581,-45.4979 L 45.7671,-45.486 z
M 58.2529,-42.8613 L 59.8612,-44.8164 L 62.7289,-40 L 64.4239,-40 L 60.8434,-46.0104 L 64.0099,-49.86
 L 62.3079,-49.86 L 58.2529,-44.7048 L 58.2529,-49.86 L 56.8699,-49.86 L 56.8699,-40 L 58.2529,-40
 z
M -62.1585,-47.261 L -57.5125,-40.007 L -56.2445,-40.007 L -56.2445,-49.86 L -57.6145,-49.86 L -57.6145,-42.4957
 L -62.2735,-49.86 L -63.5275,-49.86 L -63.5275,-40.007 L -62.1585,-40.007 z
M -46.8849,-42.163 L -42.9053,-42.163 L -42.1621,-40 L -40.6701,-40 L -44.3051,-49.86 L -45.4851,-49.86
 L -49.1201,-40 L -47.6281,-40 z
M -46.4327,-43.479 L -44.8951,-47.954 L -43.3575,-43.479 z
M -16.999,-44.198 L -12.781,-44.198 L -12.781,-40 L -11.398,-40 L -11.398,-49.86 L -12.781,-49.86
 L -12.781,-45.513 L -16.999,-45.513 L -16.999,-49.86 L -18.382,-49.86 L -18.382,-40 L -16.999,-40
 z
M 18.9675,-49.86 L 17.4615,-49.86 L 15.0955,-42.129 L 12.7285,-49.86 L 11.2225,-49.86 L 14.4375,-40
 L 15.7525,-40 z
M -0.23761,-39.9218 L 0.19725,-39.993 L 0.596375,-40.1117 L 0.959747,-40.278 L 1.28493,-40.4895 L 1.5685,-40.7442
 L 1.81044,-41.0421 L 2.01074,-41.383 L 2.16824,-41.7646 L 2.28075,-42.1835 L 2.34825,-42.6396 L 2.37074,-43.133
 L 2.37074,-49.86 L 0.987747,-49.86 L 0.987747,-43.14 L 0.95993,-42.7109 L 0.876495,-42.3327 L 0.737427,-42.0054
 L 0.54274,-41.729 L 0.298065,-41.5094 L 0.00799561,-41.3525 L -0.327423,-41.2584 L -0.708237,-41.227 L -0.93811,-41.2384
 L -1.15373,-41.2727 L -1.35512,-41.3299 L -1.54224,-41.41 L -1.71118,-41.5112 L -1.85899,-41.631 L -1.98567,-41.7692
 L -2.09123,-41.926 L -3.22424,-41.112 L -3.00198,-40.8401 L -2.74924,-40.6002 L -2.46599,-40.3925 L -2.15224,-40.217
 L -1.81523,-40.0774 L -1.46223,-39.9778 L -1.09323,-39.9179 L -0.708237,-39.898 z
M 60.5602,-24.919 L 61.0702,-24.982 L 61.5382,-25.087 L 61.9642,-25.234 L 62.3457,-25.421 L 62.6792,-25.646
 L 62.9647,-25.909 L 63.2022,-26.21 L 63.389,-26.5468 L 63.5225,-26.9162 L 63.6025,-27.3183 L 63.6292,-27.753
 L 63.6292,-27.767 L 63.604,-28.2259 L 63.5282,-28.6335 L 63.402,-28.9899 L 63.2252,-29.295 L 63.0114,-29.5557
 L 62.773,-29.7777 L 62.5099,-29.9612 L 62.2222,-30.106 L 61.9038,-30.2272 L 61.5485,-30.34 L 61.1563,-30.4442
 L 60.7272,-30.54 L 60.7098,-30.5435 L 60.6915,-30.547 L 60.6723,-30.5505 L 60.5782,-30.567 L 60.5649,-30.5702
 L 60.552,-30.573 L 60.5394,-30.5752 L 60.5272,-30.577 L 60.515,-30.5792 L 60.5025,-30.5817 L 60.4895,-30.5847
 L 60.4762,-30.588 L 60.1142,-30.6619 L 59.794,-30.7345 L 59.5157,-30.8059 L 59.2792,-30.876 L 59.0727,-30.955
 L 58.884,-31.053 L 58.7132,-31.17 L 58.5602,-31.306 L 58.4342,-31.4656 L 58.3442,-31.6522 L 58.2902,-31.8661
 L 58.2722,-32.107 L 58.2722,-32.114 L 58.3072,-32.4625 L 58.412,-32.769 L 58.5867,-33.0335 L 58.8312,-33.256
 L 59.1394,-33.4327 L 59.5037,-33.559 L 59.9243,-33.6347 L 60.4012,-33.66 L 60.6825,-33.647 L 60.9632,-33.6082
 L 61.2435,-33.5435 L 61.5232,-33.453 L 61.8034,-33.3365 L 62.084,-33.1942 L 62.3649,-33.0261 L 62.6462,-32.832
 L 63.4332,-33.931 L 63.1911,-34.0966 L 62.947,-34.2472 L 62.7007,-34.3831 L 62.4522,-34.504 L 62.2023,-34.6105
 L 61.9507,-34.703 L 61.6973,-34.7815 L 61.4422,-34.846 L 61.1852,-34.8967 L 60.926,-34.933 L 60.6646,-34.9547
 L 60.4012,-34.962 L 59.8686,-34.9408 L 59.3757,-34.8772 L 58.9226,-34.7713 L 58.5092,-34.623 L 58.1397,-34.4342
 L 57.817,-34.2067 L 57.5412,-33.9407 L 57.3122,-33.636 L 57.1329,-33.2953 L 57.0047,-32.9212 L 56.9279,-32.5138
 L 56.9022,-32.073 L 56.9022,-32.066 L 56.9298,-31.5738 L 57.0125,-31.1412 L 57.1503,-30.7683 L 57.3432,-30.455
 L 57.5749,-30.194 L 57.829,-29.977 L 58.1054,-29.804 L 58.4042,-29.675 L 58.7378,-29.5712 L 59.1175,-29.473
 L 59.5433,-29.3802 L 60.0152,-29.293 L 60.1172,-29.272 L 60.1274,-29.2689 L 60.138,-29.2667 L 60.1489,-29.2654
 L 60.1602,-29.265 L 60.172,-29.2646 L 60.1835,-29.2635 L 60.1945,-29.2616 L 60.2052,-29.259 L 60.5253,-29.1965
 L 60.8145,-29.131 L 61.0728,-29.0625 L 61.3002,-28.991 L 61.5024,-28.9082 L 61.685,-28.806 L 61.8479,-28.6842
 L 61.9912,-28.543 L 62.1085,-28.3787 L 62.1922,-28.1877 L 62.2425,-27.9702 L 62.2592,-27.726 L 62.2592,-27.719
 L 62.2223,-27.377 L 62.1117,-27.076 L 61.9273,-26.816 L 61.6692,-26.597 L 61.3441,-26.4233 L 60.959,-26.2992
 L 60.5136,-26.2248 L 60.0082,-26.2 L 59.6189,-26.2152 L 59.2437,-26.261 L 58.8829,-26.3372 L 58.5362,-26.444
 L 58.2045,-26.5817 L 57.8872,-26.7497 L 57.5845,-26.9482 L 57.2962,-27.177 L 56.4342,-26.119 L 56.6796,-25.924
 L 56.9337,-25.746 L 57.1966,-25.585 L 57.4682,-25.441 L 57.75,-25.3139 L 58.0422,-25.2037 L 58.345,-25.1104
 L 58.6582,-25.034 L 58.9819,-24.9745 L 59.3147,-24.932 L 59.6568,-24.9065 L 60.0082,-24.898 z
M -13.7319,-25.0207 L -13.3354,-25.083 L -12.9659,-25.1867 L -12.6234,-25.332 L -12.3136,-25.5158 L -12.0419,-25.7342
 L -11.8086,-25.9873 L -11.6134,-26.275 L -11.459,-26.5919 L -11.3487,-26.9325 L -11.2825,-27.2969 L -11.2605,-27.685
 L -11.2605,-27.706 L -11.2749,-27.9924 L -11.3182,-28.2687 L -11.3904,-28.5349 L -11.4915,-28.791 L -11.6192,-29.0316
 L -11.7724,-29.2512 L -11.9512,-29.4501 L -12.1555,-29.628 L -12.3826,-29.7805 L -12.6302,-29.902 L -12.8981,-29.9925
 L -13.1864,-30.052 L -12.9001,-30.1194 L -12.638,-30.2125 L -12.4001,-30.3314 L -12.1864,-30.476 L -11.9975,-30.6416
 L -11.8344,-30.8232 L -11.6974,-31.0211 L -11.5865,-31.235 L -11.5003,-31.4614 L -11.4387,-31.6957 L -11.4018,-31.9379
 L -11.3895,-32.188 L -11.4094,-32.5871 L -11.4692,-32.9575 L -11.5689,-33.2991 L -11.7085,-33.612 L -11.8879,-33.8935
 L -12.1082,-34.141 L -12.3694,-34.3545 L -12.6714,-34.534 L -13.013,-34.6766 L -13.3934,-34.7785 L -13.8129,-34.8396
 L -14.2715,-34.86 L -18.1564,-34.86 L -18.1564,-25 L -14.1555,-25 z
M -16.7804,-30.683 L -16.7804,-33.578 L -14.5224,-33.578 L -14.1156,-33.5551 L -13.763,-33.4865 L -13.4646,-33.3721
 L -13.2204,-33.212 L -13.0306,-33.0057 L -12.8949,-32.7527 L -12.8136,-32.4532 L -12.7865,-32.107 L -12.8108,-31.7761
 L -12.8839,-31.4882 L -13.0058,-31.2436 L -13.1765,-31.042 L -13.3946,-30.8849 L -13.6599,-30.7727 L -13.9726,-30.7054
 L -14.3324,-30.683 z
M -16.7804,-26.282 L -16.7804,-29.435 L -14.3324,-29.435 L -14.0541,-29.4229 L -13.802,-29.3865 L -13.5761,-29.3259
 L -13.3764,-29.241 L -13.2025,-29.1341 L -13.0535,-29.0065 L -12.9294,-28.8581 L -12.8304,-28.689 L -12.7548,-28.5005
 L -12.7007,-28.2942 L -12.6683,-28.0701 L -12.6575,-27.828 L -12.6575,-27.807 L -12.6876,-27.4648 L -12.778,-27.1632
 L -12.9286,-26.9023 L -13.1395,-26.682 L -13.4156,-26.507 L -13.763,-26.382 L -14.1816,-26.307 L -14.6714,-26.282
 z
M -2.71515,-31.6625 L -0.355148,-26.37 L 0.607834,-26.37 L 2.96783,-31.7947 L 2.96783,-25 L 4.31683,-25
 L 4.31683,-34.86 L 3.02184,-34.86 L 0.125839,-28.35 L -2.76915,-34.86 L -4.06415,-34.86 L -4.06415,-25
 L -2.71515,-25 z
M 42.8415,-32.261 L 47.4875,-25.007 L 48.7555,-25.007 L 48.7555,-34.86 L 47.3855,-34.86 L 47.3855,-27.4957
 L 42.7265,-34.86 L 41.4725,-34.86 L 41.4725,-25.007 L 42.8415,-25.007 z
M 18.5008,-26.316 L 13.5508,-26.316 L 13.5508,-29.238 L 17.7548,-29.238 L 17.7548,-30.554 L 13.5508,-30.554
 L 13.5508,-33.544 L 18.5008,-33.544 L 18.5008,-34.86 L 12.1678,-34.86 L 12.1678,-25 L 18.5008,-25
 z
M -26.3337,-26.316 L -31.2837,-26.316 L -31.2837,-34.86 L -32.6667,-34.86 L -32.6667,-25 L -26.3337,-25
 z
M 30.7363,-34.86 L 29.3533,-34.86 L 29.3533,-25 L 30.7363,-25 z
M -46.8849,-27.163 L -42.9053,-27.163 L -42.1621,-25 L -40.6701,-25 L -44.3051,-34.86 L -45.4851,-34.86
 L -49.1201,-25 L -47.6281,-25 z
M -46.4327,-28.479 L -44.8951,-32.954 L -43.3575,-28.479 z
M -61.999,-29.198 L -57.781,-29.198 L -57.781,-25 L -56.398,-25 L -56.398,-34.86 L -57.781,-34.86
 L -57.781,-30.513 L -61.999,-30.513 L -61.999,-34.86 L -63.382,-34.86 L -63.382,-25 L -61.999,-25
 z
M 28.1831,-14.17 L 30.2435,-14.17 L 32.3471,-10 L 33.9881,-10 L 31.7117,-14.3199 L 31.871,-14.3686
 L 32.2071,-14.523 L 32.513,-14.7179 L 32.7828,-14.9495 L 33.0165,-15.2179 L 33.2141,-15.523 L 33.3716,-15.8595
 L 33.4841,-16.221 L 33.5516,-16.6075 L 33.5741,-17.019 L 33.5518,-17.43 L 33.4851,-17.816 L 33.3738,-18.177
 L 33.2181,-18.513 L 33.0219,-18.8186 L 32.7891,-19.0872 L 32.5198,-19.3191 L 32.2141,-19.514 L 31.8776,-19.6684
 L 31.5151,-19.7787 L 31.1266,-19.8449 L 30.7121,-19.867 L 26.8001,-19.867 L 26.8001,-10 L 28.1831,-10
 z
M 28.1831,-15.486 L 28.1831,-18.551 L 30.7671,-18.551 L 30.9609,-18.5391 L 31.1423,-18.5035 L 31.3114,-18.4441
 L 31.4681,-18.361 L 31.6106,-18.2561 L 31.7361,-18.1312 L 31.8446,-17.9866 L 31.9361,-17.822 L 32.0092,-17.6409
 L 32.0613,-17.4467 L 32.0927,-17.2394 L 32.1031,-17.019 L 32.0927,-16.7981 L 32.0613,-16.5905 L 32.0092,-16.3961
 L 31.9361,-16.215 L 31.8444,-16.0504 L 31.7354,-15.9057 L 31.6089,-15.7809 L 31.4651,-15.676 L 31.3071,-15.5929
 L 31.1381,-15.5335 L 30.9581,-15.4979 L 30.7671,-15.486 z
M 60.7363,-19.86 L 59.3533,-19.86 L 59.3533,-10 L 60.7363,-10 z
M -56.745,-11.316 L -61.173,-11.316 L -56.881,-18.666 L -56.881,-19.86 L -62.753,-19.86 L -62.753,-18.544
 L -58.549,-18.544 L -62.875,-11.194 L -62.875,-10 L -56.745,-10 z
M 48.5008,-11.316 L 43.5508,-11.316 L 43.5508,-14.238 L 47.7548,-14.238 L 47.7548,-15.554 L 43.5508,-15.554
 L 43.5508,-18.544 L 48.5008,-18.544 L 48.5008,-19.86 L 42.1678,-19.86 L 42.1678,-10 L 48.5008,-10
 z
M -44.8222,-16.89 L -43.0052,-10 L -41.5942,-10 L -39.1872,-19.86 L -40.6242,-19.86 L -42.3672,-12.129
 L -44.3882,-19.86 L -45.3372,-19.86 L -47.3582,-12.129 L -49.1012,-19.86 L -50.5392,-19.86 L -48.1312,-10
 L -46.7212,-10 z
M -26.4992,-11.316 L -31.4492,-11.316 L -31.4492,-14.238 L -27.2452,-14.238 L -27.2452,-15.554 L -31.4492,-15.554
 L -31.4492,-18.544 L -26.4992,-18.544 L -26.4992,-19.86 L -32.8322,-19.86 L -32.8322,-10 L -26.4992,-10
 z
M -14.2637,-19.86 L -15.6467,-19.86 L -15.6467,-10 L -14.2637,-10 z
M -1.61816,-13.825 L 0.815826,-13.825 L 1.24364,-13.8483 L 1.64508,-13.9182 L 2.02014,-14.0348 L 2.36882,-14.198
 L 2.68588,-14.4037 L 2.96507,-14.648 L 3.20639,-14.9307 L 3.40982,-15.252 L 3.5717,-15.6067 L 3.68732,-15.989
 L 3.7567,-16.3987 L 3.77983,-16.836 L 3.7567,-17.273 L 3.68732,-17.683 L 3.5717,-18.066 L 3.40982,-18.422
 L 3.20639,-18.7452 L 2.96507,-19.0297 L 2.68588,-19.2757 L 2.36882,-19.483 L 2.02014,-19.6479 L 1.64508,-19.7657
 L 1.24364,-19.8364 L 0.815826,-19.86 L -3.00116,-19.86 L -3.00116,-10 L -1.61816,-10 z
M -1.61816,-15.14 L -1.61816,-18.544 L 0.863831,-18.544 L 1.08101,-18.5306 L 1.28458,-18.4905 L 1.47452,-18.4236
 L 1.65082,-18.33 L 1.81076,-18.2126 L 1.95157,-18.0735 L 2.07326,-17.9126 L 2.17583,-17.73 L 2.25763,-17.5294
 L 2.31607,-17.3135 L 2.35114,-17.0824 L 2.36282,-16.836 L 2.35114,-16.5922 L 2.31607,-16.3627 L 2.25763,-16.1477
 L 2.17583,-15.947 L 2.07326,-15.7649 L 1.95157,-15.6047 L 1.81076,-15.4664 L 1.65082,-15.35 L 1.47452,-15.2581
 L 1.28458,-15.1925 L 1.08101,-15.1531 L 0.863831,-15.14 z
M 15.4614,-10.0258 L 15.9906,-10.1032 L 16.4769,-10.2323 L 16.9203,-10.413 L 17.3171,-10.6437 L 17.6636,-10.9217
 L 17.9596,-11.2472 L 18.2053,-11.62 L 18.3982,-12.0373 L 18.5361,-12.4952 L 18.6187,-12.9938 L 18.6463,-13.533
 L 18.6463,-16.327 L 18.6187,-16.8661 L 18.5361,-17.3645 L 18.3982,-17.8221 L 18.2053,-18.239 L 17.9598,-18.6122
 L 17.6643,-18.9377 L 17.3188,-19.2157 L 16.9233,-19.446 L 16.4816,-19.6271 L 15.9966,-19.7565 L 15.4681,-19.8341
 L 14.8963,-19.86 L 11.7703,-19.86 L 11.7703,-10 L 14.8893,-10 z
M 13.1533,-11.316 L 13.1533,-18.544 L 14.9363,-18.544 L 15.4516,-18.5086 L 15.9053,-18.4025 L 16.2976,-18.2256
 L 16.6283,-17.978 L 16.8913,-17.6659 L 17.0791,-17.2957 L 17.1917,-16.8674 L 17.2293,-16.381 L 17.2293,-13.479
 L 17.1917,-12.9926 L 17.0791,-12.5642 L 16.8913,-12.1941 L 16.6283,-11.882 L 16.2976,-11.6344 L 15.9053,-11.4575
 L 15.4516,-11.3514 L 14.9363,-11.316 z
M 4.39896,4.24001 L 3.12154,3.23615 L 3.24852,2.94769 L 3.38321,2.48676 L 3.46402,1.99319 L 3.49097,1.46701
 L 3.49097,-1.327 L 3.46402,-1.85318 L 3.38321,-2.34674 L 3.24852,-2.80768 L 3.05997,-3.23599 L 2.8222,-3.62468
 L 2.53996,-3.96674 L 2.21321,-4.26218 L 1.84196,-4.51099 L 1.43365,-4.7083 L 0.994705,-4.84924 L 0.525146,-4.93381
 L 0.0249634,-4.96199 L -0.474838,-4.93381 L -0.944275,-4.84924 L -1.38333,-4.7083 L -1.79202,-4.51099 L -2.16327,-4.26218
 L -2.49002,-3.96674 L -2.77228,-3.62468 L -3.01003,-3.23599 L -3.19815,-2.80768 L -3.33252,-2.34674 L -3.41315,-1.85318
 L -3.44002,-1.327 L -3.44002,1.46701 L -3.41315,1.99319 L -3.33252,2.48676 L -3.19815,2.94769 L -3.01003,3.37601
 L -2.77228,3.76469 L -2.49002,4.10675 L -2.16327,4.40219 L -1.79202,4.651 L -1.38333,4.84833 L -0.944275,4.98926
 L -0.474838,5.07381 L 0.0249634,5.10199 L 0.525146,5.07381 L 0.994705,4.98926 L 1.43365,4.84833 L 1.84196,4.651
 L 2.21321,4.40219 L 2.44696,4.19084 L 3.68095,5.16299 z
M -0.270966,3.72182 L -0.548767,3.67026 L -0.808456,3.58432 L -1.05002,3.464 L -1.26897,3.31213 L -1.46178,3.1315
 L -1.62846,2.92213 L -1.76903,2.68401 L -1.88014,2.42151 L -1.95952,2.13901 L -2.00714,1.8365 L -2.02303,1.51401
 L -2.02303,-1.37399 L -2.00714,-1.69649 L -1.95952,-1.99899 L -1.88014,-2.28149 L -1.76903,-2.54399 L -1.62846,-2.78212
 L -1.46178,-2.99149 L -1.26897,-3.17212 L -1.05002,-3.32399 L -0.808456,-3.44431 L -0.548767,-3.53024 L -0.270966,-3.5818
 L 0.0249634,-3.599 L 0.321274,-3.5818 L 0.599213,-3.53024 L 0.85878,-3.44431 L 1.09996,-3.32399 L 1.31927,-3.17212
 L 1.51221,-2.99149 L 1.67877,-2.78212 L 1.81895,-2.54399 L 1.93008,-2.28149 L 2.00946,-1.99899 L 2.05708,-1.69649
 L 2.07297,-1.37399 L 2.07297,1.51401 L 2.05708,1.8365 L 2.00946,2.13901 L 1.95808,2.32184 L 0.723969,1.35201
 L 0.00495911,2.26701 L 1.32489,3.30687 L 1.31927,3.31213 L 1.09996,3.464 L 0.85878,3.58432 L 0.599213,3.67026
 L 0.321274,3.72182 L 0.0249634,3.73901 z
M -16.8169,0.830002 L -14.7565,0.830002 L -12.6529,5 L -11.0119,5 L -13.2883,0.680099 L -13.129,0.631439
 L -12.7929,0.477005 L -12.487,0.282135 L -12.2172,0.0505066 L -11.9835,-0.217865 L -11.7859,-0.522995 L -11.6284,-0.859497
 L -11.5159,-1.22099 L -11.4484,-1.6075 L -11.4259,-2.019 L -11.4482,-2.42999 L -11.5149,-2.81599 L -11.6262,-3.17699
 L -11.7819,-3.51299 L -11.9781,-3.81856 L -12.2109,-4.08725 L -12.4802,-4.31906 L -12.7859,-4.51399 L -13.1224,-4.66843
 L -13.4849,-4.77875 L -13.8734,-4.84492 L -14.2879,-4.86699 L -18.1999,-4.86699 L -18.1999,5 L -16.8169,5
 z
M -16.8169,-0.485992 L -16.8169,-3.55099 L -14.2329,-3.55099 L -14.0391,-3.53912 L -13.8577,-3.50349 L -13.6886,-3.44412
 L -13.5319,-3.36099 L -13.3894,-3.25606 L -13.2639,-3.13124 L -13.1554,-2.98656 L -13.0639,-2.82199 L -12.9908,-2.64093
 L -12.9387,-2.44675 L -12.9073,-2.23943 L -12.8969,-2.019 L -12.9073,-1.79811 L -12.9387,-1.5905 L -12.9908,-1.39612
 L -13.0639,-1.215 L -13.1556,-1.05043 L -13.2646,-0.905746 L -13.3911,-0.78093 L -13.5349,-0.675995 L -13.6929,-0.592865
 L -13.8619,-0.533493 L -14.0419,-0.497864 L -14.2329,-0.485992 z
M -56.0325,-4.85999 L -57.5385,-4.85999 L -59.9045,2.871 L -62.2715,-4.85999 L -63.7775,-4.85999 L -60.5625,5
 L -59.2475,5 z
M -44.2637,-4.85999 L -45.6467,-4.85999 L -45.6467,5 L -44.2637,5 z
M -26.4992,3.68401 L -31.4492,3.68401 L -31.4492,0.762009 L -27.2452,0.762009 L -27.2452,-0.553986 L -31.4492,-0.553986
 L -31.4492,-3.54399 L -26.4992,-3.54399 L -26.4992,-4.85999 L -32.8322,-4.85999 L -32.8322,5 L -26.4992,5
 z
M 13.8125,0.850006 L 17.8885,0.850006 L 17.8885,-0.465988 L 13.8125,-0.465988 L 13.8125,-3.54399 L 18.6335,-3.54399
 L 18.6335,-4.85999 L 12.4295,-4.85999 L 12.4295,5 L 13.8125,5 z
M 42.8415,-2.26105 L 47.4875,4.99301 L 48.7555,4.99301 L 48.7555,-4.85999 L 47.3855,-4.85999 L 47.3855,2.50435
 L 42.7265,-4.85999 L 41.4725,-4.85999 L 41.4725,4.99301 L 42.8415,4.99301 z
M 58.8125,0.850006 L 62.8885,0.850006 L 62.8885,-0.465988 L 58.8125,-0.465988 L 58.8125,-3.54399 L 63.6335,-3.54399
 L 63.6335,-4.85999 L 57.4295,-4.85999 L 57.4295,5 L 58.8125,5 z
M 29.4082,-4.82076 L 28.0242,-4.82076 L 28.0242,-3.6936 L 29.4082,-3.6936 z
M 32.1881,-4.82076 L 30.8051,-4.82076 L 30.8051,-3.6936 L 32.1881,-3.6936 z
M 30.6287,5.06116 L 31.1184,4.99532 L 31.5682,4.88554 L 31.9781,4.73186 L 32.3448,4.53627 L 32.6646,4.30074
 L 32.9378,4.02525 L 33.1641,3.70985 L 33.3422,3.35696 L 33.4694,2.96983 L 33.5457,2.54848 L 33.5712,2.0929
 L 33.5712,-3.03589 L 32.1881,-3.03589 L 32.1881,2.132 L 32.154,2.54643 L 32.0517,2.91116 L 31.881,3.22615
 L 31.6422,3.49142 L 31.341,3.70181 L 30.9834,3.85207 L 30.5695,3.94223 L 30.0992,3.97229 L 29.6321,3.94223
 L 29.2209,3.85207 L 28.8656,3.70181 L 28.5662,3.49142 L 28.329,3.22615 L 28.1597,2.91116 L 28.058,2.54643
 L 28.0242,2.132 L 28.0242,-3.03589 L 26.6412,-3.03589 L 26.6412,2.0929 L 26.6666,2.54848 L 26.7429,2.96983
 L 26.8701,3.35696 L 27.0482,3.70985 L 27.2747,4.02525 L 27.5474,4.30074 L 27.8662,4.53627 L 28.2312,4.73186
 L 28.6393,4.88554 L 29.0867,4.99532 L 29.5733,5.06116 L 30.0992,5.08311 z
M 60.5602,20.081 L 61.0702,20.018 L 61.5382,19.913 L 61.9642,19.766 L 62.3457,19.579 L 62.6792,19.354
 L 62.9647,19.091 L 63.2022,18.79 L 63.389,18.4532 L 63.5225,18.0838 L 63.6025,17.6817 L 63.6292,17.247
 L 63.6292,17.233 L 63.604,16.7741 L 63.5282,16.3665 L 63.402,16.0101 L 63.2252,15.705 L 63.0114,15.4443
 L 62.773,15.2223 L 62.5099,15.0388 L 62.2222,14.894 L 61.9038,14.7728 L 61.5485,14.66 L 61.1563,14.5558
 L 60.7272,14.46 L 60.7098,14.4565 L 60.6915,14.453 L 60.6723,14.4495 L 60.5782,14.433 L 60.5649,14.4298
 L 60.552,14.427 L 60.5394,14.4248 L 60.5272,14.423 L 60.515,14.4208 L 60.5025,14.4183 L 60.4895,14.4153
 L 60.4762,14.412 L 60.1142,14.3381 L 59.794,14.2655 L 59.5157,14.1941 L 59.2792,14.124 L 59.0727,14.045
 L 58.884,13.947 L 58.7132,13.83 L 58.5602,13.694 L 58.4342,13.5344 L 58.3442,13.3478 L 58.2902,13.1339
 L 58.2722,12.893 L 58.2722,12.886 L 58.3072,12.5375 L 58.412,12.231 L 58.5867,11.9665 L 58.8312,11.744
 L 59.1394,11.5673 L 59.5037,11.441 L 59.9243,11.3653 L 60.4012,11.34 L 60.6825,11.353 L 60.9632,11.3918
 L 61.2435,11.4565 L 61.5232,11.547 L 61.8034,11.6635 L 62.084,11.8058 L 62.3649,11.9739 L 62.6462,12.168
 L 63.4332,11.069 L 63.1911,10.9034 L 62.947,10.7528 L 62.7007,10.6169 L 62.4522,10.496 L 62.2023,10.3895
 L 61.9507,10.297 L 61.6973,10.2185 L 61.4422,10.154 L 61.1852,10.1033 L 60.926,10.067 L 60.6646,10.0453
 L 60.4012,10.038 L 59.8686,10.0592 L 59.3757,10.1228 L 58.9226,10.2287 L 58.5092,10.377 L 58.1397,10.5658
 L 57.817,10.7933 L 57.5412,11.0593 L 57.3122,11.364 L 57.1329,11.7047 L 57.0047,12.0788 L 56.9279,12.4862
 L 56.9022,12.927 L 56.9022,12.934 L 56.9298,13.4262 L 57.0125,13.8588 L 57.1503,14.2317 L 57.3432,14.545
 L 57.5749,14.806 L 57.829,15.023 L 58.1054,15.196 L 58.4042,15.325 L 58.7378,15.4288 L 59.1175,15.527
 L 59.5433,15.6198 L 60.0152,15.707 L 60.1172,15.728 L 60.1274,15.7311 L 60.138,15.7333 L 60.1489,15.7346
 L 60.1602,15.735 L 60.172,15.7354 L 60.1835,15.7365 L 60.1945,15.7384 L 60.2052,15.741 L 60.5253,15.8035
 L 60.8145,15.869 L 61.0728,15.9375 L 61.3002,16.009 L 61.5024,16.0918 L 61.685,16.194 L 61.8479,16.3158
 L 61.9912,16.457 L 62.1085,16.6213 L 62.1922,16.8123 L 62.2425,17.0298 L 62.2592,17.274 L 62.2592,17.281
 L 62.2223,17.623 L 62.1117,17.924 L 61.9273,18.184 L 61.6692,18.403 L 61.3441,18.5767 L 60.959,18.7008
 L 60.5136,18.7752 L 60.0082,18.8 L 59.6189,18.7848 L 59.2437,18.739 L 58.8829,18.6628 L 58.5362,18.556
 L 58.2045,18.4183 L 57.8872,18.2503 L 57.5845,18.0518 L 57.2962,17.823 L 56.4342,18.881 L 56.6796,19.076
 L 56.9337,19.254 L 57.1966,19.415 L 57.4682,19.559 L 57.75,19.6861 L 58.0422,19.7963 L 58.345,19.8896
 L 58.6582,19.966 L 58.9819,20.0255 L 59.3147,20.068 L 59.6568,20.0935 L 60.0082,20.102 z
M 30.6657,20.0793 L 31.0617,20.0112 L 31.4417,19.8978 L 31.8057,19.739 L 32.1472,19.5387 L 32.4599,19.3008
 L 32.7437,19.0252 L 32.9987,18.712 L 33.2202,18.3664 L 33.4027,17.9945 L 33.5462,17.5964 L 33.6507,17.172
 L 32.2337,17.172 L 32.1584,17.4111 L 32.0614,17.6333 L 31.9429,17.8386 L 31.8027,18.027 L 31.6453,18.1955
 L 31.4752,18.342 L 31.2923,18.4665 L 31.0967,18.569 L 30.8929,18.6491 L 30.6844,18.7063 L 30.4714,18.7406
 L 30.2537,18.752 L 29.961,18.734 L 29.687,18.68 L 29.4315,18.59 L 29.1947,18.464 L 28.9804,18.3049
 L 28.7914,18.1158 L 28.6279,17.8964 L 28.4897,17.647 L 28.3799,17.3723 L 28.3015,17.0773 L 28.2544,16.7618
 L 28.2387,16.426 L 28.2387,13.721 L 28.2544,13.3824 L 28.3015,13.0655 L 28.3799,12.7704 L 28.4897,12.497
 L 28.6279,12.2487 L 28.7914,12.0298 L 28.9804,11.8402 L 29.1947,11.68 L 29.4315,11.5523 L 29.687,11.461
 L 29.961,11.4062 L 30.2537,11.388 L 30.4689,11.4003 L 30.6807,11.4373 L 30.8889,11.4988 L 31.0937,11.585
 L 31.2906,11.6935 L 31.4744,11.8228 L 31.6451,11.9729 L 31.8027,12.144 L 31.9429,12.3316 L 32.0614,12.5315
 L 32.1584,12.7436 L 32.2337,12.968 L 33.6507,12.968 L 33.5464,12.5437 L 33.4037,12.1458 L 33.2224,11.7742
 L 33.0027,11.429 L 32.7491,11.1154 L 32.4662,10.8395 L 32.1541,10.6014 L 31.8127,10.401 L 31.4482,10.2422
 L 31.0669,10.1288 L 30.6687,10.0607 L 30.2537,10.038 L 29.7571,10.0666 L 29.2914,10.1525 L 28.8566,10.2956
 L 28.4527,10.496 L 28.0864,10.7485 L 27.7637,11.048 L 27.4845,11.3945 L 27.2487,11.788 L 27.0619,12.2216
 L 26.9285,12.6883 L 26.8484,13.1881 L 26.8217,13.721 L 26.8217,16.426 L 26.8484,16.9589 L 26.9285,17.4588
 L 27.0619,17.9254 L 27.2487,18.359 L 27.4845,18.7523 L 27.7637,19.0983 L 28.0864,19.3968 L 28.4527,19.648
 L 28.8566,19.8466 L 29.2914,19.9885 L 29.7571,20.0736 L 30.2537,20.102 z
M 0.560211,20.081 L 1.07021,20.018 L 1.53821,19.913 L 1.96422,19.766 L 2.34572,19.579 L 2.67921,19.354
 L 2.96471,19.091 L 3.20221,18.79 L 3.38902,18.4532 L 3.52246,18.0838 L 3.60252,17.6817 L 3.62921,17.247
 L 3.62921,17.233 L 3.60396,16.7741 L 3.52821,16.3665 L 3.40196,16.0101 L 3.2252,15.705 L 3.0114,15.4443
 L 2.77296,15.2223 L 2.5099,15.0388 L 2.22221,14.894 L 1.90378,14.7728 L 1.54846,14.66 L 1.15628,14.5558
 L 0.727219,14.46 L 0.709778,14.4565 L 0.691467,14.453 L 0.672272,14.4495 L 0.578217,14.433 L 0.564896,14.4298
 L 0.551956,14.427 L 0.539398,14.4248 L 0.527206,14.423 L 0.51503,14.4208 L 0.502457,14.4183 L 0.489517,14.4153
 L 0.476212,14.412 L 0.114151,14.3381 L -0.206024,14.2655 L -0.484329,14.1941 L -0.720779,14.124 L -0.927338,14.045
 L -1.11603,13.947 L -1.28683,13.83 L -1.43977,13.694 L -1.56578,13.5344 L -1.65578,13.3478 L -1.70978,13.1339
 L -1.72777,12.893 L -1.72777,12.886 L -1.69284,12.5375 L -1.58803,12.231 L -1.41333,11.9665 L -1.16878,11.744
 L -0.860641,11.5673 L -0.496277,11.441 L -0.0756531,11.3653 L 0.401215,11.34 L 0.682465,11.353 L 0.963211,11.3918
 L 1.24345,11.4565 L 1.52321,11.547 L 1.80341,11.6635 L 2.08395,11.8058 L 2.3649,11.9739 L 2.64621,12.168
 L 3.43321,11.069 L 3.19115,10.9034 L 2.94696,10.7528 L 2.70065,10.6169 L 2.45221,10.496 L 2.20233,10.3895
 L 1.95071,10.297 L 1.69734,10.2185 L 1.44221,10.154 L 1.18515,10.1033 L 0.925964,10.067 L 0.664642,10.0453
 L 0.401215,10.038 L -0.131393,10.0592 L -0.624268,10.1228 L -1.07739,10.2287 L -1.49077,10.377 L -1.86034,10.5658
 L -2.18303,10.7933 L -2.45883,11.0593 L -2.68777,11.364 L -2.86714,11.7047 L -2.99527,12.0788 L -3.07214,12.4862
 L -3.09778,12.927 L -3.09778,12.934 L -3.07021,13.4262 L -2.98752,13.8588 L -2.84972,14.2317 L -2.65677,14.545
 L -2.42508,14.806 L -2.17102,15.023 L -1.89459,15.196 L -1.59578,15.325 L -1.26221,15.4288 L -0.882523,15.527
 L -0.456711,15.6198 L 0.015213,15.707 L 0.117218,15.728 L 0.127396,15.7311 L 0.137955,15.7333 L 0.148895,15.7346
 L 0.160217,15.735 L 0.172028,15.7354 L 0.183456,15.7365 L 0.194519,15.7384 L 0.205215,15.741 L 0.525269,15.8035
 L 0.814468,15.869 L 1.07277,15.9375 L 1.30022,16.009 L 1.5024,16.0918 L 1.68497,16.194 L 1.8479,16.3158
 L 1.99121,16.457 L 2.10846,16.6213 L 2.19221,16.8123 L 2.24246,17.0298 L 2.25922,17.274 L 2.25922,17.281
 L 2.22234,17.623 L 2.11171,17.924 L 1.92734,18.184 L 1.6692,18.403 L 1.34415,18.5767 L 0.958954,18.7008
 L 0.513641,18.7752 L 0.00820923,18.8 L -0.381149,18.7848 L -0.756271,18.739 L -1.11714,18.6628 L -1.46378,18.556
 L -1.79552,18.4183 L -2.11278,18.2503 L -2.41553,18.0518 L -2.70378,17.823 L -3.56578,18.881 L -3.3204,19.076
 L -3.06627,19.254 L -2.80341,19.415 L -2.53177,19.559 L -2.25003,19.6861 L -1.95778,19.7963 L -1.65503,19.8896
 L -1.34177,19.966 L -1.01814,20.0255 L -0.685272,20.068 L -0.343155,20.0935 L 0.00820923,20.102 z
M -14.9209,16.172 L -12.6567,20 L -11.1037,20 L -14.2012,14.9641 L -11.2527,10.14 L -12.8057,10.14
 L -14.929,13.7647 L -17.0777,10.14 L -18.6306,10.14 L -15.6498,14.9712 L -18.7117,20 L -17.1586,20
 z
M 18.5008,18.684 L 13.5508,18.684 L 13.5508,15.762 L 17.7548,15.762 L 17.7548,14.446 L 13.5508,14.446
 L 13.5508,11.456 L 18.5008,11.456 L 18.5008,10.14 L 12.1678,10.14 L 12.1678,20 L 18.5008,20
 z
M 43.001,15.802 L 47.219,15.802 L 47.219,20 L 48.602,20 L 48.602,10.14 L 47.219,10.14
 L 47.219,14.487 L 43.001,14.487 L 43.001,10.14 L 41.618,10.14 L 41.618,20 L 43.001,20
 z
M -41.3337,18.684 L -46.2837,18.684 L -46.2837,10.14 L -47.6667,10.14 L -47.6667,20 L -41.3337,20
 z
M -31.1875,15.85 L -27.1115,15.85 L -27.1115,14.534 L -31.1875,14.534 L -31.1875,11.456 L -26.3665,11.456
 L -26.3665,10.14 L -32.5705,10.14 L -32.5705,20 L -31.1875,20 z
M -56.4992,18.684 L -61.4492,18.684 L -61.4492,15.762 L -57.2452,15.762 L -57.2452,14.446 L -61.4492,14.446
 L -61.4492,11.456 L -56.4992,11.456 L -56.4992,10.14 L -62.8322,10.14 L -62.8322,20 L -56.4992,20
 z
M -44.4398,35.081 L -43.9298,35.018 L -43.4618,34.913 L -43.0358,34.766 L -42.6543,34.579 L -42.3208,34.354
 L -42.0353,34.091 L -41.7978,33.79 L -41.611,33.4532 L -41.4775,33.0838 L -41.3975,32.6817 L -41.3708,32.247
 L -41.3708,32.233 L -41.396,31.7741 L -41.4718,31.3665 L -41.598,31.0101 L -41.7748,30.705 L -41.9886,30.4443
 L -42.227,30.2223 L -42.4901,30.0388 L -42.7778,29.894 L -43.0962,29.7728 L -43.4515,29.66 L -43.8437,29.5558
 L -44.2728,29.46 L -44.2902,29.4565 L -44.3085,29.453 L -44.3277,29.4495 L -44.4218,29.433 L -44.4351,29.4298
 L -44.448,29.427 L -44.4606,29.4248 L -44.4728,29.423 L -44.485,29.4208 L -44.4975,29.4183 L -44.5105,29.4153
 L -44.5238,29.412 L -44.8858,29.3381 L -45.206,29.2655 L -45.4843,29.1941 L -45.7208,29.124 L -45.9273,29.045
 L -46.116,28.947 L -46.2868,28.83 L -46.4398,28.694 L -46.5658,28.5344 L -46.6558,28.3478 L -46.7098,28.1339
 L -46.7278,27.893 L -46.7278,27.886 L -46.6928,27.5375 L -46.588,27.231 L -46.4133,26.9665 L -46.1688,26.744
 L -45.8606,26.5673 L -45.4963,26.441 L -45.0757,26.3653 L -44.5988,26.34 L -44.3175,26.353 L -44.0368,26.3918
 L -43.7565,26.4565 L -43.4768,26.547 L -43.1966,26.6635 L -42.916,26.8058 L -42.6351,26.9739 L -42.3538,27.168
 L -41.5668,26.069 L -41.8089,25.9034 L -42.053,25.7528 L -42.2993,25.6169 L -42.5478,25.496 L -42.7977,25.3895
 L -43.0493,25.297 L -43.3027,25.2185 L -43.5578,25.154 L -43.8148,25.1033 L -44.074,25.067 L -44.3354,25.0453
 L -44.5988,25.038 L -45.1314,25.0592 L -45.6243,25.1228 L -46.0774,25.2287 L -46.4908,25.377 L -46.8603,25.5658
 L -47.183,25.7933 L -47.4588,26.0593 L -47.6878,26.364 L -47.8671,26.7047 L -47.9953,27.0788 L -48.0721,27.4862
 L -48.0978,27.927 L -48.0978,27.934 L -48.0702,28.4262 L -47.9875,28.8588 L -47.8497,29.2317 L -47.6568,29.545
 L -47.4251,29.806 L -47.171,30.023 L -46.8946,30.196 L -46.5958,30.325 L -46.2622,30.4288 L -45.8825,30.527
 L -45.4567,30.6198 L -44.9848,30.707 L -44.8828,30.728 L -44.8726,30.7311 L -44.862,30.7333 L -44.8511,30.7346
 L -44.8398,30.735 L -44.828,30.7354 L -44.8165,30.7365 L -44.8055,30.7384 L -44.7948,30.741 L -44.4747,30.8035
 L -44.1855,30.869 L -43.9272,30.9375 L -43.6998,31.009 L -43.4976,31.0918 L -43.315,31.194 L -43.1521,31.3158
 L -43.0088,31.457 L -42.8915,31.6213 L -42.8078,31.8123 L -42.7575,32.0298 L -42.7408,32.274 L -42.7408,32.281
 L -42.7777,32.623 L -42.8883,32.924 L -43.0727,33.184 L -43.3308,33.403 L -43.6559,33.5767 L -44.041,33.7008
 L -44.4864,33.7752 L -44.9918,33.8 L -45.3811,33.7848 L -45.7563,33.739 L -46.1171,33.6628 L -46.4638,33.556
 L -46.7955,33.4183 L -47.1128,33.2503 L -47.4155,33.0518 L -47.7038,32.823 L -48.5658,33.881 L -48.3204,34.076
 L -48.0663,34.254 L -47.8034,34.415 L -47.5318,34.559 L -47.25,34.6861 L -46.9578,34.7963 L -46.655,34.8896
 L -46.3418,34.966 L -46.0181,35.0255 L -45.6853,35.068 L -45.3432,35.0935 L -44.9918,35.102 z
M -59.2267,30.992 L -56.2227,25.14 L -57.7617,25.14 L -59.9187,29.589 L -62.0746,25.14 L -63.6136,25.14
 L -60.6096,30.992 L -60.6096,35 L -59.2267,35 z
M 1.26805,34.9793 L 1.66455,34.917 L 2.03406,34.8133 L 2.37656,34.668 L 2.68643,34.4842 L 2.95805,34.2658
 L 3.19142,34.0127 L 3.38655,33.725 L 3.54099,33.4081 L 3.65131,33.0675 L 3.71748,32.7031 L 3.73955,32.315
 L 3.73955,32.294 L 3.72511,32.0076 L 3.68181,31.7313 L 3.60962,31.4651 L 3.50854,31.209 L 3.3808,30.9684
 L 3.22755,30.7488 L 3.0488,30.5499 L 2.84454,30.372 L 2.61737,30.2195 L 2.3698,30.098 L 2.10187,30.0075
 L 1.81355,29.948 L 2.09993,29.8806 L 2.36205,29.7875 L 2.59993,29.6686 L 2.81355,29.524 L 3.00255,29.3584
 L 3.16556,29.1768 L 3.30255,28.9789 L 3.41354,28.765 L 3.49974,28.5386 L 3.56129,28.3043 L 3.59824,28.0621
 L 3.61055,27.812 L 3.59061,27.4129 L 3.53081,27.0425 L 3.43111,26.7009 L 3.29155,26.388 L 3.11211,26.1065
 L 2.8918,25.859 L 2.63062,25.6455 L 2.32855,25.466 L 1.98705,25.3234 L 1.60655,25.2215 L 1.18706,25.1604
 L 0.728546,25.14 L -3.15643,25.14 L -3.15643,35 L 0.844543,35 z
M -1.78044,29.317 L -1.78044,26.422 L 0.477554,26.422 L 0.88443,26.4449 L 1.23705,26.5135 L 1.53543,26.6279
 L 1.77956,26.788 L 1.96942,26.9943 L 2.10506,27.2473 L 2.18643,27.5468 L 2.21355,27.893 L 2.18918,28.2239
 L 2.11606,28.5118 L 1.99417,28.7564 L 1.82355,28.958 L 1.60542,29.1151 L 1.34006,29.2273 L 1.02742,29.2946
 L 0.667557,29.317 z
M -1.78044,33.718 L -1.78044,30.565 L 0.667557,30.565 L 0.945923,30.5771 L 1.19804,30.6135 L 1.42392,30.6741
 L 1.62355,30.759 L 1.79755,30.8659 L 1.94655,30.9935 L 2.07056,31.1419 L 2.16956,31.311 L 2.24524,31.4995
 L 2.2993,31.7058 L 2.33174,31.9299 L 2.34254,32.172 L 2.34254,32.193 L 2.31242,32.5352 L 2.22205,32.8368
 L 2.07143,33.0977 L 1.86055,33.318 L 1.58443,33.493 L 1.23705,33.618 L 0.81842,33.693 L 0.328552,33.718
 z
M 18.5008,33.684 L 13.5508,33.684 L 13.5508,30.762 L 17.7548,30.762 L 17.7548,29.446 L 13.5508,29.446
 L 13.5508,26.456 L 18.5008,26.456 L 18.5008,25.14 L 12.1678,25.14 L 12.1678,35 L 18.5008,35
 z
M 27.8415,27.739 L 32.4875,34.993 L 33.7555,34.993 L 33.7555,25.14 L 32.3855,25.14 L 32.3855,32.5043
 L 27.7265,25.14 L 26.4725,25.14 L 26.4725,34.993 L 27.8415,34.993 z
M -11.4992,33.684 L -16.4492,33.684 L -16.4492,30.762 L -12.2452,30.762 L -12.2452,29.446 L -16.4492,29.446
 L -16.4492,26.456 L -11.4992,26.456 L -11.4992,25.14 L -17.8322,25.14 L -17.8322,35 L -11.4992,35
 z
M 45.4614,34.9742 L 45.9906,34.8968 L 46.4769,34.7677 L 46.9203,34.587 L 47.3171,34.3563 L 47.6636,34.0783
 L 47.9596,33.7528 L 48.2053,33.38 L 48.3982,32.9627 L 48.5361,32.5048 L 48.6187,32.0062 L 48.6463,31.467
 L 48.6463,28.673 L 48.6187,28.1339 L 48.5361,27.6355 L 48.3982,27.1779 L 48.2053,26.761 L 47.9598,26.3878
 L 47.6643,26.0623 L 47.3188,25.7843 L 46.9233,25.554 L 46.4816,25.3729 L 45.9966,25.2435 L 45.4681,25.1659
 L 44.8963,25.14 L 41.7703,25.14 L 41.7703,35 L 44.8893,35 z
M 43.1533,33.684 L 43.1533,26.456 L 44.9363,26.456 L 45.4516,26.4914 L 45.9053,26.5975 L 46.2976,26.7744
 L 46.6283,27.022 L 46.8913,27.3341 L 47.0791,27.7043 L 47.1917,28.1326 L 47.2293,28.619 L 47.2293,31.521
 L 47.1917,32.0074 L 47.0791,32.4358 L 46.8913,32.8059 L 46.6283,33.118 L 46.2976,33.3656 L 45.9053,33.5425
 L 45.4516,33.6486 L 44.9363,33.684 z
M 63.5008,33.684 L 58.5508,33.684 L 58.5508,30.762 L 62.7548,30.762 L 62.7548,29.446 L 58.5508,29.446
 L 58.5508,26.456 L 63.5008,26.456 L 63.5008,25.14 L 57.1678,25.14 L 57.1678,35 L 63.5008,35
 z
M -29.2637,25.14 L -30.6467,25.14 L -30.6467,35 L -29.2637,35 z
M -44.3343,50.0793 L -43.9383,50.0112 L -43.5583,49.8978 L -43.1943,49.739 L -42.8528,49.5387 L -42.5401,49.3008
 L -42.2563,49.0252 L -42.0013,48.712 L -41.7798,48.3664 L -41.5973,47.9945 L -41.4538,47.5964 L -41.3493,47.172
 L -42.7663,47.172 L -42.8416,47.4111 L -42.9386,47.6333 L -43.0571,47.8386 L -43.1973,48.027 L -43.3547,48.1955
 L -43.5248,48.342 L -43.7077,48.4665 L -43.9033,48.569 L -44.1071,48.6491 L -44.3156,48.7063 L -44.5286,48.7406
 L -44.7463,48.752 L -45.039,48.734 L -45.313,48.68 L -45.5685,48.59 L -45.8053,48.464 L -46.0196,48.3049
 L -46.2086,48.1158 L -46.3721,47.8964 L -46.5103,47.647 L -46.6201,47.3723 L -46.6985,47.0773 L -46.7456,46.7618
 L -46.7613,46.426 L -46.7613,43.721 L -46.7456,43.3824 L -46.6985,43.0655 L -46.6201,42.7704 L -46.5103,42.497
 L -46.3721,42.2487 L -46.2086,42.0298 L -46.0196,41.8402 L -45.8053,41.68 L -45.5685,41.5523 L -45.313,41.461
 L -45.039,41.4062 L -44.7463,41.388 L -44.5311,41.4003 L -44.3193,41.4373 L -44.1111,41.4988 L -43.9063,41.585
 L -43.7094,41.6935 L -43.5256,41.8228 L -43.3549,41.9729 L -43.1973,42.144 L -43.0571,42.3316 L -42.9386,42.5315
 L -42.8416,42.7436 L -42.7663,42.968 L -41.3493,42.968 L -41.4536,42.5437 L -41.5963,42.1458 L -41.7776,41.7742
 L -41.9973,41.429 L -42.2509,41.1154 L -42.5338,40.8395 L -42.8459,40.6014 L -43.1873,40.401 L -43.5518,40.2422
 L -43.9331,40.1288 L -44.3313,40.0607 L -44.7463,40.038 L -45.2429,40.0666 L -45.7086,40.1525 L -46.1434,40.2956
 L -46.5473,40.496 L -46.9136,40.7485 L -47.2363,41.048 L -47.5155,41.3945 L -47.7513,41.788 L -47.9381,42.2216
 L -48.0715,42.6883 L -48.1516,43.1881 L -48.1783,43.721 L -48.1783,46.426 L -48.1516,46.9589 L -48.0715,47.4588
 L -47.9381,47.9254 L -47.7513,48.359 L -47.5155,48.7523 L -47.2363,49.0983 L -46.9136,49.3968 L -46.5473,49.648
 L -46.1434,49.8466 L -45.7086,49.9885 L -45.2429,50.0736 L -44.7463,50.102 z
M 45.6287,50.0751 L 46.1184,49.9943 L 46.5682,49.8596 L 46.9781,49.671 L 47.3448,49.431 L 47.6646,49.142
 L 47.9378,48.804 L 48.1641,48.417 L 48.3422,47.984 L 48.4694,47.509 L 48.5457,46.992 L 48.5712,46.433
 L 48.5712,40.14 L 47.1881,40.14 L 47.1881,46.481 L 47.154,46.9895 L 47.0517,47.437 L 46.881,47.8235
 L 46.6422,48.149 L 46.341,48.4071 L 45.9834,48.5915 L 45.5695,48.7021 L 45.0992,48.739 L 44.6321,48.7021
 L 44.2209,48.5915 L 43.8656,48.4071 L 43.5662,48.149 L 43.329,47.8235 L 43.1597,47.437 L 43.058,46.9895
 L 43.0242,46.481 L 43.0242,40.14 L 41.6412,40.14 L 41.6412,46.433 L 41.6666,46.992 L 41.7429,47.509
 L 41.8701,47.984 L 42.0482,48.417 L 42.2747,48.804 L 42.5474,49.142 L 42.8662,49.431 L 43.2312,49.671
 L 43.6393,49.8596 L 44.0867,49.9943 L 44.5733,50.0751 L 45.0992,50.102 z
M -61.8849,47.837 L -57.9053,47.837 L -57.1621,50 L -55.6701,50 L -59.3051,40.14 L -60.4851,40.14
 L -64.1201,50 L -62.6281,50 z
M -61.4327,46.521 L -59.8951,42.046 L -58.3575,46.521 z
M -31.999,45.802 L -27.781,45.802 L -27.781,50 L -26.398,50 L -26.398,40.14 L -27.781,40.14
 L -27.781,44.487 L -31.999,44.487 L -31.999,40.14 L -33.382,40.14 L -33.382,50 L -31.999,50
 z
M -14.2301,41.456 L -11.4431,41.456 L -11.4431,40.14 L -18.4011,40.14 L -18.4011,41.456 L -15.6141,41.456
 L -15.6141,50 L -14.2301,50 z
M 12.8415,42.739 L 17.4875,49.993 L 18.7555,49.993 L 18.7555,40.14 L 17.3855,40.14 L 17.3855,47.5043
 L 12.7265,40.14 L 11.4725,40.14 L 11.4725,49.993 L 12.8415,49.993 z
M 33.5008,48.684 L 28.5508,48.684 L 28.5508,45.762 L 32.7548,45.762 L 32.7548,44.446 L 28.5508,44.446
 L 28.5508,41.456 L 33.5008,41.456 L 33.5008,40.14 L 27.1678,40.14 L 27.1678,50 L 33.5008,50
 z
M 57.8415,42.739 L 62.4875,49.993 L 63.7555,49.993 L 63.7555,40.14 L 62.3855,40.14 L 62.3855,47.5043
 L 57.7265,40.14 L 56.4725,40.14 L 56.4725,49.993 L 57.8415,49.993 z
M 0.628708,50.0751 L 1.11839,49.9943 L 1.56821,49.8596 L 1.97815,49.671 L 2.34477,49.431 L 2.66464,49.142
 L 2.93777,48.804 L 3.16414,48.417 L 3.34221,47.984 L 3.46939,47.509 L 3.5457,46.992 L 3.57115,46.433
 L 3.57115,40.14 L 2.18814,40.14 L 2.18814,46.481 L 2.15402,46.9895 L 2.05165,47.437 L 1.88103,47.8235
 L 1.64215,48.149 L 1.34096,48.4071 L 0.983398,48.5915 L 0.569458,48.7021 L 0.0991516,48.739 L -0.367905,48.7021
 L -0.779083,48.5915 L -1.1344,48.4071 L -1.43384,48.149 L -1.67096,47.8235 L -1.84035,47.437 L -1.94197,46.9895
 L -1.97585,46.481 L -1.97585,40.14 L -3.35884,40.14 L -3.35884,46.433 L -3.3334,46.992 L -3.2571,47.509
 L -3.1299,47.984 L -2.95184,48.417 L -2.72528,48.804 L -2.45259,49.142 L -2.13377,49.431 L -1.76884,49.671
 L -1.36072,49.8596 L -0.913345,49.9943 L -0.426712,50.0751 L 0.0991516,50.102 z
M 58.8125,60.85 L 62.8885,60.85 L 62.8885,59.534 L 58.8125,59.534 L 58.8125,56.456 L 63.6335,56.456
 L 63.6335,55.14 L 57.4295,55.14 L 57.4295,65 L 58.8125,65 z
M -56.745,63.684 L -61.173,63.684 L -56.881,56.334 L -56.881,55.14 L -62.753,55.14 L -62.753,56.456
 L -58.549,56.456 L -62.875,63.806 L -62.875,65 L -56.745,65 z
M -31.999,60.802 L -27.781,60.802 L -27.781,65 L -26.398,65 L -26.398,55.14 L -27.781,55.14
 L -27.781,59.487 L -31.999,59.487 L -31.999,55.14 L -33.382,55.14 L -33.382,65 L -31.999,65
 z
M -17.1585,57.739 L -12.5125,64.993 L -11.2445,64.993 L -11.2445,55.14 L -12.6145,55.14 L -12.6145,62.5043
 L -17.2735,55.14 L -18.5275,55.14 L -18.5275,64.993 L -17.1585,64.993 z
M 3.25502,63.684 L -1.17296,63.684 L 3.11903,56.334 L 3.11903,55.14 L -2.75296,55.14 L -2.75296,56.456
 L 1.45103,56.456 L -2.87495,63.806 L -2.87495,65 L 3.25502,65 z
M 15.1778,58.11 L 16.9948,65 L 18.4058,65 L 20.8128,55.14 L 19.3758,55.14 L 17.6328,62.871
 L 15.6118,55.14 L 14.6628,55.14 L 12.6418,62.871 L 10.8988,55.14 L 9.46082,55.14 L 11.8688,65
 L 13.2788,65 z
M 48.6663,63.684 L 43.7163,63.684 L 43.7163,55.14 L 42.3333,55.14 L 42.3333,65 L 48.6663,65
 z
M -41.4992,63.684 L -46.4492,63.684 L -46.4492,60.762 L -42.2452,60.762 L -42.2452,59.446 L -46.4492,59.446
 L -46.4492,56.456 L -41.4992,56.456 L -41.4992,55.14 L -47.8322,55.14 L -47.8322,65 L -41.4992,65
 z
M 32.1866,55.1792 L 30.8036,55.1792 L 30.8036,56.3064 L 32.1866,56.3064 z
M 29.4066,55.1792 L 28.0226,55.1792 L 28.0226,56.3064 L 29.4066,56.3064 z
M 30.6047,65.0602 L 31.0743,64.9912 L 31.5132,64.8764 L 31.9216,64.7156 L 32.2928,64.5128 L 32.6196,64.272
 L 32.9018,63.9932 L 33.1396,63.6764 L 33.3281,63.3274 L 33.4628,62.9517 L 33.5436,62.5494 L 33.5706,62.1206
 L 33.5706,59.8435 L 33.5436,59.4147 L 33.4628,59.0124 L 33.3281,58.6367 L 33.1396,58.2877 L 32.9018,57.9709
 L 32.6196,57.6921 L 32.2928,57.4513 L 31.9216,57.2485 L 31.5132,57.0877 L 31.0743,56.9729 L 30.6047,56.9039
 L 30.1046,56.881 L 29.6048,56.9039 L 29.1353,56.9729 L 28.6963,57.0877 L 28.2876,57.2485 L 27.9163,57.4513
 L 27.5896,57.6921 L 27.3073,57.9709 L 27.0696,58.2877 L 26.8814,58.6367 L 26.7471,59.0124 L 26.6664,59.4147
 L 26.6396,59.8435 L 26.6396,62.1206 L 26.6664,62.5494 L 26.7471,62.9517 L 26.8814,63.3274 L 27.0696,63.6764
 L 27.3073,63.9932 L 27.5896,64.272 L 27.9163,64.5128 L 28.2876,64.7156 L 28.6963,64.8764 L 29.1353,64.9912
 L 29.6048,65.0602 L 30.1046,65.0831 z
M 29.8086,63.9583 L 29.5308,63.9163 L 29.2711,63.8462 L 29.0296,63.7482 L 28.8106,63.6244 L 28.6178,63.4772
 L 28.4511,63.3065 L 28.3106,63.1125 L 28.1994,62.8985 L 28.1201,62.6683 L 28.0724,62.4217 L 28.0566,62.1589
 L 28.0566,59.8052 L 28.0724,59.5424 L 28.1201,59.2958 L 28.1994,59.0656 L 28.3106,58.8516 L 28.4511,58.6576
 L 28.6178,58.4869 L 28.8106,58.3397 L 29.0296,58.2159 L 29.2711,58.1179 L 29.5308,58.0479 L 29.8086,58.0058
 L 30.1046,57.9918 L 30.4009,58.0058 L 30.6788,58.0479 L 30.9384,58.1179 L 31.1796,58.2159 L 31.3989,58.3397
 L 31.5918,58.4869 L 31.7584,58.6576 L 31.8985,58.8516 L 32.0097,59.0656 L 32.0891,59.2958 L 32.1367,59.5424
 L 32.1526,59.8052 L 32.1526,62.1589 L 32.1367,62.4217 L 32.0891,62.6683 L 32.0097,62.8985 L 31.8985,63.1125
 L 31.7584,63.3065 L 31.5918,63.4772 L 31.3989,63.6244 L 31.1796,63.7482 L 30.9384,63.8462 L 30.6788,63.9163
 L 30.4009,63.9583 L 30.1046,63.9723 z
" stroke="black" fill="lightgray" stroke-width="0.5"/>
</svg>
